<svg width="32" height="32" viewBox="0 0 32 32" fill="none" xmlns="http://www.w3.org/2000/svg">
<circle cx="16" cy="16" r="16" fill="#64728C"/>
<g clip-path="url(#clip0_6317_246)">
<path d="M22 14.667C22 19.3337 16 23.3337 16 23.3337C16 23.3337 10 19.3337 10 14.667C10 13.0757 10.6321 11.5496 11.7574 10.4244C12.8826 9.29913 14.4087 8.66699 16 8.66699C17.5913 8.66699 19.1174 9.29913 20.2426 10.4244C21.3679 11.5496 22 13.0757 22 14.667Z" stroke="white" stroke-width="1.36699" stroke-linecap="round" stroke-linejoin="round"/>
<path d="M16 16.667C17.1046 16.667 18 15.7716 18 14.667C18 13.5624 17.1046 12.667 16 12.667C14.8954 12.667 14 13.5624 14 14.667C14 15.7716 14.8954 16.667 16 16.667Z" stroke="white" stroke-width="1.36699" stroke-linecap="round" stroke-linejoin="round"/>
</g>
<defs>
<clipPath id="clip0_6317_246">
<rect width="16" height="16" fill="white" transform="translate(8 8)"/>
</clipPath>
</defs>
</svg>
