<svg width="249" height="258" viewBox="0 0 249 258" fill="none" xmlns="http://www.w3.org/2000/svg">
<g filter="url(#filter0_d_6317_167)">
<rect x="32" y="16" width="185" height="194" rx="92.5" fill="white"/>
<rect x="32.5" y="16.5" width="184" height="193" rx="92" stroke="#FA5762"/>
</g>
<g clip-path="url(#clip0_6317_167)">
<path d="M99.3172 76.1353C97.6883 73.6489 98.1875 70.8485 98.3977 67.9957C98.6604 64.3053 100.421 61.4787 102.549 58.5474C107.724 51.3761 114.844 48.3139 123.383 47.9999C128.322 47.8167 132.815 49.544 136.966 52.1351C137.754 52.6324 138.227 53.627 138.884 54.386C139.304 54.8571 139.672 55.6422 140.171 55.7469C143.166 56.3489 144.874 58.5212 146.424 60.772C148.499 63.8342 149.813 67.2628 149.918 71.0055C149.971 72.759 149.393 74.565 149.051 76.6326C151.048 78.9096 151.127 83.9085 148.999 87.311C148.289 88.4364 147.738 89.6665 147.186 90.8966C146.634 92.179 146.214 92.5716 143.902 93.5924C143.849 96.9424 142.483 99.8738 140.591 102.596C139.803 103.721 139.488 104.925 139.541 106.26C139.567 107.176 139.619 108.092 139.619 109.008C139.593 110.474 139.777 111.73 141.248 112.646C141.958 113.091 142.247 114.216 142.667 115.054C143.14 116.022 143.403 117.095 143.981 117.985C147.081 122.749 151.127 126.465 156.04 129.37C162.424 133.139 168.677 137.117 175.008 140.991C175.297 141.174 175.639 141.383 175.954 141.383C177.478 141.383 178.345 142.221 178.713 143.529C179.659 147.01 180.447 150.57 179.79 154.208C179.133 157.872 176.979 160.489 173.642 162.19C169.728 164.18 165.472 164.886 161.189 165.567C143.981 168.315 126.667 168.655 109.301 167.844C99.5274 167.346 89.7803 166.378 80.217 164.206C78.9822 163.918 77.7737 163.551 76.5914 163.107C70.0233 160.699 67.0545 155.595 68.263 148.738C68.5783 146.984 68.8936 145.231 69.3402 143.503C69.6817 142.169 70.575 141.331 72.0726 141.305C72.3878 141.305 72.7294 141.122 73.0184 140.938C79.5865 136.908 86.1546 132.825 92.7491 128.847C97.7146 125.863 101.629 121.832 104.677 116.964C104.913 116.572 105.123 116.101 105.202 115.656C105.465 113.955 106.306 112.672 107.724 111.704C108.013 111.494 108.224 111.049 108.276 110.683C108.381 109.95 108.355 109.217 108.434 108.458C108.644 105.893 108.355 103.486 106.7 101.313C105.123 99.2718 104.44 96.8377 104.125 94.2728C104.073 93.8803 103.678 93.3568 103.337 93.1998C101.944 92.624 101.077 91.7079 100.657 90.2161C100.394 89.3262 99.8952 88.4364 99.3435 87.6774C97.2154 84.7461 97.373 81.4483 97.8985 78.1506C98.0036 77.5224 98.7392 76.9466 99.3172 76.1353ZM103.757 89.1169C103.311 86.4211 103.022 83.9871 102.522 81.6315C102.286 80.5323 101.813 79.4069 101.209 78.4385C100.71 77.6533 99.7113 77.915 99.6062 78.8311C99.2384 81.5268 99.0545 84.1964 100.762 86.6305C101.472 87.6512 101.839 88.9075 102.522 89.9544C102.943 90.5825 103.573 91.1321 104.204 91.5509C104.651 91.8388 105.281 91.8126 105.964 91.9697C105.491 96.262 107.646 99.612 109.8 103.041C111.875 106.338 114.765 108.485 118.286 109.898C121.623 111.233 125.169 111.337 128.453 110.317C136.151 107.935 140.145 102.098 142.01 94.6131C142.22 93.7494 142.142 92.8072 142.194 91.865C144.27 91.8911 145.583 91.0013 145.977 88.9337C146.082 88.4102 146.371 87.8344 146.739 87.4156C148.736 85.034 148.92 82.2858 148.552 79.4069C148.473 78.7002 148.316 77.9674 147.501 78.0459C146.976 78.0982 146.214 78.5693 146.082 79.0143C145.609 80.7678 145.294 82.5476 145.005 84.3273C144.742 85.9238 144.559 87.5203 144.322 89.1954C142.772 88.5672 142.825 87.468 142.982 86.4473C143.639 81.8147 143.823 77.2084 142.982 72.5497C142.378 69.3043 141.59 66.2159 138.726 64.2006C138.174 63.8081 137.281 63.6772 136.572 63.7034C133.445 63.8081 130.293 64.2792 127.192 64.0698C122.358 63.7557 117.603 63.5202 112.979 65.3261C112.27 65.614 111.692 66.1636 111.035 66.5562C109.747 67.3152 108.434 68.048 107.173 68.8332C106.463 69.2781 105.57 69.723 105.229 70.3773C104.046 72.6282 103.626 75.0361 103.941 77.5748C104.283 80.2444 104.624 82.914 104.94 85.6097C105.045 86.8137 104.913 87.9129 103.757 89.1169ZM110.168 106.626C110.063 108.537 109.879 110.264 109.905 111.992C109.931 112.908 110.168 113.902 110.614 114.661C113.609 119.739 118.417 122.879 123.199 126.02C123.593 126.282 124.46 126.282 124.854 126.02C129.137 123.167 133.261 120.21 136.572 116.127C139.041 113.065 137.649 109.924 138.017 106.495C130.109 114.557 118.102 114.74 110.168 106.626ZM108.46 134.395C110.325 144.105 113.478 153.318 117.55 162.4C118.076 158.055 118.417 153.894 119.1 149.785C119.784 145.623 119.836 141.305 121.649 137.405C120.388 136.201 119.153 135.023 117.813 133.741C116.894 135.416 115.948 137.143 114.871 139.106C112.742 137.536 110.693 136.018 108.46 134.395ZM130.424 162.217C134.575 153.292 137.701 144.079 139.567 134.395C137.386 135.992 135.311 137.536 133.183 139.08C132.079 137.091 131.107 135.337 130.345 133.977C128.926 135.233 127.639 136.384 126.641 137.274C128.637 145.597 129.767 153.841 130.424 162.217ZM133.971 136.594C135.495 135.259 136.94 134.055 138.279 132.773C138.674 132.406 138.91 131.752 139.015 131.176C139.724 126.308 140.408 121.44 141.012 116.572C141.117 115.734 140.644 114.844 140.46 113.981C140.329 114.007 140.197 114.007 140.04 114.033C137.045 120.079 131.843 123.926 126.247 127.512C130.109 129.344 131.764 132.956 133.971 136.594ZM108.013 113.981C107.856 113.981 107.672 114.007 107.514 114.007C107.357 114.897 106.989 115.839 107.068 116.703C107.488 120.367 108.013 124.031 108.539 127.669C108.749 129.213 108.618 131.019 109.406 132.197C110.562 133.898 112.401 135.102 114.03 136.594C116.237 132.956 117.918 129.344 121.78 127.46C116.184 123.874 111.009 120.053 108.013 113.981Z" fill="#F05A64"/>
<path d="M150.811 177.187C162.419 177.187 171.829 167.813 171.829 156.249C171.829 144.686 162.419 135.311 150.811 135.311C139.203 135.311 129.793 144.686 129.793 156.249C129.793 167.813 139.203 177.187 150.811 177.187Z" fill="#F4F7FC"/>
<path d="M155.724 141.619C155.961 141.697 156.039 141.881 156.039 142.116C156.039 142.928 156.066 143.765 156.066 144.576C156.066 144.733 156.118 144.838 156.223 144.943C156.512 145.205 156.591 145.545 156.46 145.911C156.328 146.278 156.013 146.487 155.645 146.513C155.277 146.513 154.936 146.304 154.778 145.99C154.621 145.649 154.699 145.205 154.936 144.969C154.936 144.969 154.936 144.943 154.962 144.943C155.199 144.864 155.172 144.655 155.172 144.446C155.172 143.739 155.172 143.032 155.172 142.352C155.172 142.273 155.172 142.169 155.172 142.09C155.172 141.854 155.251 141.697 155.488 141.619C155.593 141.619 155.672 141.619 155.724 141.619Z" fill="#F05A64"/>
<path d="M145.504 141.619C145.741 141.724 145.82 141.907 145.82 142.142C145.82 142.954 145.846 143.739 145.846 144.55C145.846 144.733 145.898 144.838 146.003 144.969C146.345 145.309 146.398 145.78 146.135 146.147C145.925 146.461 145.609 146.592 145.242 146.513C144.9 146.461 144.637 146.278 144.532 145.937C144.427 145.597 144.48 145.257 144.742 144.969C144.979 144.89 144.953 144.681 144.953 144.498C144.953 143.765 144.953 143.058 144.953 142.326C144.953 142.273 144.953 142.195 144.953 142.142C144.953 141.907 145.031 141.724 145.268 141.645C145.373 141.619 145.452 141.619 145.504 141.619Z" fill="#F05A64"/>
<path d="M150.574 141.619C150.837 141.697 150.889 141.907 150.889 142.169C150.889 142.954 150.889 143.739 150.889 144.55C150.889 144.733 150.942 144.864 151.073 144.969C151.31 145.178 151.388 145.44 151.362 145.754C151.283 146.251 150.837 146.592 150.311 146.513C149.812 146.435 149.497 145.99 149.576 145.492C149.628 145.231 149.733 144.995 149.97 144.864C150.022 144.838 150.048 144.76 150.048 144.707C150.048 144.131 150.048 143.556 150.048 142.954C150.048 142.692 150.075 142.404 150.075 142.142C150.075 141.907 150.127 141.697 150.39 141.619C150.443 141.619 150.495 141.619 150.574 141.619Z" fill="#F05A64"/>
<path d="M143.98 143.242C143.98 143.503 143.98 143.791 143.98 144.053C143.928 144.053 143.875 144.053 143.822 144.053C143.271 144.079 142.719 144.079 142.167 144.105C142.01 144.105 141.852 144.131 141.721 144.158C141.379 144.236 141.116 144.576 141.116 144.917C141.116 152.297 141.116 159.704 141.09 167.085C141.09 167.713 141.116 168.315 141.116 168.943C141.116 169.388 141.537 169.859 141.983 169.859C142.877 169.911 143.77 169.938 144.637 169.938C147.238 169.938 149.865 169.938 152.466 169.938C154.673 169.938 156.88 169.938 159.061 169.911C159.139 169.911 159.244 169.885 159.297 169.833C159.586 169.623 159.744 169.362 159.77 168.969C159.796 166.849 159.822 164.755 159.849 162.635C159.849 162.557 159.875 162.452 159.901 162.374C160.111 161.929 160.348 161.458 160.584 161.013C160.611 160.96 160.637 160.934 160.689 160.882C160.689 160.908 160.689 160.96 160.689 160.987C160.689 163.342 160.689 165.724 160.689 168.079C160.689 168.472 160.689 168.864 160.637 169.283C160.584 169.859 160.243 170.278 159.77 170.566C159.533 170.723 159.271 170.775 158.982 170.775C153.359 170.775 147.737 170.775 142.141 170.775C141.694 170.775 141.353 170.618 141.011 170.409C140.617 170.147 140.407 169.728 140.223 169.309C140.197 169.257 140.197 169.152 140.197 169.1C140.197 161.746 140.197 154.417 140.197 147.063C140.197 146.33 140.223 145.571 140.197 144.838C140.171 144.393 140.354 144.053 140.643 143.765C141.011 143.372 141.458 143.163 141.983 143.163C142.614 143.163 143.271 143.163 143.901 143.163C143.928 143.215 143.954 143.242 143.98 143.242Z" fill="#F05A64"/>
<path d="M158.246 163.839C157.195 163.316 156.144 162.793 155.12 162.295C155.015 162.243 154.988 162.191 155.041 162.086C155.645 160.83 156.249 159.547 156.854 158.291C156.88 158.239 156.933 158.16 156.959 158.108C157.011 158.003 157.09 157.924 157.222 157.898C157.616 157.82 157.931 157.61 158.115 157.244C158.798 155.831 159.507 154.417 160.217 153.004C160.558 152.297 160.9 151.617 161.241 150.91C161.268 150.858 161.294 150.806 161.346 150.753C162.213 151.172 163.08 151.591 163.974 152.009C162.056 155.961 160.164 159.887 158.246 163.839Z" fill="#F05A64"/>
<path d="M164.342 151.303C163.501 150.884 162.66 150.491 161.82 150.099C161.636 150.02 161.452 149.942 161.268 149.863C161.031 149.785 160.953 149.811 160.847 150.02C160.611 150.439 160.401 150.884 160.191 151.329C159.324 153.109 158.457 154.862 157.59 156.642C157.537 156.747 157.485 156.878 157.406 156.982C157.301 157.139 157.143 157.192 156.985 157.113C156.828 157.035 156.749 156.851 156.828 156.694C157.012 156.276 157.196 155.831 157.406 155.412C158.352 153.423 159.324 151.46 160.296 149.471C160.375 149.314 160.48 149.157 160.558 149C160.664 148.816 160.795 148.79 160.979 148.843C161.058 148.869 161.11 148.895 161.163 148.921C161.268 148.973 161.32 148.947 161.373 148.843C161.478 148.633 161.583 148.424 161.688 148.214C161.793 148.005 161.925 147.796 162.056 147.612C162.214 147.403 162.476 147.351 162.713 147.455C163.475 147.796 164.21 148.162 164.972 148.528C165.235 148.659 165.366 149.052 165.261 149.314C164.972 149.942 164.657 150.622 164.342 151.303Z" fill="#F05A64"/>
<path d="M156.67 150.387C156.67 150.675 156.67 150.936 156.67 151.224C152.519 151.224 148.394 151.224 144.243 151.224C144.243 150.936 144.243 150.675 144.243 150.387C148.368 150.387 152.519 150.387 156.67 150.387Z" fill="#F05A64"/>
<path d="M144.243 154.313C144.243 154.025 144.243 153.763 144.243 153.475C148.394 153.475 152.519 153.475 156.67 153.475C156.67 153.763 156.67 154.025 156.67 154.313C152.519 154.313 148.394 154.313 144.243 154.313Z" fill="#F05A64"/>
<path d="M144.243 157.401C144.243 157.113 144.243 156.851 144.243 156.563C148.105 156.563 151.941 156.563 155.777 156.563C155.829 156.851 155.908 157.113 155.961 157.401C152.046 157.401 148.158 157.401 144.243 157.401Z" fill="#F05A64"/>
<path d="M157.878 164.572C157.825 164.624 157.799 164.651 157.773 164.677C156.748 165.593 155.75 166.509 154.725 167.425C154.673 167.477 154.594 167.503 154.541 167.53C154.436 167.53 154.357 167.477 154.357 167.373C154.331 167.163 154.331 166.98 154.331 166.771C154.41 165.541 154.489 164.31 154.568 163.106C154.568 162.976 154.646 163.002 154.725 163.028C155.067 163.185 155.408 163.316 155.723 163.499C156.38 163.813 157.037 164.153 157.694 164.494C157.746 164.494 157.799 164.52 157.878 164.572Z" fill="#F05A64"/>
<path d="M159.797 148.188C159.797 147.272 159.797 146.382 159.797 145.466C159.797 145.231 159.77 145.021 159.77 144.786C159.744 144.446 159.508 144.184 159.166 144.158C158.772 144.132 158.378 144.105 157.984 144.105C157.669 144.105 157.353 144.105 157.038 144.105C157.038 143.791 157.038 143.53 157.038 143.242C157.064 143.242 157.117 143.242 157.143 143.242C157.826 143.242 158.509 143.268 159.219 143.294C159.849 143.32 160.48 143.844 160.611 144.419C160.637 144.576 160.664 144.76 160.664 144.943C160.69 145.859 160.69 146.775 160.69 147.691C160.69 147.822 160.664 147.874 160.532 147.9C160.348 147.927 160.191 148.031 160.033 148.11C159.954 148.136 159.902 148.188 159.849 148.241C159.849 148.188 159.823 148.188 159.797 148.188Z" fill="#F05A64"/>
<path d="M154.2 143.242C154.2 143.53 154.2 143.791 154.2 144.079C153.438 144.079 152.676 144.079 151.914 144.079C151.914 143.791 151.914 143.53 151.914 143.242C152.676 143.242 153.438 143.242 154.2 143.242Z" fill="#F05A64"/>
<path d="M149.051 143.242C149.051 143.53 149.051 143.791 149.051 144.079C148.315 144.079 147.579 144.079 146.844 144.079C146.844 143.791 146.844 143.53 146.844 143.242C147.579 143.242 148.289 143.242 149.051 143.242Z" fill="#F05A64"/>
</g>
<defs>
<filter id="filter0_d_6317_167" x="0" y="0" width="249" height="258" filterUnits="userSpaceOnUse" color-interpolation-filters="sRGB">
<feFlood flood-opacity="0" result="BackgroundImageFix"/>
<feColorMatrix in="SourceAlpha" type="matrix" values="0 0 0 0 0 0 0 0 0 0 0 0 0 0 0 0 0 0 127 0" result="hardAlpha"/>
<feOffset dy="16"/>
<feGaussianBlur stdDeviation="16"/>
<feColorMatrix type="matrix" values="0 0 0 0 0.172549 0 0 0 0 0.207843 0 0 0 0 0.337255 0 0 0 0.05 0"/>
<feBlend mode="normal" in2="BackgroundImageFix" result="effect1_dropShadow_6317_167"/>
<feBlend mode="normal" in="SourceGraphic" in2="effect1_dropShadow_6317_167" result="shape"/>
</filter>
<clipPath id="clip0_6317_167">
<rect width="112" height="129.161" fill="white" transform="translate(68 48)"/>
</clipPath>
</defs>
</svg>
