<svg width="220" height="220" viewBox="0 0 220 220" fill="none" xmlns="http://www.w3.org/2000/svg">
<rect width="220" height="220" rx="40" fill="white"/>
<rect x="8" y="8" width="204" height="204" rx="39" fill="white" stroke="#6554C0" stroke-width="2"/>
<g clip-path="url(#clip0_6325_311)">
<path d="M71.3571 98.0851C69.5869 97.7767 67.8971 97.4817 66.1001 97.1733C66.261 96.1678 66.422 95.189 66.5829 94.2103C66.8377 92.7354 67.1059 91.274 67.3473 89.7992C67.4144 89.3701 67.5887 89.2227 68.0447 89.2227C75.9301 89.2361 83.8155 89.2361 91.7144 89.2361C94.7586 89.2361 97.7894 89.2227 100.834 89.2227C111.361 89.2227 121.888 89.2361 132.416 89.2495C133.998 89.2495 135.58 89.2495 137.297 89.2495C136.519 93.7008 135.768 98.1119 134.977 102.63C135.245 102.63 135.473 102.63 135.701 102.63C141.736 102.63 147.771 102.63 153.805 102.617C154.329 102.617 154.624 102.737 154.878 103.247C159.505 112.565 164.158 121.87 168.825 131.162C169.214 131.939 168.919 132.65 168.839 133.387C168.49 136.525 168.088 139.675 167.685 142.813C167.297 145.843 166.908 148.86 166.519 151.89C166.358 153.123 166.197 154.37 166.09 155.604C166.049 156.113 165.888 156.274 165.352 156.26C162.201 156.234 159.049 156.26 155.898 156.247C155.495 156.247 155.294 156.314 155.173 156.783C153.752 162.321 149.259 166.33 143.68 166.906C136.881 167.617 130.981 163.46 129.197 157.092C129.13 156.837 129.063 156.582 128.982 156.26C128.674 156.26 128.366 156.26 128.057 156.26C117.704 156.26 107.365 156.26 97.0116 156.247C96.4751 156.247 96.274 156.368 96.1131 156.917C94.4367 162.642 90.6281 166.115 84.7275 166.879C77.8076 167.791 71.9069 163.34 70.1769 157.105C70.1099 156.85 70.0428 156.596 69.9624 156.26C67.6021 156.26 65.2418 156.26 62.8816 156.26C60.5347 156.26 58.2013 156.26 55.8008 156.26C56.7395 150.897 57.6514 145.601 58.5902 140.225C56.0422 140.225 53.5478 140.225 51.0132 140.225C51.0132 138.415 51.0132 136.659 51.0132 134.862C58.1208 134.862 65.2284 134.862 72.3897 134.862C72.3897 136.618 72.3897 138.348 72.3897 140.145C72.1483 140.158 71.9203 140.171 71.6789 140.171C69.3321 140.171 66.9852 140.171 64.6384 140.158C64.2629 140.158 64.0215 140.185 63.9544 140.654C63.4046 143.899 62.8413 147.143 62.2781 150.388C62.2513 150.522 62.2781 150.656 62.2781 150.844C64.8261 150.844 67.3875 150.844 69.8417 150.844C70.4183 149.49 70.8341 148.082 71.5716 146.875C74.4549 142.156 78.6927 139.917 84.2447 140.252C89.7162 140.587 94.7049 144.596 96.1399 150.308C96.274 150.83 96.4886 150.938 96.9445 150.911C97.4809 150.884 98.0174 150.897 98.5538 150.897C108.451 150.897 118.361 150.897 128.258 150.897C128.486 150.897 128.701 150.897 128.822 150.897C129.412 149.516 129.841 148.109 130.578 146.889C133.421 142.169 137.659 139.943 143.171 140.238C148.75 140.547 153.765 144.636 155.214 150.401C155.267 150.589 155.509 150.857 155.67 150.871C157.493 150.897 159.331 150.897 161.235 150.897C161.946 145.239 162.643 139.608 163.367 133.91C161.771 133.307 160.189 132.703 158.58 132.1C153.43 130.169 148.294 128.239 143.131 126.335C142.608 126.147 142.527 125.799 142.406 125.356C141.468 121.602 140.502 117.848 139.537 114C141.253 113.571 142.956 113.142 144.74 112.686C145.062 113.933 145.37 115.126 145.665 116.319C146.068 117.915 146.524 119.497 146.845 121.119C146.993 121.897 147.409 122.219 148.079 122.46C150.721 123.412 153.336 124.391 155.965 125.369C157.52 125.946 159.076 126.536 160.806 127.193C160.43 126.429 160.135 125.812 159.827 125.195C157.037 119.618 154.248 114.04 151.445 108.463C151.338 108.248 151.016 107.98 150.788 107.98C145.33 107.953 139.885 107.966 134.427 107.966C134.32 107.966 134.213 107.98 134.025 107.993C131.826 120.637 129.626 133.28 127.413 145.963C125.643 145.655 123.927 145.36 122.13 145.052C125.053 128.225 127.977 111.439 130.9 94.6125C111.267 94.6125 91.6607 94.6125 71.9874 94.6125C71.7862 95.7521 71.5851 96.865 71.3571 98.0851ZM134.105 153.606C134.011 157.561 137.163 161.677 142.246 161.664C146.738 161.637 150.144 158.03 150.198 153.726C150.265 149.195 146.564 145.548 142.125 145.561C137.673 145.575 134.119 149.141 134.105 153.606ZM83.1584 161.65C87.5839 161.624 91.1914 158.017 91.2048 153.606C91.2182 149.235 87.5303 145.548 83.145 145.561C78.3842 145.575 75.0048 149.557 75.0986 153.726C75.1791 158.097 78.7597 161.677 83.1584 161.65Z" fill="#5243AA"/>
<path d="M115.787 83.3636C114.017 83.7256 112.313 84.0608 110.624 84.4094C108.237 74.3537 111.978 59.6992 125.804 52.3653C139.041 45.3397 155.75 49.6436 164.038 62.1931C172.299 74.6889 169.63 90.4428 160.176 99.4795C158.929 98.246 157.682 97.0125 156.394 95.7522C161.262 90.7914 163.757 84.8116 163.582 77.8263C163.448 72.4901 161.678 67.717 158.352 63.5204C151.915 55.3686 140.851 52.258 131.061 55.9049C125.496 57.9831 121.245 61.6433 118.348 66.8321C115.465 71.9806 114.727 77.5179 115.787 83.3636Z" fill="#5243AA"/>
<path d="M69.6539 107.993C69.3053 109.951 68.97 111.868 68.6213 113.853C66.8645 113.544 65.1211 113.236 63.3509 112.927C63.6326 111.278 63.9008 109.683 64.1958 108.034C59.7703 108.034 55.4253 108.034 51.0132 108.034C51.0132 106.237 51.0132 104.481 51.0132 102.684C72.4299 102.684 93.8333 102.684 115.304 102.684C115.304 104.454 115.304 106.197 115.304 107.993C100.083 107.993 84.8884 107.993 69.6539 107.993Z" fill="#5243AA"/>
<path d="M93.8471 118.76C93.8471 120.529 93.8471 122.259 93.8471 124.042C84.862 124.042 75.8903 124.042 66.8382 124.042C66.5029 125.973 66.181 127.863 65.8324 129.874C64.0756 129.566 62.3322 129.271 60.5486 128.963C60.8302 127.327 61.1118 125.745 61.3935 124.096C57.8665 124.096 54.4468 124.096 50.9868 124.096C50.9868 122.299 50.9868 120.543 50.9868 118.76C65.2825 118.76 79.5514 118.76 93.8471 118.76Z" fill="#5243AA"/>
<path d="M136.828 81.1648C136.828 74.0186 136.828 66.8992 136.828 59.7529C138.585 59.7529 140.315 59.7529 142.139 59.7529C142.139 65.0891 142.139 70.4253 142.139 75.8286C146.645 75.8286 151.07 75.8286 155.536 75.8286C155.536 77.6386 155.536 79.3816 155.536 81.1648C149.3 81.1648 143.104 81.1648 136.828 81.1648Z" fill="#5243AA"/>
</g>
<defs>
<clipPath id="clip0_6325_311">
<rect width="118" height="118" fill="white" transform="translate(51 49)"/>
</clipPath>
</defs>
</svg>
