<svg width="220" height="220" viewBox="0 0 220 220" fill="none" xmlns="http://www.w3.org/2000/svg">
<rect width="220" height="220" rx="40" fill="white"/>
<rect x="8" y="8" width="204" height="204" rx="39" fill="white" stroke="#6554C0" stroke-width="2"/>
<g clip-path="url(#clip0_6325_311)">
<path d="M78.2608 168.941C77.9077 167.59 77.2604 166.238 77.3192 164.886C77.5546 150.078 78.0842 135.328 78.2019 120.519C78.2608 115.348 77.3781 110.118 76.9662 104.947C76.7308 104.888 76.4366 104.888 76.2012 104.829C75.3185 107.297 74.4358 109.707 73.6708 112.175C73.0824 114.173 72.082 114.819 69.9636 114.114C64.7264 112.292 59.4892 110.529 54.1931 108.884C52.1924 108.238 51.6039 107.18 52.2512 105.182C56.6058 91.3722 60.9603 77.6801 65.4325 64.0467C65.7856 63.0477 66.8448 61.9312 67.8452 61.4611C74.8478 58.4053 81.968 55.4671 89.0883 52.5876C90.1475 52.1763 91.3244 52 92.5013 52C104.447 52 116.451 52 128.456 52.0588C129.75 52.0588 131.163 52.3526 132.398 52.8227C139.048 55.5259 145.638 58.4053 152.347 61.0497C154.406 61.8724 155.407 63.1065 155.995 65.1045C159.997 77.8564 164.116 90.667 168.176 103.419C168.353 104.065 168.706 104.594 169 105.241C169 106.005 169 106.827 169 107.591C163.057 109.707 157.113 111.822 151.229 113.996C148.934 114.878 147.816 114.173 147.168 111.881C146.462 109.472 145.521 107.18 144.697 104.829C144.462 104.888 144.167 104.947 143.932 104.947C143.52 109.942 142.696 114.937 142.696 119.99C142.814 134.975 143.344 149.96 143.579 164.945C143.579 166.297 142.99 167.648 142.637 169C121.218 168.941 99.7393 168.941 78.2608 168.941ZM69.9636 64.8694C84.2041 97.0723 83.4391 130.744 81.2619 164.769C100.798 164.769 120.041 164.769 139.342 164.769C139.048 154.72 138.695 144.789 138.459 134.917C137.871 111.411 141.166 88.5515 150.052 66.6911C150.287 66.1035 150.346 65.4571 150.464 64.6931C143.873 61.99 137.459 59.2868 131.104 56.7012C126.396 65.1632 120.394 71.5686 110.331 71.5098C100.269 71.3335 94.3255 64.8106 89.7356 56.5836C83.2038 59.3456 76.7896 61.99 69.9636 64.8694ZM68.2571 70.5696C67.9629 70.5696 67.6686 70.6283 67.4333 70.6283C63.726 82.1462 60.0776 93.6052 56.3704 105.299C61.1368 106.886 65.6091 108.355 70.1401 109.824C70.964 107.297 71.4936 105.123 72.4939 103.125C75.3185 97.3661 75.142 91.6072 73.0236 85.672C71.2582 80.677 69.8459 75.6233 68.2571 70.5696ZM164.528 105.299C160.762 93.4877 157.113 82.0286 153.406 70.5696C153.112 70.5696 152.759 70.5108 152.465 70.5108C150.523 77.2687 148.581 83.9679 146.698 90.7845C146.286 92.3124 145.697 94.1341 146.109 95.6032C147.404 100.363 149.11 105.006 150.758 109.942C155.348 108.355 159.761 106.886 164.528 105.299ZM94.5609 56.1135C97.3266 62.8714 104.388 67.6901 110.979 67.455C117.334 67.22 124.278 62.1075 126.278 56.1135C115.745 56.1135 105.271 56.1135 94.5609 56.1135Z" fill="#5243AA"/>
<path d="M122.113 146.5L125 149.387L127.887 146.5L125 143.613L122.113 146.5ZM125 147H149.25V146H125V147ZM149.25 147H173.5V146H149.25V147Z" fill="#FA5762"/>
<path d="M136.113 52L139 54.8868L141.887 52L139 49.1132L136.113 52ZM139 52.5H163.25V51.5H139V52.5ZM163.25 52.5H187.5V51.5H163.25V52.5Z" fill="#FA5762"/>
<path d="M76.3868 66L73.5 63.1132L70.6132 66L73.5 68.8868L76.3868 66ZM25 66.5H49.25V65.5H25V66.5ZM49.25 66.5H73.5V65.5H49.25V66.5Z" fill="#FA5762"/>
</g>
<defs>
<clipPath id="clip0_6325_311">
<rect width="135" height="135" fill="white" transform="translate(43 43)"/>
</clipPath>
</defs>
</svg>
