<svg width="106" height="106" viewBox="0 0 106 106" fill="none" xmlns="http://www.w3.org/2000/svg">
<circle cx="53" cy="53" r="53" fill="white"/>
<path d="M44.8454 60.0332H82.6667C83.0349 60.0332 83.3334 60.3317 83.3334 60.6998V84.3333C83.3334 84.7014 83.0349 84.9999 82.6667 84.9999H44.8454C44.4772 84.9999 44.1787 84.7014 44.1787 84.3333V60.6998C44.1787 60.3317 44.4772 60.0332 44.8454 60.0332ZM82.0001 61.3664H45.5121V83.6667H82.0001V61.3664Z" fill="#2C3556"/>
<path d="M22.8953 32.8879L45.0354 39.5235L44.8453 40.1614L45.0367 39.5229C45.3299 39.6108 45.5177 39.8824 45.5119 40.1741V84.3263C45.5119 84.6945 45.2134 84.9929 44.8453 84.9929H22.6667C22.2985 84.9929 22 84.6944 22 84.3263V33.5143C22 33.1461 22.2985 32.8477 22.6667 32.8477C22.7469 32.8477 22.824 32.8618 22.8952 32.8879L22.8953 32.8879ZM44.1786 40.6565L23.3334 34.409V83.6597H44.1786V40.6566V40.6565Z" fill="#2C3556"/>
<path d="M65.3334 31.6646H76.1369C76.5051 31.6646 76.8036 31.963 76.8036 32.3312L76.8036 32.3356L78.4677 60.6523L77.8036 60.6913L78.4692 60.6522C78.4908 61.0197 78.2103 61.3352 77.8428 61.3568C77.8297 61.3575 77.8166 61.3579 77.8037 61.3579V61.3579H63.6667C63.2985 61.3579 63 61.0595 63 60.6913C63 60.6629 63.0018 60.635 63.0052 60.6076L64.6693 32.2922L64.6679 32.2921C64.6887 31.9377 64.9829 31.6643 65.3334 31.6646V31.6646L65.3334 31.6646ZM75.5097 32.9978H65.9606L64.3722 60.0247H77.098L75.5096 32.9978H75.5097Z" fill="#2C3556"/>
<path d="M64.9597 41.3379C64.5915 41.3379 64.293 41.6364 64.293 42.0045C64.293 42.3726 64.5915 42.6711 64.9597 42.6711H76.5102C76.8784 42.6711 77.1769 42.3726 77.1769 42.0045C77.1769 41.6364 76.8784 41.3379 76.5102 41.3379H64.9597Z" fill="#2C3556"/>
<path d="M64.5261 50.3477C64.1579 50.3477 63.8594 50.6461 63.8594 51.0143C63.8594 51.3824 64.1579 51.6809 64.5261 51.6809H76.9438C77.312 51.6809 77.6105 51.3824 77.6105 51.0143C77.6105 50.6461 77.312 50.3477 76.9438 50.3477H64.5261Z" fill="#2C3556"/>
<path d="M53.4352 71.8506H74.0776C74.4457 71.8506 74.7443 72.1491 74.7443 72.5172V84.334C74.7443 84.7021 74.4457 85.0006 74.0776 85.0006H53.4352C53.0671 85.0006 52.7686 84.7021 52.7686 84.334V72.5172C52.7686 72.1491 53.0671 71.8506 53.4352 71.8506ZM73.411 73.1838H54.102V83.6674H73.411V73.1838Z" fill="#2C3556"/>
<path d="M54.1019 68.3013H73.4108V64.9079H54.1019V68.3013ZM74.0776 69.6345H53.4352C53.0671 69.6345 52.7686 69.3361 52.7686 68.9679V64.2413C52.7686 63.8732 53.0671 63.5747 53.4352 63.5747H74.0776C74.4457 63.5747 74.7443 63.8732 74.7443 64.2413V68.9679C74.7443 69.3361 74.4457 69.6345 74.0776 69.6345Z" fill="#2C3556"/>
<path d="M26.4225 48.2227H41.0891C41.4573 48.2227 41.7558 48.5211 41.7558 48.8893V52.4343C41.7558 52.8024 41.4573 53.1009 41.0891 53.1009H26.4225C26.0544 53.1009 25.7559 52.8024 25.7559 52.4343V48.8893C25.7559 48.5211 26.0544 48.2227 26.4225 48.2227ZM40.4225 49.5559H27.0892V51.7677H40.4225V49.5559Z" fill="#2C3556"/>
<path d="M26.4225 58.2505H41.0891C41.4573 58.2505 41.7558 58.549 41.7558 58.9171V62.4621C41.7558 62.8302 41.4573 63.1287 41.0891 63.1287H26.4225C26.0544 63.1287 25.7559 62.8302 25.7559 62.4621V58.9171C25.7559 58.549 26.0544 58.2505 26.4225 58.2505ZM40.4225 59.5837H27.0892V61.7955H40.4225V59.5837Z" fill="#2C3556"/>
<path d="M26.4225 68.2876H41.0891C41.4573 68.2876 41.7558 68.5861 41.7558 68.9542V72.4992C41.7558 72.8674 41.4573 73.1658 41.0891 73.1658H26.4225C26.0544 73.1658 25.7559 72.8674 25.7559 72.4992V68.9542C25.7559 68.5861 26.0544 68.2876 26.4225 68.2876ZM40.4225 69.6208H27.0892V71.8326H40.4225V69.6208Z" fill="#2C3556"/>
<path d="M71.1334 22.183C71.4196 21.9529 71.465 21.5344 71.2349 21.2483C71.0048 20.9621 70.5862 20.9166 70.3 21.1467C68.4897 22.6038 69.2109 23.9275 69.9698 25.3202C70.4622 26.2238 70.9781 27.1707 70.2063 28.0968C69.9719 28.3786 70.0104 28.7972 70.2923 29.0316C70.5741 29.2659 70.9927 29.2275 71.2271 28.9456C72.5762 27.3269 71.8395 25.975 71.1364 24.6848C70.6501 23.7923 70.1879 22.944 71.1334 22.183Z" fill="#2C3556"/>
<path d="M74.7145 23.3315C75.0006 23.1014 75.0461 22.6828 74.816 22.3967C74.5859 22.1106 74.1673 22.0651 73.8811 22.2952C72.0708 23.7523 72.7919 25.0759 73.5509 26.4686C74.0433 27.3722 74.5592 28.3191 73.7873 29.2452C73.5529 29.5271 73.5914 29.9456 73.8733 30.18C74.1552 30.4144 74.5738 30.3759 74.8082 30.094C76.1573 28.4753 75.4206 27.1234 74.7175 25.8333C74.2311 24.9407 73.769 24.0924 74.7145 23.3315Z" fill="#2C3556"/>
<path d="M67.857 23.3315C68.1432 23.1014 68.1887 22.6828 67.9586 22.3967C67.7284 22.1106 67.3098 22.0651 67.0237 22.2952C65.2134 23.7523 65.9345 25.0759 66.6935 26.4686C67.1859 27.3722 67.7018 28.3191 66.9299 29.2452C66.6955 29.5271 66.734 29.9456 67.0159 30.18C67.2978 30.4144 67.7164 30.3759 67.9508 30.094C69.2999 28.4753 68.5631 27.1234 67.8601 25.8333C67.3737 24.9407 66.9116 24.0924 67.857 23.3315Z" fill="#2C3556"/>
</svg>
