<svg width="207" height="59" viewBox="0 0 207 59" fill="none" xmlns="http://www.w3.org/2000/svg">
<path d="M73.6264 14.8201V18.672H79.2291V22.9629H73.6264V30.8114H69.0317V10.5292H80.3831V14.8225H73.6264V14.8201Z" fill="#FA5762"/>
<path d="M94.0774 27.2558H85.7782L84.5041 30.8133H79.5845L87.2619 10.5288H92.6855L100.391 30.8133H95.3515L94.0774 27.2558ZM92.5961 23.0513L89.9278 15.5556L87.2595 23.0513H92.5961Z" fill="#FA5762"/>
<path d="M100.981 24.7247H105.694C105.694 26.0468 106.82 27.1049 108.273 27.1049C109.667 27.1049 110.703 26.2524 110.703 25.1639C110.703 23.781 109.014 23.0476 107.088 22.5477C104.123 21.8119 101.278 20.0483 101.278 16.1989C101.278 12.7605 104.243 10.1724 108.155 10.1724C112.156 10.1724 115.121 12.8189 115.121 16.346H110.409C110.409 15.1407 109.46 14.2297 108.157 14.2297C106.911 14.2297 105.993 14.9936 105.993 16.0237C105.993 17.3177 107.357 18.0232 109.342 18.5511C112.453 19.3733 115.418 20.8729 115.418 24.8719C115.418 28.4574 112.335 31.1623 108.216 31.1623C104.092 31.1647 100.981 28.4013 100.981 24.7247Z" fill="#FA5762"/>
<path d="M135.688 10.5288V30.8133H131.093V22.757H122.884V30.811H118.289V10.5288H122.884V18.466H131.093V10.5288H135.688Z" fill="#FA5762"/>
<path d="M139.602 17.0349V30.8118H144.196V17.0349H139.602Z" fill="#FA5762"/>
<path d="M165.83 10.5288V30.8133H161.176L152.701 18.4076V30.8133H148.106V10.5288H152.729L161.235 22.9345V10.5288H165.83Z" fill="#FA5762"/>
<path d="M184.948 26.52V30.8133H168.765V27.5502L178.427 14.8198H168.882V10.5288H184.739V13.792L175.076 26.5224H184.948V26.52Z" fill="#FA5762"/>
<path d="M200.685 27.2558H192.386L191.112 30.8133H186.192L193.869 10.5288H199.293L206.999 30.8133H201.959L200.685 27.2558ZM199.203 23.0513L196.535 15.5556L193.867 23.0513H199.203Z" fill="#FA5762"/>
<path d="M77.542 37.5392L73.4671 44.3344L71.3111 37.5392H70.3855L69.2906 45.3278H69.9792L70.9161 38.6567L73.0495 45.3278H73.6026L77.5984 38.6567L76.6728 45.3278H77.3614L78.4563 37.5392H77.542ZM85.1113 39.571L84.9194 40.9481C84.5808 40.0338 83.7568 39.4356 82.6506 39.4356C80.98 39.4356 79.5351 40.7336 79.2981 42.4494C79.0611 44.1651 80.1221 45.4632 81.7927 45.4632C82.8989 45.4632 83.8922 44.865 84.4905 43.9507L84.2986 45.3278H84.9533L85.766 39.571H85.1113ZM82.0072 44.8311C80.6526 44.8311 79.7835 43.8039 79.9754 42.4494C80.156 41.0949 81.3186 40.0677 82.6731 40.0677C84.0277 40.0677 84.8968 41.0949 84.7049 42.4494C84.513 43.8039 83.3504 44.8311 82.0072 44.8311ZM90.4627 39.4356C89.4468 39.4356 88.5776 39.9096 88.0471 40.7111L88.2051 39.571H87.5504L86.7377 45.3278H87.3924L87.8552 42.0882C88.0245 40.8804 88.9501 40.0677 90.1805 40.0677C91.3544 40.0677 92.0204 40.8465 91.851 42.0317L91.3882 45.3278H92.0429L92.5283 41.8398C92.7315 40.3837 91.9075 39.4356 90.4627 39.4356ZM98.9518 39.571L98.4552 43.0589C98.2633 44.12 97.3941 44.8311 96.2653 44.8311C95.1479 44.8311 94.527 44.0861 94.6738 42.9686L95.1591 39.571H94.5045L94.0078 43.1492C93.8046 44.5489 94.5948 45.4632 95.9832 45.4632C96.9539 45.4632 97.7779 45.023 98.2859 44.2554L98.1391 45.3278H98.7938L99.6065 39.571H98.9518ZM104.443 37.7763L104.534 37.1667C103.157 37.1667 102.31 37.7085 102.118 39.0743L102.05 39.571H100.922L100.843 40.1693H101.96L101.238 45.3278H101.892L102.626 40.1693H104.116L104.195 39.571H102.705L102.773 39.1082C102.897 38.1375 103.518 37.7763 104.443 37.7763ZM110.145 39.571L109.953 40.9481C109.614 40.0338 108.79 39.4356 107.684 39.4356C106.014 39.4356 104.569 40.7336 104.332 42.4494C104.095 44.1651 105.156 45.4632 106.826 45.4632C107.933 45.4632 108.926 44.865 109.524 43.9507L109.332 45.3278H109.987L110.8 39.571H110.145ZM107.041 44.8311C105.686 44.8311 104.817 43.8039 105.009 42.4494C105.19 41.0949 106.352 40.0677 107.707 40.0677C109.061 40.0677 109.93 41.0949 109.739 42.4494C109.547 43.8039 108.384 44.8311 107.041 44.8311ZM114.424 45.4632C115.948 45.4632 117.302 44.4473 117.754 43.0363H117.077C116.67 44.0861 115.654 44.8311 114.514 44.8311C113.16 44.8311 112.291 43.8039 112.482 42.4494C112.674 41.0949 113.837 40.0677 115.192 40.0677C116.332 40.0677 117.122 40.8127 117.235 41.8624H117.912C117.855 40.4515 116.806 39.4356 115.282 39.4356C113.544 39.4356 112.042 40.7336 111.805 42.4494C111.568 44.1651 112.686 45.4632 114.424 45.4632ZM122.144 39.571H120.733L120.97 37.8778L120.304 38.002L120.078 39.571H118.735L118.656 40.1693H119.999L119.265 45.3278H119.92L120.642 40.1693H122.065L122.144 39.571ZM127.8 39.571L127.303 43.0589C127.111 44.12 126.242 44.8311 125.113 44.8311C123.996 44.8311 123.375 44.0861 123.521 42.9686L124.007 39.571H123.352L122.855 43.1492C122.652 44.5489 123.442 45.4632 124.831 45.4632C125.802 45.4632 126.626 45.023 127.134 44.2554L126.987 45.3278H127.641L128.454 39.571H127.8ZM130.718 40.8127L130.887 39.571H130.232L129.419 45.3278H130.074L130.492 42.3365H130.503C130.684 41.0158 131.587 40.158 132.84 40.158L132.93 39.4807C132.016 39.4807 131.226 39.9774 130.718 40.8127ZM134.709 38.2165C134.968 38.2165 135.217 38.0133 135.251 37.7424C135.284 37.4828 135.115 37.2796 134.844 37.2796C134.573 37.2796 134.336 37.4828 134.302 37.7424C134.269 38.0133 134.438 38.2165 134.709 38.2165ZM133.377 45.3278H134.031L134.844 39.571H134.19L133.377 45.3278ZM139.549 39.4356C138.533 39.4356 137.664 39.9096 137.133 40.7111L137.291 39.571H136.637L135.824 45.3278H136.479L136.941 42.0882C137.111 40.8804 138.036 40.0677 139.267 40.0677C140.441 40.0677 141.107 40.8465 140.937 42.0317L140.475 45.3278H141.129L141.615 41.8398C141.818 40.3837 140.994 39.4356 139.549 39.4356ZM148.715 39.571L148.523 40.9368C148.185 40.0225 147.361 39.4356 146.255 39.4356C144.584 39.4356 143.139 40.7224 142.913 42.4155C142.676 44.1087 143.737 45.3955 145.408 45.3955C146.514 45.3955 147.508 44.8085 148.106 43.8942L147.993 44.6956C147.801 46.084 146.774 46.9983 145.397 46.9983C144.291 46.9983 143.557 46.4001 143.433 45.4632H142.755C142.891 46.7839 143.828 47.6079 145.318 47.6079C147.079 47.6079 148.399 46.4565 148.648 44.7069L149.37 39.571H148.715ZM145.611 44.7972C144.257 44.7972 143.399 43.77 143.591 42.4155C143.771 41.061 144.934 40.0338 146.288 40.0338C147.587 40.0338 148.433 40.982 148.332 42.2575L148.286 42.5961C148.027 43.8604 146.909 44.7972 145.611 44.7972ZM155.306 45.4632C156.694 45.4632 157.868 44.5376 158.037 43.3185C158.218 42.0769 157.428 41.3883 156.096 41.0497C154.99 40.7675 154.47 40.237 154.583 39.4356C154.696 38.6341 155.464 38.0359 156.355 38.0359C157.258 38.0359 157.845 38.7019 157.721 39.5823H158.432C158.613 38.3406 157.755 37.4038 156.446 37.4038C155.136 37.4038 154.019 38.2955 153.861 39.4581C153.703 40.6433 154.425 41.3658 155.689 41.6705C156.841 41.964 157.439 42.5058 157.315 43.3524C157.202 44.199 156.378 44.8311 155.419 44.8311C154.437 44.8311 153.782 44.12 153.906 43.1944H153.195C153.026 44.4812 153.929 45.4632 155.306 45.4632ZM160.514 38.2165C160.774 38.2165 161.022 38.0133 161.056 37.7424C161.09 37.4828 160.92 37.2796 160.649 37.2796C160.379 37.2796 160.142 37.4828 160.108 37.7424C160.074 38.0133 160.243 38.2165 160.514 38.2165ZM159.182 45.3278H159.837L160.649 39.571H159.995L159.182 45.3278ZM169.316 39.4356C168.3 39.4356 167.465 39.9209 166.98 40.7562C166.799 39.9322 166.122 39.4356 165.128 39.4356C164.214 39.4356 163.458 39.8419 162.961 40.553L163.097 39.571H162.442L161.629 45.3278H162.284L162.781 41.8286C162.927 40.7675 163.763 40.0677 164.846 40.0677C165.885 40.0677 166.46 40.7562 166.325 41.806L165.828 45.3278H166.483L166.991 41.6705C167.205 40.6998 168.007 40.0677 169.034 40.0677C170.084 40.0677 170.659 40.7562 170.513 41.806L170.016 45.3278H170.671L171.19 41.6254C171.382 40.3047 170.637 39.4356 169.316 39.4356ZM176.361 39.4356C175.244 39.4356 174.25 40.0338 173.663 40.9594L173.855 39.571H173.201L172.083 47.4724H172.738L173.234 43.9281C173.573 44.865 174.386 45.4632 175.503 45.4632C177.185 45.4632 178.63 44.1651 178.867 42.4494C179.104 40.7336 178.043 39.4356 176.361 39.4356ZM178.19 42.4494C177.998 43.8039 176.835 44.8311 175.481 44.8311C174.126 44.8311 173.268 43.8039 173.449 42.4494C173.641 41.0949 174.803 40.0677 176.158 40.0677C177.513 40.0677 178.37 41.0949 178.19 42.4494ZM179.873 45.3278H180.527L181.667 37.2006H181.013L179.873 45.3278ZM183.652 38.2165C183.911 38.2165 184.16 38.0133 184.194 37.7424C184.227 37.4828 184.058 37.2796 183.787 37.2796C183.516 37.2796 183.279 37.4828 183.245 37.7424C183.211 38.0133 183.381 38.2165 183.652 38.2165ZM182.32 45.3278H182.974L183.787 39.571H183.132L182.32 45.3278ZM190.23 39.571H186.9L186.968 39.1082C187.092 38.1375 187.702 37.7763 188.616 37.7763L188.695 37.1667C187.341 37.1667 186.505 37.7085 186.313 39.0743L186.246 39.571H185.117L185.038 40.1693H186.155L185.433 45.3278H186.088L186.821 40.1693H189.496L188.763 45.3278H189.417L190.23 39.571ZM190.219 37.2796C189.948 37.2796 189.711 37.4828 189.677 37.7424C189.643 38.0133 189.813 38.2165 190.083 38.2165C190.354 38.2165 190.591 38.0133 190.625 37.7424C190.659 37.4828 190.49 37.2796 190.219 37.2796ZM194.704 39.4356C192.977 39.4356 191.475 40.7336 191.238 42.4494C191.001 44.1651 192.119 45.4632 193.846 45.4632C195.245 45.4632 196.476 44.6505 197.052 43.454H196.34C195.889 44.2893 194.963 44.8537 193.936 44.8537C192.672 44.8537 191.837 43.9732 191.893 42.7203H197.266C197.289 42.6413 197.311 42.5284 197.322 42.4494C197.559 40.7336 196.442 39.4356 194.704 39.4356ZM194.625 40.0451C195.866 40.0451 196.713 40.9143 196.679 42.1333H191.972C192.288 40.9143 193.372 40.0451 194.625 40.0451ZM204.478 37.2006L203.959 40.9368C203.609 40.0225 202.796 39.4356 201.69 39.4356C200.019 39.4356 198.575 40.7336 198.338 42.4494C198.1 44.1651 199.162 45.4632 200.832 45.4632C201.938 45.4632 202.932 44.8762 203.53 43.9619L203.338 45.3278H203.993L205.133 37.2006H204.478ZM201.047 44.8311C199.692 44.8311 198.823 43.8039 199.015 42.4494C199.195 41.0949 200.358 40.0677 201.713 40.0677C203.022 40.0677 203.88 41.0384 203.756 42.3252L203.722 42.5623C203.485 43.8604 202.356 44.8311 201.047 44.8311Z" fill="#2C3455"/>
<path d="M144.175 10.9801H141.612C140.501 10.9801 139.601 11.8724 139.601 12.9749V15.5163H142.163C143.275 15.5163 144.175 14.624 144.175 13.5215V10.9801Z" fill="#FA5762"/>
<path d="M23.9727 1.47177C19.5617 2.58363 15.4121 4.71159 11.9478 7.64075C4.68255 13.7864 0.686044 23.5853 1.75994 32.9941C2.83384 42.4029 9.00876 51.1226 17.6376 55.1753C22.8988 57.6466 28.9583 58.4128 34.6764 57.3313C40.3944 56.2498 45.7427 53.3206 49.7156 49.1021C53.5944 43.4493 57.4849 37.4766 58.3893 30.6979C59.4914 22.4384 55.7422 13.8891 49.4024 8.42559C43.0627 2.96204 34.4079 0.479032 26.0192 0.90182C22.9341 1.05832 19.8278 1.59557 17.0371 2.91299C13.6082 4.5294 10.8104 7.24833 8.52598 10.2569C4.93689 14.987 2.45703 20.6211 1.92244 26.5191C1.38785 32.4171 2.89272 38.5604 6.51477 43.2648C11.5475 49.8029 18.4807 55.7406 26.7422 56.4483C35.0037 57.1561 43.4324 53.6103 48.9856 47.502C54.5388 41.3938 57.2141 32.9147 56.5947 24.7135C56.4016 22.144 55.8929 19.5699 54.779 17.2411C53.7757 15.1412 52.3062 13.2912 50.6741 11.6257C45.0197 5.85382 37.1468 2.17252 29.036 1.92259C20.9253 1.67265 12.692 4.9662 7.32019 10.995C1.94835 17.0239 -0.333689 25.7413 1.78349 33.5103" stroke="#FFC433" stroke-width="0.592493" stroke-miterlimit="10" stroke-linecap="round"/>
<path d="M46.4285 39.9584C46.1977 39.9584 46.014 40.1406 46.014 40.3695C46.014 40.5984 46.1977 40.7806 46.4285 40.7806C46.6593 40.7806 46.8453 40.5984 46.8453 40.3695C46.8453 40.1406 46.6593 39.9584 46.4285 39.9584ZM46.3696 18.6204C46.6334 18.6204 46.8453 18.4079 46.8453 18.1486C46.8453 17.887 46.631 17.6791 46.3696 17.6791C46.1059 17.6791 45.8939 17.887 45.8939 18.1486C45.8939 18.4079 46.1059 18.6204 46.3696 18.6204ZM43.3293 15.4904C43.6166 15.4904 43.8497 15.2591 43.8497 14.9742C43.8497 14.6892 43.6166 14.4579 43.3293 14.4579C43.0419 14.4579 42.8088 14.6892 42.8088 14.9742C42.8112 15.2591 43.0443 15.4904 43.3293 15.4904ZM43.2304 42.2639C42.87 42.2639 42.578 42.5512 42.578 42.9063C42.578 43.2636 42.87 43.5533 43.2304 43.5533C43.5907 43.5533 43.878 43.2636 43.878 42.9063C43.878 42.5512 43.5907 42.2639 43.2304 42.2639ZM16.7833 42.3924C16.4959 42.3924 16.2628 42.6236 16.2628 42.9086C16.2628 43.1959 16.4959 43.4248 16.7833 43.4248C17.0729 43.4248 17.3037 43.1959 17.3037 42.9086C17.3037 42.6236 17.0729 42.3924 16.7833 42.3924ZM16.8845 14.3295C16.5242 14.3295 16.2322 14.6191 16.2322 14.9765C16.2322 15.3339 16.5242 15.6189 16.8845 15.6189C17.2448 15.6189 17.5322 15.3315 17.5322 14.9765C17.5345 14.6191 17.2448 14.3295 16.8845 14.3295ZM13.7452 39.2647C13.4815 39.2647 13.2695 39.4772 13.2695 39.7365C13.2695 39.9981 13.4838 40.2084 13.7452 40.2084C14.0043 40.2084 14.2186 39.9958 14.2186 39.7365C14.2186 39.4749 14.0067 39.2647 13.7452 39.2647ZM13.684 17.9267C13.9148 17.9267 14.1009 17.7421 14.1009 17.5132C14.1009 17.2867 13.9148 17.1021 13.684 17.1021C13.4556 17.1021 13.2695 17.2867 13.2695 17.5132C13.2695 17.7421 13.4579 17.9267 13.684 17.9267Z" fill="#FF606B"/>
<path d="M57.0299 28.2268C56.9899 27.9862 57.0181 27.7292 57.0323 27.477C57.0676 26.8533 57.0064 26.2413 56.7921 25.6947C56.7544 25.3373 56.7049 24.98 56.6484 24.6249C56.3093 22.4666 55.7276 20.3433 54.9292 18.3088C53.5327 14.7443 51.4697 11.432 48.865 8.60797C48.4788 8.18752 48.0643 7.65261 47.6027 7.17376C47.3436 6.64586 46.9009 6.23241 46.2839 5.98014C45.1063 5.51063 43.9265 5.04113 42.8196 4.46184C41.5267 3.78911 40.1042 3.53684 38.6206 3.43173C37.2311 3.32428 35.8298 3.28223 34.4451 3.1631C33.7668 3.10471 33.0839 3.14909 32.4103 3.12807C31.4353 3.09536 30.4627 3.09303 29.4924 2.98558C27.7238 2.78236 25.9175 3.03463 24.1135 3.43406C23.2633 3.62327 22.4202 3.90824 21.5489 3.93627C21.4664 3.93861 21.3793 3.96196 21.2945 3.98766C18.2754 4.91733 15.381 6.09226 13.0307 8.45848C11.3492 10.152 9.64649 11.8338 8.15811 13.6931C6.65795 15.5665 5.52046 17.6197 4.68913 19.806C4.04856 21.4879 3.58462 23.207 3.32321 24.9379C2.97937 27.2177 2.83807 29.4881 3.22901 31.7025C3.47629 33.1227 3.65291 34.5639 3.94729 35.9678C4.27464 37.5281 4.75978 39.0324 5.27554 40.5274C5.68767 41.721 6.25759 42.8212 6.87932 43.8957C7.67061 45.2645 8.5985 46.5001 10.0351 47.2756C10.0468 47.4812 10.1222 47.6424 10.3177 47.7265C10.3224 47.8036 10.353 47.876 10.4001 47.939C10.4142 48.1469 10.4872 48.3151 10.6898 48.4062C10.7369 48.5534 10.784 48.7005 10.8334 48.8453C10.9159 48.9154 10.9936 48.9925 11.0642 49.0719C11.076 49.1443 11.1043 49.2144 11.149 49.2681C11.1843 49.3966 11.2597 49.469 11.401 49.4714L11.3986 49.4854C11.8697 50.4431 12.7457 51.027 13.537 51.6811C13.8997 51.9801 14.3636 52.1669 14.7781 52.4052C14.9288 52.5967 15.1384 52.7158 15.3881 52.7556C15.6848 53.141 16.2029 53.1783 16.6009 53.4026C16.8035 53.6549 17.1261 53.6595 17.4205 53.7203C17.5265 53.767 17.623 53.83 17.7243 53.8814H17.7266C17.7879 53.9912 17.8774 54.0473 18.0163 54.0309C18.094 54.0333 18.1741 54.0286 18.2495 54.0169C18.3672 54.052 18.4661 54.1103 18.5674 54.1664H18.5697C18.6592 54.2271 18.7558 54.2785 18.8594 54.3206C18.9348 54.3252 19.0148 54.3206 19.0879 54.3066C19.208 54.3346 19.3092 54.393 19.4128 54.4537H19.4152C19.5094 54.5168 19.6083 54.5705 19.7072 54.6196L19.7214 54.6219C19.7779 54.7317 19.865 54.7901 19.9993 54.7691C20.0817 54.7714 20.1665 54.7644 20.2442 54.7527C20.3454 54.8018 20.4491 54.8508 20.5503 54.8975C20.7317 54.9419 20.913 54.9863 21.0943 55.0307C21.1933 55.0867 21.2922 55.1381 21.3981 55.1848C21.5724 55.2316 21.7538 55.2783 21.9327 55.325C22.0387 55.3717 22.1376 55.4254 22.246 55.4675L22.2577 55.4722C22.3896 55.6497 22.578 55.6543 22.7923 55.603C22.8865 55.659 22.9831 55.7034 23.0867 55.7454C23.1644 55.7478 23.2445 55.7408 23.3222 55.7291C23.4282 55.7688 23.5365 55.8132 23.6354 55.8646C23.7108 55.8669 23.7909 55.8646 23.8686 55.8599C24.389 56.3084 25.1003 56.3177 25.7526 56.3878C27.6367 56.5887 29.5136 56.8363 31.4518 56.7148C32.4292 56.6541 33.4206 56.4882 34.4003 56.3785C35.7545 56.229 37.0286 55.7735 38.2979 55.2783C39.9041 54.6546 41.4984 53.9749 42.8573 52.8116C42.9421 52.7859 43.0198 52.7532 43.0975 52.7135C43.3142 52.6691 43.4837 52.5687 43.5591 52.3515L43.5614 52.3468C43.7122 52.272 43.8888 52.2253 44.0254 52.1179C44.7766 51.5222 45.5255 50.9196 46.2603 50.2959C46.4205 50.1651 46.5123 49.9502 46.6371 49.775C47.3295 49.4106 47.7605 48.7496 48.3186 48.2333C49.621 47.0351 50.5465 45.5611 51.4555 44.0825C51.5921 43.856 51.7122 43.6224 51.7311 43.3561C51.7452 43.0898 51.8677 42.8399 52.0725 42.66C52.4965 42.2839 52.7084 41.7934 52.9368 41.3286C53.243 40.6885 53.6198 40.0836 54.0319 39.5019C54.2415 39.21 54.3923 38.8969 54.5171 38.5629C54.7385 37.993 54.9504 37.4114 55.2471 36.8741C56.1468 35.26 56.3681 33.5105 56.9286 31.831C56.9428 31.7866 56.964 31.7376 56.9546 31.7072C56.5966 30.586 57.216 29.3667 57.0299 28.2268ZM13.6854 17.1035C13.9162 17.1035 14.1022 17.288 14.1022 17.5146C14.1022 17.7435 13.9162 17.928 13.6854 17.928C13.4569 17.928 13.2709 17.7435 13.2709 17.5146C13.2709 17.288 13.4593 17.1035 13.6854 17.1035ZM13.7466 40.2097C13.4829 40.2097 13.2709 39.9971 13.2709 39.7379C13.2709 39.4762 13.4852 39.266 13.7466 39.266C14.0057 39.266 14.22 39.4786 14.22 39.7379C14.22 39.9971 14.008 40.2097 13.7466 40.2097ZM16.7846 43.4238C16.4973 43.4238 16.2642 43.1949 16.2642 42.9076C16.2642 42.6226 16.4973 42.3914 16.7846 42.3914C17.0743 42.3914 17.3051 42.6226 17.3051 42.9076C17.3051 43.1949 17.0743 43.4238 16.7846 43.4238ZM16.8859 15.6202C16.5256 15.6202 16.2335 15.3329 16.2335 14.9778C16.2335 14.6205 16.5256 14.3308 16.8859 14.3308C17.2462 14.3308 17.5335 14.6205 17.5335 14.9778C17.5359 15.3329 17.2462 15.6202 16.8859 15.6202ZM47.6239 29.8549C47.671 29.8572 47.7134 29.8642 47.7675 29.8572C47.7581 29.8619 47.7581 29.8689 47.7534 29.8736C47.7204 29.8876 47.6686 29.8829 47.6404 29.8642C47.6333 29.8642 47.6286 29.8572 47.6239 29.8549ZM49.0675 31.4082C49.1028 31.6511 49.1641 31.7819 49.2842 31.838C49.2489 31.8333 49.2112 31.8217 49.1782 31.7913C49.0581 31.6909 49.0275 31.5554 49.0675 31.4082ZM46.371 18.6218C46.1072 18.6218 45.8953 18.4092 45.8953 18.1499C45.8953 17.8883 46.1096 17.6804 46.371 17.6804C46.6348 17.6804 46.8467 17.8883 46.8467 18.1499C46.8467 18.4092 46.6348 18.6218 46.371 18.6218ZM40.8461 15.5688C40.8484 15.5688 40.8508 15.5665 40.8555 15.5665C40.8508 15.5805 40.8437 15.5922 40.8343 15.6062C40.8319 15.6015 40.8296 15.5922 40.8249 15.5852C40.8319 15.5758 40.8414 15.5711 40.8461 15.5688ZM43.3306 15.4917C43.0433 15.4917 42.8102 15.2605 42.8102 14.9755C42.8102 14.6905 43.0433 14.4593 43.3306 14.4593C43.618 14.4593 43.8511 14.6905 43.8511 14.9755C43.8511 15.2605 43.618 15.4917 43.3306 15.4917ZM41.7904 49.4924C41.7645 49.3592 41.781 49.2354 41.8988 49.1654C41.8587 49.2751 41.8234 49.3826 41.7904 49.4924ZM43.2317 43.5546C42.8714 43.5546 42.5794 43.265 42.5794 42.9076C42.5794 42.5502 42.8714 42.2652 43.2317 42.2652C43.592 42.2652 43.8794 42.5526 43.8794 42.9076C43.8794 43.265 43.592 43.5546 43.2317 43.5546ZM46.4299 40.782C46.1991 40.782 46.0154 40.5998 46.0154 40.3709C46.0154 40.142 46.1991 39.9598 46.4299 39.9598C46.6607 39.9598 46.8467 40.142 46.8467 40.3709C46.8467 40.5998 46.6607 40.782 46.4299 40.782Z" fill="#D800A2"/>
<path d="M43.8495 14.9764C43.8495 15.2618 43.6164 15.4934 43.3291 15.4934C43.0417 15.4934 42.8086 15.2618 42.8086 14.9764C42.8086 14.6909 43.0417 14.4594 43.3291 14.4594C43.6164 14.4594 43.8495 14.6909 43.8495 14.9764Z" fill="#FF606B"/>
<path d="M46.8459 18.1453C46.8459 18.4073 46.6316 18.6178 46.3702 18.6178C46.1065 18.6178 45.8945 18.4049 45.8945 18.1453C45.8945 17.8833 46.1088 17.675 46.3702 17.675C46.634 17.6774 46.8459 17.8856 46.8459 18.1453Z" fill="#FF606B"/>
<path d="M17.5349 14.9745C17.5349 15.3319 17.2452 15.6169 16.8872 15.6169C16.5269 15.6169 16.2349 15.3296 16.2349 14.9745C16.2349 14.6172 16.5269 14.3275 16.8872 14.3275C17.2452 14.3275 17.5349 14.6172 17.5349 14.9745Z" fill="#FF606B"/>
<path d="M14.1028 17.5117C14.1028 17.741 13.9167 17.9258 13.686 17.9258C13.4575 17.9258 13.2715 17.741 13.2715 17.5117C13.2715 17.2848 13.4575 17.1 13.686 17.1C13.9144 17.1 14.1028 17.2848 14.1028 17.5117Z" fill="#FF606B"/>
<path d="M17.3032 42.9086C17.3032 43.1964 17.0724 43.4256 16.7827 43.4256C16.4954 43.4256 16.2622 43.1964 16.2622 42.9086C16.2622 42.6232 16.4954 42.3916 16.7827 42.3916C17.0724 42.3916 17.3032 42.6232 17.3032 42.9086Z" fill="#FF606B"/>
<path d="M14.2186 39.7359C14.2186 39.9979 14.0043 40.2084 13.7452 40.2084C13.4815 40.2084 13.2695 39.9955 13.2695 39.7359C13.2695 39.4739 13.4838 39.2633 13.7452 39.2633C14.0066 39.2633 14.2186 39.4739 14.2186 39.7359Z" fill="#FF606B"/>
<path d="M43.8806 42.9082C43.8806 43.2656 43.5909 43.5553 43.2329 43.5553C42.8726 43.5553 42.5806 43.2656 42.5806 42.9082C42.5806 42.5509 42.8726 42.2659 43.2329 42.2659C43.5932 42.2635 43.8806 42.5509 43.8806 42.9082Z" fill="#FF606B"/>
<path d="M46.8459 40.3688C46.8459 40.598 46.6599 40.7805 46.4291 40.7805C46.1983 40.7805 46.0146 40.598 46.0146 40.3688C46.0146 40.1395 46.1983 39.957 46.4291 39.957C46.6599 39.957 46.8459 40.1395 46.8459 40.3688Z" fill="#FF606B"/>
<path d="M56.0144 23.1071C55.5764 23.2987 55.1289 23.4645 54.6791 23.6023C50.1409 25.0132 45.226 24.7329 40.6266 25.9288C39.4679 26.2302 38.3469 26.6249 37.2447 27.0758C33.2647 28.7155 29.5979 31.1588 25.7121 33.0789C19.0897 36.3514 11.6101 38.136 4.17291 38.1944C3.93741 37.4096 3.7231 36.6154 3.55354 35.8072C3.25916 34.4033 3.08253 32.9598 2.83525 31.5419C2.6021 30.2175 2.55736 28.8744 2.63272 27.5219C2.68217 26.6086 2.7905 25.6953 2.9271 24.7773C3.02601 24.1232 3.15554 23.4692 3.31332 22.8198C5.52 22.7731 7.80438 23.2169 10.0393 23.1445C10.1641 23.1422 10.2866 23.1398 10.4138 23.1305H10.4303C10.6987 23.1165 10.9648 23.0908 11.231 23.0558C17.1068 22.2849 21.0845 16.9919 25.5779 13.1634C30.9167 8.61552 37.7628 5.89192 44.7714 5.36401C45.1412 5.51818 45.518 5.66534 45.8924 5.81483C46.5118 6.0671 46.9522 6.48055 47.2113 7.00845C47.6729 7.4873 48.085 8.01988 48.4689 8.44033L48.4712 8.44267C51.0806 11.2667 53.1436 14.5766 54.5401 18.1435C54.8039 18.8092 55.0394 19.4842 55.249 20.164C55.5552 21.131 55.8095 22.1121 56.0144 23.1071Z" fill="#FF6D00"/>
<path d="M48.4715 8.44021C47.3081 9.66186 45.815 10.6523 44.263 11.2899C41.9527 12.243 39.4776 12.6821 37.0166 13.1796C35.9427 13.3969 34.8688 13.6258 33.8161 13.9131C33.477 14.0065 33.1425 14.1046 32.8105 14.2121C26.539 16.2116 21.4945 20.7712 15.8471 24.1254C14.4694 24.9407 12.6584 25.6811 10.6613 26.2604C10.4988 26.3071 10.341 26.3538 10.1762 26.3959C7.74107 27.0639 5.07516 27.4867 2.6377 27.5194C2.68715 26.6084 2.79784 25.6928 2.93443 24.7725C3.03334 24.1184 3.16051 23.4644 3.32066 22.815C3.575 21.7452 3.90471 20.6847 4.30271 19.6406C5.13639 17.4543 6.27152 15.401 7.77168 13.5277C9.26007 11.666 10.9628 9.98888 12.6443 8.29305C14.9946 5.92684 17.8889 4.7519 20.9081 3.82224C20.9929 3.79654 21.08 3.77318 21.1624 3.77085C22.0315 3.74282 22.8769 3.45784 23.7271 3.27098C25.531 2.87154 27.335 2.61694 29.106 2.82249C30.0786 2.92761 31.0489 2.92994 32.0239 2.96264C32.6998 2.98133 33.3828 2.94162 34.0586 2.99768C34.1105 3.00235 34.1623 3.00702 34.2141 3.00936C35.328 3.10046 36.4514 3.14718 37.5724 3.21959C37.7937 3.2336 38.0151 3.24995 38.2365 3.2663C39.7202 3.37375 41.1426 3.62602 42.4332 4.29875C43.1868 4.69351 43.9757 5.03688 44.7764 5.3639C45.1462 5.51573 45.523 5.66522 45.8974 5.81705C46.5168 6.06932 46.9572 6.48277 47.2163 7.01067C47.6755 7.48718 48.0853 8.01976 48.4715 8.44021Z" fill="#FFA100"/>
<path d="M56.4759 31.1695C56.2003 31.2068 55.9295 31.2395 55.6587 31.2652C52.7055 31.5666 49.6557 31.5689 46.9003 32.6691C40.7913 35.1054 38.0076 41.9658 33.526 46.7519C29.9487 50.571 25.1303 53.1358 20.0504 54.4696C19.8691 54.5163 19.6878 54.563 19.5064 54.6051C19.424 54.5934 19.3698 54.542 19.3274 54.4602L19.3133 54.4579C19.2144 54.4088 19.1155 54.3575 19.0213 54.2921H19.0189C18.9177 54.2313 18.814 54.1729 18.6939 54.1449C18.6209 54.1589 18.5432 54.1659 18.4655 54.1589C18.3642 54.1192 18.2677 54.0655 18.1758 54.0047H18.1735C18.0722 53.9463 17.9709 53.888 17.8555 53.8553C17.7802 53.8669 17.7001 53.8716 17.6224 53.8693C17.4858 53.8833 17.3939 53.8296 17.3327 53.7198H17.3304C17.2291 53.6684 17.1325 53.603 17.0266 53.5586C16.7322 53.4979 16.4072 53.4909 16.207 53.2409C15.809 53.019 15.2933 52.9793 14.9942 52.5939C14.7422 52.5542 14.5349 52.435 14.3842 52.2435C13.9697 52.0053 13.5058 51.8184 13.1431 51.5194C12.3518 50.8654 11.4757 50.2837 11.0047 49.3237L11.0071 49.3097C10.8658 49.3073 10.7904 49.2349 10.7551 49.1065C10.7103 49.0504 10.6821 48.9827 10.6703 48.9103C10.5996 48.8332 10.5219 48.7538 10.4395 48.6837C10.3901 48.5389 10.343 48.3917 10.2958 48.2445C10.0933 48.1558 10.0203 47.9876 10.0062 47.7774C9.95908 47.7166 9.93082 47.6442 9.92375 47.5648C9.72828 47.4807 9.65292 47.3195 9.64115 47.114C8.20457 46.3385 7.27668 45.1028 6.48539 43.734C6.02616 42.9398 5.59518 42.1316 5.23486 41.2837C11.869 41.1669 18.4749 39.3987 24.2542 36.1565C28.8583 33.5754 32.9278 30.1043 37.2422 27.0747C39.6538 25.3766 42.1454 23.8186 44.849 22.6319C48.1696 21.179 51.6763 20.3778 55.2442 20.1653C55.5503 21.1323 55.8047 22.1134 56.0096 23.1085C56.1038 23.5569 56.1838 24.0101 56.2545 24.4609C56.311 24.8136 56.3605 25.1733 56.3982 25.5307C56.6125 26.075 56.6737 26.6893 56.6384 27.313C56.6242 27.5653 56.5936 27.8222 56.636 28.0628C56.8056 29.0742 56.3322 30.151 56.4759 31.1695Z" fill="#FF274F"/>
<path d="M42.3009 13.8047C39.6515 13.8047 37.4072 15.2203 35.4077 18.1331C34.4657 17.5818 33.0574 16.7176 31.8822 16.1383C31.9152 15.8276 31.9293 15.7388 31.927 15.2179C31.4465 4.33054 20.9996 -1.20777 12.4531 8.36922L12.5002 8.4136C13.4116 7.73854 15.5217 6.37207 18.5291 6.13381C19.5677 6.05206 21.8733 5.90023 24.3225 7.20597C27.0238 8.64485 28.1919 10.9457 28.564 11.7048C29.2352 13.0736 29.473 14.3256 29.5649 15.1665C26.5269 14.613 23.609 15.4585 22.0334 17.4907C21.7791 17.8201 20.1447 19.9527 20.936 22.2091C21.294 23.2322 22.0735 24.0428 23.0532 24.5356C24.1954 25.1126 25.6131 25.2574 26.9649 24.8136C28.7806 24.2156 30.4786 22.5525 31.2157 19.4295C31.781 19.7238 33.2034 20.5273 33.8981 20.8824C32.3415 24.3675 30.7754 28.3945 29.2469 32.0454C28.3332 31.8071 27.4618 31.6553 26.6281 31.5759C17.1585 30.6929 12.983 39.5925 15.3357 44.6683C17.0148 47.4083 19.2003 48.4734 21.3764 48.4337C25.128 48.366 28.8489 45.0187 29.9016 41.3234C32.0659 34.3789 34.9296 29.191 37.612 22.4614C47.555 24.3885 49.2554 14.2999 42.3009 13.8047ZM29.1598 18.5605C29.0656 18.8081 28.9384 19.0954 28.8136 19.3617C28.8042 19.3828 28.7948 19.4014 28.7853 19.4225C28.6323 19.7518 28.4509 20.0648 28.2437 20.3638C28.2319 20.3825 28.2201 20.4012 28.2084 20.4175C27.9846 20.7282 27.7303 21.0202 27.4477 21.2818C23.5454 24.872 22.415 16.7292 29.1598 18.5605ZM25.9876 40.0177C24.0517 44.1778 22.4597 45.7148 21.3387 45.7148C18.0887 45.7148 18.7953 32.7859 26.4633 33.5333C27.1086 33.5987 27.808 33.7599 28.5569 34.0332C27.7421 35.9299 26.6423 38.5601 25.9876 40.0177ZM39.814 19.7098C39.5691 19.7098 39.3242 19.6701 39.0792 19.628C43.144 13.1227 46.4364 19.4832 39.814 19.7098Z" fill="white"/>
<path d="M38.7385 31.5881C38.6984 31.5881 38.6984 31.5881 38.6984 31.6278C38.1685 31.9922 35.6957 32.5388 33.2913 32.4571L32.3257 34.6715C32.5706 34.7112 35.3519 36.2809 38.6961 35.51C40.4529 33.1672 38.7385 31.5881 38.7385 31.5881Z" fill="white"/>
</svg>
