<svg width="106" height="106" viewBox="0 0 106 106" fill="none" xmlns="http://www.w3.org/2000/svg">
<circle cx="53" cy="53" r="53" fill="white"/>
<path d="M53 21C44.3133 21 37.2461 28.0672 37.2461 36.7539C37.2461 45.441 44.3133 52.5082 53 52.5082C61.6867 52.5082 68.7539 45.441 68.7539 36.7539C68.7539 28.0672 61.6867 21 53 21ZM44.3548 47.936C44.422 44.1672 46.8649 40.9162 50.4836 39.8176C50.7914 39.7238 51.0141 39.4539 51.0469 39.1332C51.0797 38.8125 50.9164 38.5035 50.6336 38.3492C48.9086 37.4105 47.8367 35.6086 47.8367 33.6473C47.8367 30.6969 50.2367 28.2969 53.1875 28.2969C56.1375 28.2969 58.5375 30.6969 58.5375 33.6473C58.5375 35.6672 57.4148 37.4937 55.6078 38.4137C55.3203 38.5602 55.1492 38.8652 55.1734 39.1871C55.1977 39.509 55.4133 39.7844 55.7195 39.8859C59.2175 41.0442 61.5787 44.2673 61.6453 47.936C59.251 49.7916 56.2566 50.9082 53 50.9082C49.7434 50.9082 46.7491 49.7915 44.3548 47.936ZM63.1422 46.6054C62.6627 43.3193 60.6178 40.4711 57.6586 38.9656C59.2156 37.6629 60.1375 35.7348 60.1375 33.6473C60.1375 29.8148 57.0195 26.6969 53.1875 26.6969C49.3547 26.6969 46.2367 29.8148 46.2367 33.6473C46.2367 35.6594 47.1047 37.5418 48.5727 38.8449C45.4793 40.3134 43.3434 43.21 42.8551 46.6025C40.3788 44.0522 38.8461 40.5809 38.8461 36.7539C38.8461 28.9496 45.1953 22.6 53 22.6C60.8047 22.6 67.1539 28.9496 67.1539 36.7539C67.1539 40.5823 65.6201 44.0549 63.1422 46.6054Z" fill="#2C3556"/>
<path d="M80.6522 21.4006C80.4303 21.0174 79.9397 20.8862 79.5592 21.1077L72.1694 25.3745C71.7866 25.5955 71.6553 26.085 71.8764 26.4674C72.0249 26.7241 72.2936 26.8674 72.5702 26.8674C72.7061 26.8674 72.8436 26.833 72.9694 26.7604L80.3593 22.4936C80.7421 22.2725 80.8733 21.783 80.6522 21.4006Z" fill="#2C3556"/>
<path d="M84.1998 35.7827H75.6662C75.224 35.7827 74.8662 36.1409 74.8662 36.5827C74.8662 37.0245 75.224 37.3827 75.6662 37.3827H84.1998C84.642 37.3827 84.9998 37.0245 84.9998 36.5827C84.9998 36.1409 84.642 35.7827 84.1998 35.7827Z" fill="#2C3556"/>
<path d="M71.9975 47.5334C71.7764 47.9159 71.9077 48.4053 72.2905 48.6264L79.6803 52.8932C79.8061 52.9659 79.9436 53.0002 80.0796 53.0002C80.3561 53.0002 80.6249 52.8569 80.7733 52.6002C80.9944 52.2178 80.8632 51.7284 80.4803 51.5073L73.0905 47.2405C72.7085 47.019 72.2186 47.1502 71.9975 47.5334Z" fill="#2C3556"/>
<path d="M33.0304 47.4512L25.6406 51.7176C25.2578 51.9387 25.1265 52.4278 25.3476 52.8106C25.4961 53.0672 25.7648 53.2106 26.0414 53.2106C26.1773 53.2106 26.3148 53.1762 26.4406 53.1036L33.8304 48.8372C34.2133 48.6161 34.3445 48.127 34.1234 47.7442C33.9023 47.361 33.4117 47.2301 33.0304 47.4512Z" fill="#2C3556"/>
<path d="M21 36.8264C21 37.2682 21.3578 37.6264 21.8 37.6264H30.3336C30.7758 37.6264 31.1336 37.2682 31.1336 36.8264C31.1336 36.3846 30.7758 36.0264 30.3336 36.0264H21.8C21.3578 36.0264 21 36.3846 21 36.8264Z" fill="#2C3556"/>
<path d="M33.7093 25.5835L26.3195 21.3167C25.9367 21.096 25.4476 21.2268 25.2265 21.6097C25.0054 21.9921 25.1367 22.4815 25.5195 22.7026L32.9093 26.9694C33.0351 27.0421 33.1726 27.0765 33.3086 27.0765C33.5851 27.0765 33.8539 26.9331 34.0023 26.6765C34.2234 26.294 34.0922 25.8046 33.7093 25.5835Z" fill="#2C3556"/>
<path d="M47.7203 75.3596V79.6291L44.4649 83.583C44.268 83.8221 44.2266 84.1529 44.3586 84.433C44.4907 84.7131 44.7727 84.8916 45.0821 84.8916H72.1719C73.8766 84.8916 75.2633 83.5049 75.2633 81.8006V75.3596C75.2633 73.6553 73.8766 72.2686 72.1719 72.2686H50.8118C49.1071 72.2686 47.7203 73.6553 47.7203 75.3596ZM73.6633 75.3596V81.8006C73.6633 82.6229 72.9946 83.2916 72.1719 83.2916H46.7774L49.1375 80.4248C49.2555 80.2814 49.3203 80.1018 49.3203 79.9162V75.3596C49.3203 74.5373 49.9891 73.8686 50.8118 73.8686H72.1719C72.9946 73.8686 73.6633 74.5373 73.6633 75.3596Z" fill="#2C3556"/>
<path d="M56.029 79.3798H67.2196C67.6618 79.3798 68.0196 79.0216 68.0196 78.5798C68.0196 78.138 67.6618 77.7798 67.2196 77.7798H56.029C55.5868 77.7798 55.229 78.138 55.229 78.5798C55.229 79.0216 55.5868 79.3798 56.029 79.3798Z" fill="#2C3556"/>
<path d="M30.7368 59.4084V65.849C30.7368 67.5537 32.1235 68.9404 33.8282 68.9404H60.9181C61.2274 68.9404 61.5095 68.7619 61.6415 68.4818C61.7735 68.2018 61.7321 67.8709 61.5353 67.6318L58.2798 63.6779V59.4084C58.2798 57.7041 56.8931 56.3174 55.1884 56.3174H33.8282C32.1235 56.3174 30.7368 57.7041 30.7368 59.4084ZM56.6798 59.4084V63.965C56.6798 64.1506 56.7446 64.3303 56.8626 64.4736L59.2228 67.3404H33.8282C33.0056 67.3404 32.3368 66.6713 32.3368 65.849V59.4084C32.3368 58.5861 33.0056 57.9174 33.8282 57.9174H55.1884C56.011 57.9174 56.6798 58.5861 56.6798 59.4084Z" fill="#2C3556"/>
<path d="M38.7805 63.4296H49.9711C50.4133 63.4296 50.7711 63.0714 50.7711 62.6296C50.7711 62.1878 50.4133 61.8296 49.9711 61.8296H38.7805C38.3383 61.8296 37.9805 62.1878 37.9805 62.6296C37.9805 63.0714 38.3383 63.4296 38.7805 63.4296Z" fill="#2C3556"/>
</svg>
