<svg width="249" height="258" viewBox="0 0 249 258" fill="none" xmlns="http://www.w3.org/2000/svg">
<g filter="url(#filter0_d_6317_170)">
<rect x="32" y="16" width="185" height="194" rx="92.5" fill="white"/>
<rect x="32.5" y="16.5" width="184" height="193" rx="92" stroke="#FA5762"/>
</g>
<path d="M178.07 148.991C176.67 146.091 174.47 143.591 172.07 141.291C166.97 138.191 161.97 134.991 156.77 131.991C151.67 128.991 147.47 125.091 144.27 120.191C143.67 119.291 143.37 118.191 142.87 117.191C142.47 116.291 142.17 115.191 141.37 114.691C139.87 113.691 139.67 112.391 139.67 110.891C139.67 109.991 139.67 108.991 139.57 108.091C139.47 106.691 139.87 105.491 140.67 104.291C142.57 101.491 144.07 98.3906 144.07 94.9906C146.47 93.9906 146.87 93.4906 147.47 92.1906C148.07 90.8906 148.57 89.6906 149.37 88.4906C151.27 85.4906 151.47 81.2906 150.17 78.5906C149.37 78.2906 148.67 77.6906 148.57 76.5906C148.27 72.3906 147.97 68.1906 146.57 64.2906C145.67 61.9906 144.07 58.0906 141.57 57.2906C140.77 56.9906 140.27 56.4906 140.07 55.7906C140.07 55.6906 139.97 55.6906 139.97 55.5906C139.77 55.3906 139.57 55.1906 139.37 54.8906C138.47 54.9906 137.67 54.5906 137.17 53.7906C134.97 50.8906 130.47 50.3906 127.27 49.5906C125.37 49.0906 123.37 48.6906 121.37 48.5906C119.47 48.5906 117.57 48.9906 115.77 49.5906C112.07 50.7906 108.57 52.4906 105.47 54.7906C102.77 56.7906 100.37 59.2906 99.57 62.5906C99.07 64.6906 98.97 66.8906 98.67 68.9906C98.37 71.0906 98.37 73.2906 98.37 75.3906C98.37 75.8906 98.27 76.2906 97.97 76.5906C97.97 76.6906 98.07 76.7906 98.07 76.7906C97.47 77.5906 96.77 78.1906 96.57 78.8906C95.97 82.2906 95.87 85.6906 98.07 88.7906C98.67 89.5906 99.17 90.4906 99.37 91.3906C99.77 92.8906 100.67 93.8906 102.17 94.4906C102.57 94.6906 102.97 95.1906 102.97 95.5906C103.27 98.1906 103.97 100.791 105.67 102.891C107.37 105.091 107.67 107.591 107.47 110.291C107.37 111.091 107.47 111.791 107.27 112.591C107.17 112.991 106.97 113.491 106.67 113.691C105.17 114.691 104.37 115.991 104.07 117.791C103.97 118.291 103.77 118.691 103.57 119.191C100.37 124.291 96.37 128.391 91.27 131.491C89.57 132.491 87.87 133.591 86.07 134.591C84.77 135.591 83.57 136.491 82.27 137.491C78.37 140.591 74.37 143.991 71.47 148.091C69.07 151.591 67.17 155.991 68.37 160.291C68.97 162.591 70.27 164.391 71.97 165.891C72.77 166.291 73.57 166.691 74.47 166.991C75.67 167.391 76.97 167.891 78.17 168.091C88.07 170.291 98.07 171.391 108.17 171.791C126.07 172.591 143.97 172.291 161.77 169.391C166.17 168.691 170.57 167.991 174.67 165.891C177.07 164.691 178.77 162.991 179.97 160.891C179.97 160.691 179.97 160.491 179.97 160.291C180.27 156.491 179.67 152.491 178.07 148.991ZM105.07 93.1906C104.37 92.9906 103.67 93.0906 103.27 92.7906C102.57 92.3906 101.97 91.7906 101.57 91.0906C100.87 89.9906 100.47 88.6906 99.77 87.5906C97.97 85.0906 98.17 82.2906 98.57 79.4906C98.67 78.4906 99.67 78.2906 100.27 79.0906C100.87 80.0906 101.37 81.1906 101.67 82.3906C102.17 84.8906 102.47 87.3906 102.97 90.1906C103.27 89.7906 103.57 89.4906 103.77 89.0906C103.57 87.0906 103.57 84.9906 103.37 82.9906C103.27 80.9906 102.67 79.0906 102.17 77.1906C100.97 73.2906 100.17 69.2906 101.67 65.2906C101.87 64.6906 102.17 64.0906 102.47 63.4906C103.27 61.5906 104.47 59.6906 105.97 58.1906C108.27 55.1906 111.57 52.8906 115.37 51.7906C116.27 51.4906 117.17 51.3906 118.07 51.1906C118.27 51.1906 118.57 51.0906 118.77 51.0906C118.87 51.0906 118.87 51.0906 118.97 51.0906C118.97 51.0906 119.37 50.9906 119.77 50.9906C123.67 50.9906 127.67 51.1906 131.47 52.4906C138.67 54.8906 143.87 61.0906 145.47 68.4906C146.37 72.3906 146.17 76.3906 145.07 80.1906C144.57 81.9906 144.07 83.8906 143.47 85.6906C143.37 86.2906 143.37 86.8906 143.27 87.4906C143.17 88.5906 143.07 89.6906 144.67 90.3906C144.87 88.6906 145.07 86.9906 145.37 85.2906C145.67 83.3906 145.97 81.5906 146.47 79.7906C146.57 79.2906 147.37 78.7906 147.97 78.7906C148.77 78.6906 148.97 79.4906 149.07 80.1906C149.47 83.1906 149.27 86.0906 147.17 88.4906C146.77 88.8906 146.47 89.4906 146.37 90.0906C145.97 92.1906 144.57 93.0906 142.47 93.0906C142.37 94.0906 142.47 95.0906 142.27 95.9906C140.37 103.791 136.17 109.791 128.27 112.291C124.87 113.291 121.17 113.291 117.77 111.891C114.07 110.391 111.17 108.191 108.97 104.791C106.77 101.191 104.57 97.6906 105.07 93.1906ZM141.27 118.691C140.67 123.791 139.97 128.791 139.17 133.791C139.17 133.891 139.17 133.991 139.07 134.091C139.17 134.191 139.17 134.391 139.17 134.591C139.37 135.591 139.37 136.591 139.17 137.591C139.37 137.491 139.47 137.291 139.67 137.191C137.77 147.191 134.47 156.791 130.17 166.091C130.17 165.491 130.07 164.991 130.07 164.391C128.97 166.091 126.97 166.591 125.07 166.791C122.17 167.091 118.87 166.491 117.17 164.191C117.07 164.891 117.07 165.491 116.97 166.191C112.77 156.791 109.47 147.191 107.57 137.191C107.27 136.191 107.47 134.991 108.17 134.291C107.67 133.091 107.77 131.591 107.57 130.191C107.07 126.391 106.47 122.591 106.07 118.791C105.97 117.891 106.37 116.891 106.57 115.991C106.77 115.991 106.87 115.991 107.07 115.991C107.27 115.491 107.47 115.091 107.87 114.791C107.97 114.091 108.37 113.391 109.07 113.091C109.07 111.591 109.27 109.991 109.37 108.391C117.57 116.791 129.97 116.591 138.17 108.291C137.97 110.091 138.27 111.791 138.27 113.491C138.87 113.791 139.27 114.291 139.47 114.891C139.87 115.191 140.07 115.691 140.27 116.191C140.37 116.191 140.57 116.191 140.67 116.191C140.87 116.891 141.37 117.891 141.27 118.691Z" fill="#F05A64"/>
<path d="M98.1701 76.7905C98.1701 76.7905 90.2701 53.4905 118.67 48.5905C119.57 48.3905 120.47 48.2905 121.37 48.1905C147.17 45.4905 148.37 72.3905 148.37 72.3905L143.57 61.2905L142.27 58.8905L134.37 52.7905L122.77 50.0905L111.87 51.7905L105.77 58.2905L101.57 62.3905L99.5701 72.3905L98.1701 76.7905Z" fill="#F05A64"/>
<path d="M144.87 65.3904H101.47C101.47 65.3904 103.67 76.8904 121.47 76.8904C139.27 76.8904 143.17 69.7904 144.87 65.3904Z" stroke="#F05A64" stroke-width="2.1714" stroke-miterlimit="10"/>
<path d="M101.07 66.5906C101.07 66.5906 103.27 78.0906 121.07 78.0906C138.87 78.0906 142.87 70.9906 144.47 66.5906" stroke="#F05A64" stroke-width="2.7142" stroke-miterlimit="10"/>
<path d="M106.77 134.39C106.77 134.39 115.57 141.29 140.67 134.19" stroke="#F05A64" stroke-width="1.7065" stroke-miterlimit="10"/>
<path d="M112.77 139.99L120.37 163.29" stroke="#F05A64" stroke-width="1.7065" stroke-miterlimit="10"/>
<path d="M133.67 139.99L126.07 163.29" stroke="#F05A64" stroke-width="1.7065" stroke-miterlimit="10"/>
<path d="M144.87 177.59C156.854 177.59 166.57 167.875 166.57 155.89C166.57 143.906 156.854 134.19 144.87 134.19C132.885 134.19 123.17 143.906 123.17 155.89C123.17 167.875 132.885 177.59 144.87 177.59Z" fill="#F4F7FC"/>
<path d="M129.97 156.49C129.97 154.29 129.97 152.09 129.97 149.99C129.97 149.29 130.27 148.89 130.97 148.59C135.47 146.99 139.97 145.39 144.47 143.79C144.97 143.59 145.57 143.59 145.97 143.79C150.47 145.39 154.97 146.99 159.47 148.59C160.17 148.79 160.47 149.29 160.47 149.99C160.47 154.39 160.47 158.79 160.47 163.19C160.47 163.89 160.17 164.29 159.57 164.49C154.97 166.09 150.47 167.79 145.87 169.39C145.57 169.49 145.07 169.49 144.67 169.39C140.07 167.79 135.57 166.09 130.97 164.49C130.27 164.29 130.07 163.89 130.07 163.19C129.97 160.99 129.97 158.79 129.97 156.49ZM144.07 167.09C144.07 166.89 144.07 166.69 144.07 166.59C144.07 163.09 144.07 159.69 144.07 156.19C144.07 155.69 143.87 155.49 143.37 155.29C139.97 154.09 136.47 152.79 133.07 151.59C132.67 151.49 132.37 151.39 131.97 151.19C131.97 151.39 131.87 151.49 131.87 151.59C131.87 155.19 131.87 158.69 131.87 162.29C131.87 162.79 132.17 162.89 132.47 162.99C134.77 163.79 137.17 164.69 139.47 165.49C141.07 165.99 142.57 166.49 144.07 167.09ZM146.17 167.09C146.47 166.99 146.67 166.99 146.87 166.89C150.47 165.59 154.07 164.29 157.67 162.99C158.17 162.79 158.37 162.59 158.37 161.99C158.37 158.59 158.37 155.19 158.37 151.79C158.37 151.59 158.37 151.49 158.27 151.19C157.07 151.59 155.97 151.99 154.87 152.39C153.37 152.89 153.37 152.89 153.37 154.49C153.37 155.99 153.37 155.99 151.97 156.39C151.87 156.39 151.87 156.39 151.67 156.39C151.67 155.49 151.67 154.49 151.67 153.49C149.97 154.09 148.37 154.69 146.77 155.29C146.27 155.49 146.17 155.69 146.17 156.19C146.17 158.59 146.17 161.09 146.17 163.49C146.17 164.59 146.17 165.79 146.17 167.09ZM149.57 152.09C149.37 151.99 149.27 151.89 149.17 151.89C145.67 150.69 142.27 149.39 138.77 148.19C138.57 148.09 138.37 148.09 138.17 148.09C136.77 148.59 135.37 149.09 133.87 149.59C137.57 150.89 141.17 152.19 144.87 153.49C145.07 153.59 145.27 153.49 145.47 153.49C146.77 153.09 148.17 152.59 149.57 152.09ZM141.37 146.99C141.47 147.09 141.47 147.19 141.47 147.19C144.97 148.49 148.57 149.69 152.07 150.99C152.27 151.09 152.47 151.09 152.57 151.09C153.77 150.69 154.97 150.19 156.27 149.79C156.07 149.69 156.07 149.69 155.97 149.59C152.47 148.29 148.97 147.09 145.57 145.79C145.37 145.69 145.17 145.69 145.07 145.69C143.77 146.19 142.57 146.59 141.37 146.99Z" fill="#F05A64"/>
<defs>
<filter id="filter0_d_6317_170" x="0" y="0" width="249" height="258" filterUnits="userSpaceOnUse" color-interpolation-filters="sRGB">
<feFlood flood-opacity="0" result="BackgroundImageFix"/>
<feColorMatrix in="SourceAlpha" type="matrix" values="0 0 0 0 0 0 0 0 0 0 0 0 0 0 0 0 0 0 127 0" result="hardAlpha"/>
<feOffset dy="16"/>
<feGaussianBlur stdDeviation="16"/>
<feColorMatrix type="matrix" values="0 0 0 0 0.172549 0 0 0 0 0.207843 0 0 0 0 0.337255 0 0 0 0.05 0"/>
<feBlend mode="normal" in2="BackgroundImageFix" result="effect1_dropShadow_6317_170"/>
<feBlend mode="normal" in="SourceGraphic" in2="effect1_dropShadow_6317_170" result="shape"/>
</filter>
</defs>
</svg>
