<svg width="50" height="50" viewBox="0 0 50 50" fill="none" xmlns="http://www.w3.org/2000/svg">
<circle cx="25" cy="25" r="25" fill="#C92F91"/>
<g clip-path="url(#clip0_6287_1531)">
<path d="M24.9078 11.7646C24.8709 11.7646 24.8393 11.7646 24.8024 11.7646C24.7023 11.8166 24.6075 11.8737 24.5073 11.9205C20.3389 13.806 16.1756 15.6916 12.0072 17.5772C11.8649 17.6395 11.7648 17.6914 11.7648 17.8888C11.77 22.5638 11.77 27.2335 11.7648 31.9085C11.7648 32.0643 11.8175 32.137 11.9597 32.1994C12.7081 32.5318 13.4564 32.8695 14.2047 33.2071C17.8989 34.8693 21.5878 36.5367 25.2873 38.1937C25.3874 38.2404 25.5455 38.256 25.6403 38.2145C29.7561 36.2666 33.8719 34.3083 37.9877 32.3656C38.1827 32.2721 38.2354 32.1734 38.2354 31.9708C38.2301 27.3322 38.2301 22.6936 38.2354 18.0551C38.2354 17.8421 38.1616 17.759 37.9771 17.6759C34.3304 16.0396 30.6889 14.393 27.0421 12.7516C26.3307 12.4295 25.6193 12.0919 24.9078 11.7646ZM37.0707 18.3096C37.0707 18.4342 37.0707 18.5018 37.0707 18.5693C37.0707 22.8287 37.0707 27.0829 37.076 31.3423C37.076 31.5345 36.9969 31.6072 36.8388 31.6799C33.092 33.4304 29.3451 35.1861 25.6035 36.9419C25.5139 36.9834 25.419 37.0198 25.2925 37.0717C25.2925 36.9522 25.2925 36.8795 25.2925 36.8016C25.2925 32.5007 25.2978 28.1997 25.2925 23.8987C25.2925 23.6806 25.3558 23.5663 25.5666 23.4728C28.7865 22.034 32.0011 20.5847 35.2157 19.1355C35.8112 18.8758 36.4172 18.6057 37.0707 18.3096ZM20.0121 27.9919C20.0121 25.8362 20.0121 23.7429 20.0121 21.6236C20.1333 21.6755 20.2071 21.7067 20.2756 21.7379C21.4771 22.3196 22.6787 22.9066 23.8855 23.478C24.0752 23.5663 24.1226 23.6754 24.1226 23.8728C24.1174 28.0283 24.1226 32.1838 24.1279 36.3393C24.1279 36.4224 24.1279 36.5055 24.1279 36.6302C24.0067 36.5782 23.9224 36.5419 23.838 36.5003C20.2756 34.8381 16.7184 33.1759 13.156 31.5241C12.9716 31.441 12.9241 31.3423 12.9241 31.1553C12.9294 26.9115 12.9294 22.6729 12.9294 18.429C12.9294 18.3563 12.9347 18.2836 12.9399 18.1745C13.0612 18.2265 13.156 18.268 13.2456 18.3096C14.2416 18.7927 15.2376 19.2757 16.2442 19.7484C16.4339 19.8367 16.4866 19.9406 16.4866 20.1432C16.476 22.0288 16.4866 23.9091 16.476 25.7947C16.476 26.0129 16.534 26.1323 16.7343 26.2362C17.7303 26.7608 18.7157 27.3011 19.7065 27.8361C19.7802 27.8828 19.8593 27.9192 20.0121 27.9919ZM21.0081 20.86C21.0872 20.8185 21.1241 20.7977 21.161 20.7769C24.5706 19.1978 27.9854 17.6135 31.4003 16.0396C31.4952 15.9981 31.6375 16.0033 31.7376 16.0448C32.5808 16.4032 33.4187 16.772 34.2566 17.1408C34.752 17.359 35.2421 17.572 35.7743 17.8057C35.6478 17.8629 35.5635 17.9044 35.4792 17.9408C34.441 18.4031 33.4081 18.8654 32.37 19.3277C29.93 20.4133 27.4953 21.5041 25.0501 22.5846C24.9605 22.6261 24.8182 22.6469 24.7339 22.6105C23.5008 22.0392 22.2729 21.4574 21.0081 20.86ZM14.3154 17.7018C14.3944 17.6603 14.4419 17.6239 14.4946 17.5979C17.8936 16.0708 21.2874 14.5385 24.6865 13.0217C24.7866 12.9749 24.9447 12.9905 25.0501 13.0373C25.9197 13.4165 26.7839 13.8112 27.6534 14.206C27.7325 14.2424 27.8063 14.2787 27.9169 14.3359C27.4795 14.5281 27.0738 14.7047 26.668 14.8813C23.5482 16.2266 20.4232 17.5824 17.3034 18.9329C17.2191 18.9693 17.0926 19.0004 17.0136 18.9693C16.1177 18.5589 15.2323 18.133 14.3154 17.7018Z" fill="white"/>
</g>
<defs>
<clipPath id="clip0_6287_1531">
<rect width="26.4706" height="26.4706" fill="white" transform="matrix(-1 0 0 1 38.2354 11.7646)"/>
</clipPath>
</defs>
</svg>
