<svg width="886" height="284" viewBox="0 0 886 284" fill="none" xmlns="http://www.w3.org/2000/svg">
<rect y="16" width="220" height="220" rx="40" fill="white"/>
<rect x="8" y="24" width="204" height="204" rx="39" fill="white" stroke="#6554C0" stroke-width="2"/>
<path d="M121.986 74.8564C122.925 75.1738 123.238 75.9143 123.238 76.8664C123.238 80.1459 123.343 83.5312 123.343 86.8106C123.343 87.4454 123.551 87.8685 123.968 88.2917C125.116 89.3496 125.429 90.7248 124.907 92.2059C124.386 93.6869 123.134 94.5332 121.673 94.639C120.213 94.639 118.857 93.7927 118.231 92.5233C117.605 91.148 117.918 89.3496 118.857 88.3975C118.857 88.3975 118.857 88.2917 118.961 88.2917C119.9 87.9743 119.796 87.128 119.796 86.2817C119.796 83.4254 119.796 80.5691 119.796 77.8185C119.796 77.5012 119.796 77.078 119.796 76.7606C119.796 75.8085 120.109 75.1738 121.048 74.8564C121.465 74.8564 121.778 74.8564 121.986 74.8564Z" fill="#5243AA"/>
<path d="M81.4089 74.8564C82.3478 75.2796 82.6608 76.0201 82.6608 76.9722C82.6608 80.2517 82.7651 83.4253 82.7651 86.7048C82.7651 87.4453 82.9737 87.8685 83.391 88.3974C84.7471 89.7727 84.9557 91.6769 83.9126 93.1579C83.078 94.4274 81.8262 94.9563 80.3657 94.639C79.0096 94.4274 77.9664 93.6869 77.5491 92.3116C77.1319 90.9364 77.3405 89.5611 78.3837 88.3974C79.3226 88.0801 79.2182 87.2338 79.2182 86.4932C79.2182 83.5311 79.2182 80.6748 79.2182 77.7127C79.2182 77.5012 79.2182 77.1838 79.2182 76.9722C79.2182 76.0201 79.5312 75.2796 80.4701 74.9622C80.8873 74.8564 81.2003 74.8564 81.4089 74.8564Z" fill="#5243AA"/>
<path d="M101.537 74.8564C102.58 75.1738 102.789 76.0201 102.789 77.078C102.789 80.2517 102.789 83.4253 102.789 86.7048C102.789 87.4453 102.998 87.9743 103.519 88.3974C104.458 89.2438 104.771 90.3016 104.667 91.5711C104.354 93.5811 102.58 94.9564 100.494 94.639C98.5121 94.3216 97.2602 92.5232 97.5732 90.5132C97.7818 89.4553 98.1991 88.5032 99.138 87.9743C99.3466 87.8685 99.4509 87.5511 99.4509 87.3396C99.4509 85.0122 99.4509 82.6848 99.4509 80.2517C99.4509 79.1938 99.5553 78.0301 99.5553 76.9722C99.5553 76.0201 99.7639 75.1738 100.807 74.8564C101.016 74.8564 101.224 74.8564 101.537 74.8564Z" fill="#5243AA"/>
<path d="M75.356 81.4155C75.356 82.4734 75.356 83.6371 75.356 84.695C75.1474 84.695 74.9387 84.695 74.7301 84.695C72.5394 84.8008 70.3487 84.8008 68.158 84.9066C67.5321 84.9066 66.9062 85.0123 66.3846 85.1181C65.0285 85.4355 63.9853 86.8107 63.9853 88.186C63.9853 118.019 63.9853 147.957 63.881 177.789C63.881 180.328 63.9853 182.761 63.9853 185.3C63.9853 187.099 65.6544 189.003 67.4278 189.003C70.9746 189.215 74.5215 189.32 77.964 189.32C88.2916 189.32 98.7234 189.32 109.051 189.32C117.814 189.32 126.577 189.32 135.235 189.215C135.548 189.215 135.965 189.109 136.174 188.897C137.321 188.051 137.947 186.993 138.052 185.406C138.156 176.837 138.26 168.374 138.365 159.805C138.365 159.488 138.469 159.065 138.573 158.747C139.408 156.949 140.347 155.045 141.285 153.246C141.39 153.035 141.494 152.929 141.703 152.717C141.703 152.823 141.703 153.035 141.703 153.14C141.703 162.662 141.703 172.288 141.703 181.809C141.703 183.396 141.703 184.983 141.494 186.676C141.285 189.003 139.929 190.696 138.052 191.859C137.113 192.494 136.07 192.706 134.922 192.706C112.598 192.706 90.2736 192.706 68.0537 192.706C66.2803 192.706 64.9241 192.071 63.568 191.225C62.0032 190.167 61.1687 188.474 60.4384 186.781C60.3341 186.57 60.3341 186.147 60.3341 185.935C60.3341 156.208 60.3341 126.587 60.3341 96.8607C60.3341 93.8986 60.4384 90.8307 60.3341 87.8686C60.2298 86.0702 60.96 84.695 62.1075 83.5313C63.568 81.9444 65.3414 81.0981 67.4278 81.0981C69.9314 81.0981 72.5394 81.0981 75.0431 81.0981C75.1474 81.3097 75.2517 81.4155 75.356 81.4155Z" fill="#5243AA"/>
<path d="M132.001 164.672C127.828 162.556 123.656 160.44 119.587 158.43C119.17 158.219 119.066 158.007 119.274 157.584C121.674 152.506 124.073 147.322 126.472 142.245C126.577 142.033 126.785 141.716 126.89 141.504C127.098 141.081 127.411 140.764 127.933 140.658C129.497 140.34 130.749 139.494 131.48 138.013C134.192 132.3 137.008 126.588 139.825 120.875C141.181 118.019 142.537 115.268 143.893 112.412C143.998 112.201 144.102 111.989 144.311 111.777C147.753 113.47 151.196 115.163 154.743 116.855C147.127 132.829 139.616 148.698 132.001 164.672Z" fill="#5243AA"/>
<path d="M156.205 113.999C152.867 112.306 149.529 110.719 146.19 109.132C145.46 108.815 144.73 108.498 144 108.18C143.061 107.863 142.748 107.969 142.331 108.815C141.392 110.508 140.557 112.306 139.723 114.104C136.28 121.298 132.838 128.386 129.395 135.58C129.186 136.003 128.978 136.532 128.665 136.955C128.248 137.59 127.622 137.801 126.996 137.484C126.37 137.167 126.057 136.426 126.37 135.791C127.1 134.099 127.83 132.3 128.665 130.608C132.42 122.568 136.28 114.633 140.14 106.593C140.453 105.959 140.87 105.324 141.183 104.689C141.6 103.949 142.122 103.843 142.852 104.054C143.165 104.16 143.374 104.266 143.582 104.372C144 104.583 144.208 104.478 144.417 104.054C144.834 103.208 145.252 102.362 145.669 101.516C146.086 100.669 146.608 99.8229 147.129 99.0824C147.755 98.2361 148.798 98.0245 149.737 98.4477C152.762 99.8229 155.683 101.304 158.709 102.785C159.752 103.314 160.273 104.901 159.856 105.959C158.709 108.498 157.457 111.248 156.205 113.999Z" fill="#5243AA"/>
<path d="M125.744 110.296C125.744 111.46 125.744 112.517 125.744 113.681C109.262 113.681 92.8837 113.681 76.4014 113.681C76.4014 112.517 76.4014 111.46 76.4014 110.296C92.7794 110.296 109.262 110.296 125.744 110.296Z" fill="#5243AA"/>
<path d="M76.4014 126.165C76.4014 125.001 76.4014 123.943 76.4014 122.779C92.8837 122.779 109.262 122.779 125.744 122.779C125.744 123.943 125.744 125.001 125.744 126.165C109.262 126.165 92.8837 126.165 76.4014 126.165Z" fill="#5243AA"/>
<path d="M76.4014 138.647C76.4014 137.484 76.4014 136.426 76.4014 135.262C91.7362 135.262 106.967 135.262 122.197 135.262C122.406 136.426 122.719 137.484 122.927 138.647C107.384 138.647 91.9449 138.647 76.4014 138.647Z" fill="#5243AA"/>
<path d="M130.539 167.633C130.33 167.845 130.226 167.951 130.122 168.056C126.053 171.759 122.089 175.462 118.021 179.164C117.812 179.376 117.499 179.482 117.291 179.588C116.873 179.588 116.56 179.376 116.56 178.953C116.456 178.106 116.456 177.366 116.456 176.52C116.769 171.548 117.082 166.575 117.395 161.709C117.395 161.18 117.708 161.286 118.021 161.392C119.377 162.027 120.733 162.555 121.985 163.296C124.593 164.565 127.201 165.941 129.809 167.316C130.017 167.316 130.226 167.422 130.539 167.633Z" fill="#5243AA"/>
<path d="M138.159 101.41C138.159 97.7073 138.159 94.1105 138.159 90.4078C138.159 89.4557 138.054 88.6094 138.054 87.6573C137.95 86.2821 137.011 85.2242 135.655 85.1184C134.09 85.0126 132.525 84.9068 130.961 84.9068C129.709 84.9068 128.457 84.9068 127.205 84.9068C127.205 83.6374 127.205 82.5795 127.205 81.4158C127.309 81.4158 127.518 81.4158 127.622 81.4158C130.335 81.4158 133.047 81.5216 135.864 81.6274C138.367 81.7332 140.871 83.8489 141.392 86.1763C141.497 86.811 141.601 87.5515 141.601 88.2921C141.705 91.9947 141.705 95.6973 141.705 99.3999C141.705 99.9289 141.601 100.14 141.079 100.246C140.349 100.352 139.723 100.775 139.097 101.093C138.784 101.198 138.576 101.41 138.367 101.621C138.367 101.41 138.263 101.41 138.159 101.41Z" fill="#5243AA"/>
<path d="M115.934 81.4158C115.934 82.5794 115.934 83.6373 115.934 84.801C112.909 84.801 109.884 84.801 106.858 84.801C106.858 83.6373 106.858 82.5794 106.858 81.4158C109.884 81.4158 112.909 81.4158 115.934 81.4158Z" fill="#5243AA"/>
<path d="M95.4893 81.4158C95.4893 82.5794 95.4893 83.6373 95.4893 84.801C92.5684 84.801 89.6475 84.801 86.7266 84.801C86.7266 83.6373 86.7266 82.5794 86.7266 81.4158C89.6475 81.4158 92.4641 81.4158 95.4893 81.4158Z" fill="#5243AA"/>
<rect x="317" y="16" width="220" height="220" rx="40" fill="white"/>
<rect x="325" y="24" width="204" height="204" rx="39" fill="white" stroke="#6554C0" stroke-width="2"/>
<g clip-path="url(#clip0_4134_0)">
<path d="M395.261 184.941C394.908 183.59 394.26 182.238 394.319 180.886C394.555 166.078 395.084 151.328 395.202 136.519C395.261 131.348 394.378 126.118 393.966 120.947C393.731 120.888 393.437 120.888 393.201 120.829C392.319 123.297 391.436 125.707 390.671 128.175C390.082 130.173 389.082 130.819 386.964 130.114C381.726 128.292 376.489 126.529 371.193 124.884C369.192 124.238 368.604 123.18 369.251 121.182C373.606 107.372 377.96 93.6801 382.433 80.0467C382.786 79.0477 383.845 77.9312 384.845 77.4611C391.848 74.4053 398.968 71.4671 406.088 68.5876C407.147 68.1763 408.324 68 409.501 68C421.447 68 433.451 68 445.456 68.0588C446.75 68.0588 448.163 68.3526 449.398 68.8227C456.048 71.5259 462.638 74.4053 469.347 77.0497C471.406 77.8724 472.407 79.1065 472.995 81.1045C476.997 93.8564 481.116 106.667 485.176 119.419C485.353 120.065 485.706 120.594 486 121.241C486 122.005 486 122.827 486 123.591C480.057 125.707 474.113 127.822 468.229 129.996C465.934 130.878 464.816 130.173 464.168 127.881C463.462 125.472 462.521 123.18 461.697 120.829C461.462 120.888 461.167 120.947 460.932 120.947C460.52 125.942 459.696 130.937 459.696 135.99C459.814 150.975 460.344 165.96 460.579 180.945C460.579 182.297 459.99 183.648 459.637 185C438.218 184.941 416.739 184.941 395.261 184.941ZM386.964 80.8694C401.204 113.072 400.439 146.744 398.262 180.769C417.798 180.769 437.041 180.769 456.342 180.769C456.048 170.72 455.695 160.789 455.459 150.917C454.871 127.411 458.166 104.551 467.052 82.6911C467.287 82.1035 467.346 81.4571 467.464 80.6931C460.873 77.99 454.459 75.2868 448.104 72.7012C443.396 81.1632 437.394 87.5686 427.331 87.5098C417.269 87.3335 411.326 80.8106 406.736 72.5836C400.204 75.3456 393.79 77.99 386.964 80.8694ZM385.257 86.5696C384.963 86.5696 384.669 86.6283 384.433 86.6283C380.726 98.1462 377.078 109.605 373.37 121.299C378.137 122.886 382.609 124.355 387.14 125.824C387.964 123.297 388.494 121.123 389.494 119.125C392.319 113.366 392.142 107.607 390.024 101.672C388.258 96.677 386.846 91.6233 385.257 86.5696ZM481.528 121.299C477.762 109.488 474.113 98.0286 470.406 86.5696C470.112 86.5696 469.759 86.5108 469.465 86.5108C467.523 93.2687 465.581 99.9679 463.698 106.785C463.286 108.312 462.697 110.134 463.109 111.603C464.404 116.363 466.11 121.006 467.758 125.942C472.348 124.355 476.761 122.886 481.528 121.299ZM411.561 72.1135C414.327 78.8714 421.388 83.6901 427.979 83.455C434.334 83.22 441.278 78.1075 443.278 72.1135C432.745 72.1135 422.271 72.1135 411.561 72.1135Z" fill="#5243AA"/>
<path d="M439.113 162.5L442 165.387L444.887 162.5L442 159.613L439.113 162.5ZM442 163H466.25V162H442V163ZM466.25 163H490.5V162H466.25V163Z" fill="#FA5762"/>
<path d="M453.113 68L456 70.8868L458.887 68L456 65.1132L453.113 68ZM456 68.5H480.25V67.5H456V68.5ZM480.25 68.5H504.5V67.5H480.25V68.5Z" fill="#FA5762"/>
<path d="M393.387 82L390.5 79.1132L387.613 82L390.5 84.8868L393.387 82ZM342 82.5H366.25V81.5H342V82.5ZM366.25 82.5H390.5V81.5H366.25V82.5Z" fill="#FA5762"/>
</g>
<g filter="url(#filter0_d_4134_0)">
<rect x="634" y="16" width="220" height="220" rx="40" fill="white"/>
</g>
<rect x="640.7" y="35.7" width="206.6" height="192.6" rx="40.3" fill="white" stroke="#FA5762" stroke-width="1.4"/>
<path d="M740.615 29.7838C737.889 30.4832 735.325 31.8217 733.184 33.6643C728.695 37.53 726.225 43.6939 726.889 49.6123C727.553 55.5308 731.368 61.0158 736.7 63.565C739.951 65.1196 743.696 65.6015 747.229 64.9212C750.762 64.2409 754.067 62.3984 756.522 59.7448C758.919 56.189 761.323 52.432 761.882 48.168C762.563 42.9724 760.246 37.5947 756.329 34.1579C752.411 30.7212 747.063 29.1593 741.879 29.4252C739.973 29.5237 738.054 29.8616 736.329 30.6903C734.21 31.7071 732.482 33.4174 731.07 35.3099C728.852 38.2853 727.32 41.8293 726.989 45.5393C726.659 49.2494 727.589 53.1137 729.827 56.073C732.937 60.1856 737.221 63.9206 742.326 64.3658C747.431 64.811 752.64 62.5806 756.071 58.7383C759.502 54.896 761.156 49.5624 760.773 44.4036C760.654 42.7873 760.339 41.1681 759.651 39.7032C759.031 38.3823 758.123 37.2186 757.114 36.1709C753.62 32.5402 748.756 30.2246 743.744 30.0673C738.732 29.9101 733.644 31.9819 730.325 35.7742C727.005 39.5665 725.595 45.0501 726.904 49.937" stroke="#FFC433" stroke-width="0.592493" stroke-miterlimit="10" stroke-linecap="round"/>
<path d="M754.49 53.9933C754.348 53.9933 754.234 54.1079 754.234 54.2519C754.234 54.3959 754.348 54.5105 754.49 54.5105C754.633 54.5105 754.748 54.3959 754.748 54.2519C754.748 54.1079 754.633 53.9933 754.49 53.9933ZM754.454 40.571C754.617 40.571 754.748 40.4373 754.748 40.2742C754.748 40.1096 754.615 39.9788 754.454 39.9788C754.291 39.9788 754.16 40.1096 754.16 40.2742C754.16 40.4373 754.291 40.571 754.454 40.571ZM752.575 38.6021C752.753 38.6021 752.897 38.4566 752.897 38.2774C752.897 38.0981 752.753 37.9526 752.575 37.9526C752.398 37.9526 752.254 38.0981 752.254 38.2774C752.255 38.4566 752.399 38.6021 752.575 38.6021ZM752.514 55.4435C752.291 55.4435 752.111 55.6242 752.111 55.8476C752.111 56.0724 752.291 56.2546 752.514 56.2546C752.737 56.2546 752.914 56.0724 752.914 55.8476C752.914 55.6242 752.737 55.4435 752.514 55.4435ZM736.172 55.5243C735.994 55.5243 735.85 55.6698 735.85 55.849C735.85 56.0298 735.994 56.1738 736.172 56.1738C736.351 56.1738 736.493 56.0298 736.493 55.849C736.493 55.6698 736.351 55.5243 736.172 55.5243ZM736.234 37.8718C736.012 37.8718 735.831 38.054 735.831 38.2788C735.831 38.5036 736.012 38.6829 736.234 38.6829C736.457 38.6829 736.634 38.5022 736.634 38.2788C736.636 38.054 736.457 37.8718 736.234 37.8718ZM734.294 53.5569C734.131 53.5569 734 53.6906 734 53.8537C734 54.0183 734.133 54.1505 734.294 54.1505C734.455 54.1505 734.587 54.0168 734.587 53.8537C734.587 53.6891 734.456 53.5569 734.294 53.5569ZM734.257 40.1346C734.399 40.1346 734.514 40.0185 734.514 39.8745C734.514 39.732 734.399 39.6159 734.257 39.6159C734.115 39.6159 734 39.732 734 39.8745C734 40.0185 734.117 40.1346 734.257 40.1346Z" fill="#FF606B"/>
<path d="M761.041 46.6132C761.017 46.4619 761.034 46.3002 761.043 46.1416C761.065 45.7492 761.027 45.3643 760.894 45.0205C760.871 44.7957 760.84 44.5708 760.806 44.3475C760.596 42.9898 760.237 41.6542 759.743 40.3744C758.88 38.1322 757.605 36.0487 755.996 34.2723C755.757 34.0078 755.501 33.6714 755.216 33.3702C755.056 33.0381 754.782 32.778 754.401 32.6193C753.673 32.324 752.944 32.0287 752.26 31.6643C751.461 31.2411 750.582 31.0824 749.666 31.0163C748.807 30.9487 747.941 30.9223 747.086 30.8473C746.666 30.8106 746.244 30.8385 745.828 30.8253C745.226 30.8047 744.625 30.8032 744.025 30.7356C742.932 30.6078 741.816 30.7665 740.701 31.0178C740.176 31.1368 739.655 31.316 739.117 31.3337C739.066 31.3351 739.012 31.3498 738.959 31.366C737.094 31.9508 735.305 32.6899 733.853 34.1783C732.814 35.2435 731.762 36.3015 730.842 37.471C729.915 38.6495 729.212 39.941 728.699 41.3163C728.303 42.3742 728.016 43.4556 727.855 44.5444C727.642 45.9785 727.555 47.4067 727.796 48.7996C727.949 49.6929 728.058 50.5995 728.24 51.4826C728.442 52.4641 728.742 53.4103 729.061 54.3507C729.316 55.1015 729.668 55.7936 730.052 56.4695C730.541 57.3305 731.114 58.1078 732.002 58.5956C732.009 58.7249 732.056 58.8263 732.177 58.8792C732.179 58.9277 732.198 58.9732 732.228 59.0129C732.236 59.1437 732.281 59.2494 732.407 59.3067C732.436 59.3993 732.465 59.4919 732.495 59.583C732.546 59.6271 732.594 59.6755 732.638 59.7255C732.645 59.7711 732.663 59.8151 732.69 59.8489C732.712 59.9297 732.759 59.9753 732.846 59.9768L732.845 59.9856C733.136 60.588 733.677 60.9553 734.166 61.3667C734.39 61.5548 734.677 61.6724 734.933 61.8222C735.026 61.9427 735.155 62.0177 735.31 62.0426C735.493 62.2851 735.813 62.3086 736.059 62.4496C736.184 62.6083 736.384 62.6113 736.566 62.6495C736.631 62.6789 736.691 62.7185 736.753 62.7509H736.755C736.793 62.8199 736.848 62.8552 736.934 62.8449C736.982 62.8464 737.031 62.8434 737.078 62.8361C737.151 62.8581 737.212 62.8948 737.274 62.9301H737.276C737.331 62.9683 737.391 63.0006 737.455 63.0271C737.501 63.03 737.551 63.0271 737.596 63.0183C737.67 63.0359 737.733 63.0726 737.797 63.1108H737.798C737.856 63.1505 737.918 63.1843 737.979 63.2152L737.987 63.2166C738.022 63.2857 738.076 63.3224 738.159 63.3092C738.21 63.3107 738.262 63.3063 738.31 63.2989C738.373 63.3298 738.437 63.3606 738.5 63.39C738.612 63.4179 738.724 63.4458 738.836 63.4738C738.897 63.509 738.958 63.5413 739.023 63.5707C739.131 63.6001 739.243 63.6295 739.354 63.6589C739.419 63.6883 739.48 63.7221 739.547 63.7485L739.555 63.7515C739.636 63.8631 739.753 63.8661 739.885 63.8337C739.943 63.869 740.003 63.8969 740.067 63.9234C740.115 63.9248 740.164 63.9204 740.212 63.9131C740.278 63.9381 740.345 63.966 740.406 63.9983C740.453 63.9998 740.502 63.9983 740.55 63.9954C740.872 64.2775 741.311 64.2834 741.714 64.3274C742.878 64.4538 744.038 64.6096 745.236 64.5331C745.84 64.4949 746.453 64.3906 747.058 64.3216C747.895 64.2275 748.682 63.941 749.466 63.6295C750.459 63.2372 751.444 62.8096 752.284 62.0779C752.336 62.0617 752.384 62.0412 752.432 62.0162C752.566 61.9883 752.671 61.9251 752.717 61.7884L752.719 61.7855C752.812 61.7385 752.921 61.7091 753.005 61.6415C753.47 61.2668 753.932 60.8877 754.386 60.4954C754.485 60.4131 754.542 60.278 754.619 60.1678C755.047 59.9386 755.313 59.5227 755.658 59.198C756.463 58.4442 757.035 57.5171 757.597 56.587C757.681 56.4445 757.755 56.2976 757.767 56.1301C757.776 55.9626 757.851 55.8053 757.978 55.6922C758.24 55.4556 758.371 55.1471 758.512 54.8547C758.701 54.4521 758.934 54.0715 759.189 53.7057C759.318 53.522 759.411 53.3251 759.489 53.115C759.625 52.7565 759.756 52.3906 759.94 52.0527C760.496 51.0374 760.632 49.9368 760.979 48.8804C760.987 48.8525 761.001 48.8216 760.995 48.8025C760.774 48.0972 761.156 47.3302 761.041 46.6132ZM734.258 39.6163C734.4 39.6163 734.515 39.7323 734.515 39.8749C734.515 40.0189 734.4 40.1349 734.258 40.1349C734.116 40.1349 734.001 40.0189 734.001 39.8749C734.001 39.7323 734.118 39.6163 734.258 39.6163ZM734.295 54.1509C734.132 54.1509 734.001 54.0172 734.001 53.8541C734.001 53.6895 734.134 53.5573 734.295 53.5573C734.455 53.5573 734.588 53.691 734.588 53.8541C734.588 54.0172 734.457 54.1509 734.295 54.1509ZM736.173 56.1727C735.995 56.1727 735.851 56.0287 735.851 55.8479C735.851 55.6687 735.995 55.5232 736.173 55.5232C736.352 55.5232 736.494 55.6687 736.494 55.8479C736.494 56.0287 736.352 56.1727 736.173 56.1727ZM736.235 38.6832C736.013 38.6832 735.832 38.5025 735.832 38.2792C735.832 38.0544 736.013 37.8722 736.235 37.8722C736.458 37.8722 736.635 38.0544 736.635 38.2792C736.637 38.5025 736.458 38.6832 736.235 38.6832ZM755.229 47.6373C755.258 47.6388 755.284 47.6432 755.318 47.6388C755.312 47.6417 755.312 47.6462 755.309 47.6491C755.289 47.6579 755.257 47.655 755.239 47.6432C755.235 47.6432 755.232 47.6388 755.229 47.6373ZM756.121 48.6144C756.143 48.7673 756.181 48.8495 756.255 48.8848C756.233 48.8819 756.21 48.8745 756.19 48.8554C756.115 48.7922 756.096 48.707 756.121 48.6144ZM754.455 40.5713C754.292 40.5713 754.161 40.4376 754.161 40.2745C754.161 40.11 754.293 39.9792 754.455 39.9792C754.618 39.9792 754.749 40.11 754.749 40.2745C754.749 40.4376 754.618 40.5713 754.455 40.5713ZM751.041 38.6509C751.042 38.6509 751.044 38.6495 751.047 38.6495C751.044 38.6583 751.039 38.6656 751.034 38.6744C751.032 38.6715 751.031 38.6656 751.028 38.6612C751.032 38.6553 751.038 38.6524 751.041 38.6509ZM752.576 38.6024C752.399 38.6024 752.255 38.457 752.255 38.2777C752.255 38.0985 752.399 37.953 752.576 37.953C752.754 37.953 752.898 38.0985 752.898 38.2777C752.898 38.457 752.754 38.6024 752.576 38.6024ZM751.624 59.99C751.608 59.9062 751.619 59.8284 751.691 59.7843C751.667 59.8533 751.645 59.9209 751.624 59.99ZM752.515 56.2549C752.292 56.2549 752.112 56.0728 752.112 55.8479C752.112 55.6231 752.292 55.4439 752.515 55.4439C752.738 55.4439 752.915 55.6246 752.915 55.8479C752.915 56.0728 752.738 56.2549 752.515 56.2549ZM754.491 54.5109C754.349 54.5109 754.235 54.3962 754.235 54.2523C754.235 54.1083 754.349 53.9937 754.491 53.9937C754.634 53.9937 754.749 54.1083 754.749 54.2523C754.749 54.3962 754.634 54.5109 754.491 54.5109Z" fill="#D800A2"/>
<path d="M752.897 38.2783C752.897 38.4578 752.753 38.6035 752.576 38.6035C752.398 38.6035 752.254 38.4578 752.254 38.2783C752.254 38.0988 752.398 37.9531 752.576 37.9531C752.753 37.9531 752.897 38.0988 752.897 38.2783Z" fill="#FF606B"/>
<path d="M754.749 40.2719C754.749 40.4367 754.616 40.5691 754.455 40.5691C754.292 40.5691 754.161 40.4352 754.161 40.2719C754.161 40.107 754.293 39.9761 754.455 39.9761C754.618 39.9775 754.749 40.1085 754.749 40.2719Z" fill="#FF606B"/>
<path d="M736.636 38.2776C736.636 38.5024 736.457 38.6817 736.236 38.6817C736.013 38.6817 735.833 38.5009 735.833 38.2776C735.833 38.0528 736.013 37.8706 736.236 37.8706C736.457 37.8706 736.636 38.0528 736.636 38.2776Z" fill="#FF606B"/>
<path d="M734.516 39.8735C734.516 40.0177 734.401 40.134 734.258 40.134C734.117 40.134 734.002 40.0177 734.002 39.8735C734.002 39.7308 734.117 39.6145 734.258 39.6145C734.399 39.6145 734.516 39.7308 734.516 39.8735Z" fill="#FF606B"/>
<path d="M736.493 55.8492C736.493 56.0302 736.35 56.1744 736.171 56.1744C735.994 56.1744 735.85 56.0302 735.85 55.8492C735.85 55.6696 735.994 55.5239 736.171 55.5239C736.35 55.5239 736.493 55.6696 736.493 55.8492Z" fill="#FF606B"/>
<path d="M734.587 53.8534C734.587 54.0182 734.454 54.1507 734.294 54.1507C734.131 54.1507 734 54.0168 734 53.8534C734 53.6886 734.133 53.5562 734.294 53.5562C734.456 53.5562 734.587 53.6886 734.587 53.8534Z" fill="#FF606B"/>
<path d="M752.916 55.8489C752.916 56.0737 752.737 56.2559 752.516 56.2559C752.293 56.2559 752.113 56.0737 752.113 55.8489C752.113 55.6241 752.293 55.4448 752.516 55.4448C752.738 55.4434 752.916 55.6241 752.916 55.8489Z" fill="#FF606B"/>
<path d="M754.748 54.2514C754.748 54.3956 754.633 54.5104 754.49 54.5104C754.348 54.5104 754.234 54.3956 754.234 54.2514C754.234 54.1072 754.348 53.9924 754.49 53.9924C754.633 53.9924 754.748 54.1072 754.748 54.2514Z" fill="#FF606B"/>
<path d="M760.414 43.3932C760.143 43.5137 759.867 43.618 759.589 43.7047C756.785 44.5922 753.747 44.4159 750.905 45.1682C750.189 45.3577 749.497 45.606 748.816 45.8896C746.356 46.9211 744.09 48.458 741.689 49.6658C737.597 51.7243 732.975 52.8469 728.38 52.8836C728.234 52.3899 728.102 51.8903 727.997 51.382C727.815 50.4989 727.706 49.5908 727.553 48.699C727.409 47.8658 727.381 47.021 727.428 46.1702C727.459 45.5957 727.525 45.0212 727.61 44.4438C727.671 44.0324 727.751 43.621 727.849 43.2125C729.212 43.1831 730.624 43.4623 732.005 43.4167C732.082 43.4152 732.158 43.4138 732.236 43.4079H732.246C732.412 43.3991 732.577 43.3829 732.741 43.3609C736.372 42.876 738.83 39.5465 741.606 37.1383C744.905 34.2775 749.136 32.5642 753.467 32.2322C753.695 32.3292 753.928 32.4217 754.159 32.5158C754.542 32.6744 754.814 32.9345 754.974 33.2666C755.259 33.5678 755.514 33.9028 755.751 34.1673L755.753 34.1688C757.365 35.9452 758.64 38.0272 759.503 40.2709C759.666 40.6896 759.811 41.1143 759.941 41.5419C760.13 42.1502 760.287 42.7673 760.414 43.3932Z" fill="#FF6D00"/>
<path d="M755.753 34.1672C755.034 34.9357 754.112 35.5587 753.153 35.9598C751.725 36.5593 750.196 36.8355 748.675 37.1485C748.011 37.2851 747.348 37.4291 746.697 37.6098C746.488 37.6686 746.281 37.7303 746.076 37.7979C742.2 39.0557 739.083 41.9238 735.594 44.0337C734.742 44.5465 733.623 45.0123 732.389 45.3767C732.289 45.4061 732.191 45.4355 732.089 45.4619C730.585 45.8822 728.937 46.1481 727.431 46.1687C727.462 45.5956 727.53 45.0197 727.615 44.4407C727.676 44.0293 727.754 43.6179 727.853 43.2094C728.01 42.5365 728.214 41.8694 728.46 41.2126C728.975 39.8373 729.677 38.5458 730.604 37.3674C731.523 36.1963 732.575 35.1414 733.614 34.0746C735.067 32.5862 736.855 31.8471 738.721 31.2623C738.773 31.2462 738.827 31.2315 738.878 31.23C739.415 31.2124 739.938 31.0331 740.463 30.9156C741.578 30.6643 742.692 30.5042 743.787 30.6335C744.388 30.6996 744.987 30.7011 745.59 30.7216C746.007 30.7334 746.429 30.7084 746.847 30.7437C746.879 30.7466 746.911 30.7496 746.943 30.751C747.631 30.8083 748.326 30.8377 749.018 30.8833C749.155 30.8921 749.292 30.9024 749.429 30.9126C750.345 30.9802 751.224 31.1389 752.022 31.5621C752.488 31.8104 752.975 32.0264 753.47 32.2321C753.698 32.3276 753.931 32.4216 754.163 32.5172C754.545 32.6758 754.817 32.9359 754.977 33.268C755.261 33.5677 755.514 33.9027 755.753 34.1672Z" fill="#FFA100"/>
<path d="M760.699 48.4645C760.529 48.488 760.362 48.5086 760.194 48.5247C758.369 48.7143 756.485 48.7157 754.782 49.4078C751.007 50.9403 749.287 55.2557 746.518 58.2664C744.307 60.6687 741.33 62.282 738.191 63.121C738.079 63.1504 737.967 63.1798 737.855 63.2062C737.804 63.1989 737.77 63.1666 737.744 63.1151L737.736 63.1137C737.674 63.0828 737.613 63.0505 737.555 63.0093H737.554C737.491 62.9711 737.427 62.9344 737.353 62.9168C737.308 62.9256 737.26 62.93 737.212 62.9256C737.149 62.9006 737.089 62.8668 737.033 62.8286H737.031C736.969 62.7919 736.906 62.7552 736.835 62.7346C736.788 62.7419 736.739 62.7449 736.691 62.7434C736.606 62.7522 736.55 62.7184 736.512 62.6494H736.51C736.448 62.617 736.388 62.5759 736.323 62.548C736.141 62.5098 735.94 62.5054 735.816 62.3482C735.57 62.2086 735.251 62.1836 735.067 61.9411C734.911 61.9162 734.783 61.8412 734.69 61.7207C734.434 61.5709 734.147 61.4533 733.923 61.2653C733.434 60.8538 732.893 60.488 732.601 59.8841L732.603 59.8753C732.516 59.8738 732.469 59.8283 732.447 59.7474C732.42 59.7122 732.402 59.6696 732.395 59.624C732.351 59.5755 732.303 59.5256 732.252 59.4815C732.222 59.3904 732.193 59.2978 732.163 59.2053C732.038 59.1494 731.993 59.0436 731.984 58.9114C731.955 58.8732 731.938 58.8276 731.934 58.7777C731.813 58.7248 731.766 58.6234 731.759 58.4941C730.871 58.0063 730.298 57.229 729.809 56.368C729.525 55.8684 729.259 55.36 729.036 54.8267C733.136 54.7532 737.218 53.6409 740.789 51.6015C743.634 49.9779 746.148 47.7945 748.814 45.8887C750.304 44.8205 751.844 43.8405 753.515 43.0941C755.567 42.1802 757.734 41.6762 759.938 41.5425C760.127 42.1508 760.285 42.7679 760.411 43.3938C760.469 43.6759 760.519 43.961 760.562 44.2446C760.597 44.4664 760.628 44.6927 760.651 44.9175C760.784 45.2599 760.822 45.6463 760.8 46.0386C760.791 46.1973 760.772 46.3589 760.798 46.5103C760.903 47.1465 760.611 47.8239 760.699 48.4645Z" fill="#FF274F"/>
<path d="M751.94 37.5416C750.303 37.5416 748.916 38.4321 747.681 40.2643C747.099 39.9175 746.228 39.3739 745.502 39.0095C745.523 38.8141 745.531 38.7582 745.53 38.4306C745.233 31.5821 738.778 28.0983 733.497 34.1225L733.526 34.1504C734.089 33.7258 735.393 32.8662 737.251 32.7164C737.893 32.6649 739.318 32.5694 740.831 33.3908C742.5 34.2959 743.222 35.7432 743.452 36.2207C743.867 37.0817 744.014 37.8693 744.07 38.3983C742.193 38.05 740.39 38.5819 739.417 39.8602C739.259 40.0674 738.249 41.4089 738.738 42.8283C738.96 43.4719 739.441 43.9817 740.047 44.2917C740.752 44.6547 741.628 44.7458 742.464 44.4666C743.586 44.0904 744.635 43.0443 745.09 41.0798C745.44 41.2649 746.319 41.7704 746.748 41.9937C745.786 44.1859 744.818 46.7191 743.874 49.0156C743.309 48.8658 742.771 48.7703 742.256 48.7203C736.404 48.1649 733.824 53.763 735.278 56.9559C736.315 58.6794 737.666 59.3494 739.01 59.3244C741.329 59.2818 743.628 57.1763 744.278 54.8518C745.616 50.4835 747.385 47.2201 749.043 42.987C755.187 44.1992 756.238 37.8531 751.94 37.5416ZM743.82 40.5332C743.762 40.6889 743.683 40.8697 743.606 41.0372C743.6 41.0504 743.595 41.0622 743.589 41.0754C743.494 41.2826 743.382 41.4794 743.254 41.6675C743.247 41.6793 743.239 41.691 743.232 41.7013C743.094 41.8967 742.937 42.0804 742.762 42.245C740.351 44.5033 739.652 39.3812 743.82 40.5332ZM741.86 54.0304C740.664 56.6473 739.68 57.6141 738.987 57.6141C736.979 57.6141 737.416 49.4814 742.154 49.9516C742.553 49.9927 742.985 50.0941 743.448 50.266C742.944 51.4591 742.264 53.1136 741.86 54.0304ZM750.404 41.2561C750.252 41.2561 750.101 41.2311 749.95 41.2047C752.461 37.1126 754.496 41.1136 750.404 41.2561Z" fill="white"/>
<path d="M749.739 48.7278C749.714 48.7278 749.714 48.7278 749.714 48.7528C749.387 48.982 747.859 49.3258 746.373 49.2744L745.776 50.6673C745.928 50.6923 747.646 51.6797 749.713 51.1948C750.798 49.721 749.739 48.7278 749.739 48.7278Z" fill="white"/>
<path d="M679 84L679 209" stroke="#CFD3DE"/>
<circle cx="679" cy="199" r="15" fill="#FFEBE6"/>
<g clip-path="url(#clip1_4134_0)">
<path d="M675.611 200.996C674.105 200.996 672.599 200.996 671.093 200.996C670.7 200.996 670.632 200.933 670.632 200.562C670.632 198.177 670.632 195.793 670.632 193.409C670.636 192.742 670.919 192.478 671.599 192.478C674.292 192.478 676.985 192.478 679.673 192.478C680.321 192.478 680.609 192.756 680.609 193.386C680.609 195.78 680.609 198.173 680.609 200.562C680.609 200.924 680.536 200.996 680.175 200.996C678.655 200.996 677.131 200.996 675.611 200.996ZM675.643 198.115C675.643 198.401 675.648 198.647 675.643 198.889C675.639 199.059 675.671 199.206 675.844 199.278C676.017 199.354 676.15 199.264 676.268 199.148C676.944 198.482 677.624 197.82 678.299 197.157C678.519 196.943 678.519 196.795 678.304 196.585C677.624 195.914 676.939 195.247 676.255 194.576C676.145 194.469 676.022 194.379 675.853 194.451C675.68 194.523 675.643 194.666 675.648 194.836C675.652 195.095 675.648 195.35 675.648 195.628C675.534 195.628 675.451 195.628 675.369 195.628C674.653 195.628 673.941 195.628 673.224 195.628C672.909 195.628 672.813 195.721 672.809 196.021C672.809 196.589 672.809 197.153 672.809 197.721C672.809 198.007 672.909 198.115 673.206 198.115C673.904 198.119 674.603 198.115 675.305 198.115C675.406 198.115 675.511 198.115 675.643 198.115Z" fill="#FA5762"/>
<path d="M677.427 201.743C678.733 201.743 680.024 201.743 681.343 201.743C681.343 201.631 681.343 201.546 681.343 201.456C681.343 199.197 681.343 196.938 681.343 194.679C681.343 194.209 681.526 194.026 682.005 194.026C682.804 194.026 683.602 194.017 684.401 194.044C685.104 194.066 685.638 194.411 686.031 194.974C686.533 195.704 687.035 196.433 687.537 197.157C687.801 197.542 687.916 197.967 687.916 198.423C687.916 199.439 687.916 200.45 687.916 201.465C687.916 201.546 687.916 201.626 687.916 201.729C688.116 201.729 688.29 201.725 688.463 201.729C688.705 201.738 688.787 201.819 688.792 202.06C688.796 202.271 688.787 202.476 688.792 202.687C688.796 202.888 688.701 203 688.495 203.004C687.856 203.009 687.217 203.009 686.578 203C686.523 203 686.441 202.919 686.428 202.861C686.158 201.868 685.332 201.215 684.356 201.224C683.374 201.237 682.553 201.886 682.311 202.861C682.279 202.986 682.224 203.009 682.11 203.009C680.823 203.004 679.54 203.009 678.253 203.004C678.189 203.004 678.084 202.946 678.075 202.901C677.984 202.481 677.783 202.123 677.473 201.819C677.45 201.81 677.446 201.787 677.427 201.743ZM684.351 197.645C684.853 197.645 685.355 197.654 685.853 197.641C685.962 197.636 686.126 197.578 686.167 197.497C686.209 197.417 686.163 197.256 686.099 197.162C685.734 196.634 685.35 196.115 684.981 195.587C684.89 195.458 684.78 195.399 684.62 195.399C684.036 195.404 683.452 195.399 682.868 195.404C682.585 195.404 682.507 195.48 682.503 195.766C682.498 196.272 682.498 196.777 682.503 197.283C682.503 197.573 682.58 197.641 682.89 197.645C683.379 197.645 683.867 197.645 684.351 197.645Z" fill="#FA5762"/>
<path d="M685.949 203.313C685.949 204.176 685.237 204.874 684.356 204.874C683.475 204.874 682.758 204.176 682.754 203.317C682.749 202.463 683.466 201.752 684.342 201.743C685.228 201.729 685.953 202.44 685.949 203.313ZM683.566 203.299C683.562 203.733 683.909 204.082 684.347 204.087C684.785 204.091 685.146 203.747 685.146 203.317C685.15 202.888 684.799 202.53 684.36 202.525C683.931 202.521 683.571 202.87 683.566 203.299Z" fill="#FA5762"/>
<path d="M674.401 203.304C674.401 202.445 675.123 201.738 675.994 201.743C676.875 201.747 677.592 202.445 677.592 203.304C677.592 204.176 676.871 204.883 675.985 204.874C675.1 204.865 674.397 204.172 674.401 203.304ZM676.779 203.313C676.779 202.879 676.432 202.53 675.994 202.526C675.561 202.526 675.2 202.874 675.196 203.304C675.191 203.733 675.547 204.087 675.985 204.087C676.432 204.091 676.779 203.747 676.779 203.313Z" fill="#FA5762"/>
<path d="M674.566 201.779C674.237 202.101 674.009 202.481 673.918 202.928C673.908 202.964 673.817 203.009 673.762 203.009C672.79 203.013 671.818 203.013 670.846 203.009C670.618 203.009 670.526 202.915 670.526 202.696C670.522 202.472 670.526 202.248 670.526 202.025C670.526 201.846 670.618 201.738 670.8 201.738C672.037 201.738 673.279 201.738 674.515 201.743C674.525 201.747 674.538 201.761 674.566 201.779Z" fill="#FA5762"/>
<path d="M675.643 198.115C675.51 198.115 675.405 198.115 675.3 198.115C674.602 198.115 673.904 198.115 673.201 198.115C672.909 198.115 672.808 198.007 672.804 197.721C672.804 197.153 672.804 196.589 672.804 196.021C672.804 195.721 672.904 195.628 673.219 195.628C673.936 195.628 674.648 195.628 675.364 195.628C675.446 195.628 675.528 195.628 675.643 195.628C675.643 195.35 675.647 195.091 675.643 194.836C675.638 194.666 675.675 194.523 675.848 194.451C676.017 194.379 676.14 194.469 676.25 194.576C676.934 195.243 677.614 195.914 678.299 196.585C678.513 196.795 678.509 196.947 678.294 197.157C677.619 197.824 676.939 198.486 676.263 199.148C676.145 199.264 676.012 199.354 675.839 199.278C675.665 199.206 675.633 199.059 675.638 198.889C675.647 198.647 675.643 198.401 675.643 198.115Z" fill="#FA5762"/>
</g>
<path d="M710.963 79.6C711.691 79.6 712.323 79.72 712.859 79.96C713.403 80.2 713.819 80.544 714.107 80.992C714.395 81.44 714.539 81.972 714.539 82.588C714.539 83.196 714.395 83.728 714.107 84.184C713.819 84.632 713.403 84.976 712.859 85.216C712.323 85.456 711.691 85.576 710.963 85.576H709.067V88H707.507V79.6H710.963ZM710.891 84.256C711.571 84.256 712.087 84.112 712.439 83.824C712.791 83.536 712.967 83.124 712.967 82.588C712.967 82.052 712.791 81.64 712.439 81.352C712.087 81.064 711.571 80.92 710.891 80.92H709.067V84.256H710.891ZM718.809 88.084C718.161 88.084 717.577 87.944 717.057 87.664C716.537 87.384 716.129 86.996 715.833 86.5C715.545 85.996 715.401 85.428 715.401 84.796C715.401 84.164 715.545 83.6 715.833 83.104C716.129 82.608 716.537 82.22 717.057 81.94C717.577 81.66 718.161 81.52 718.809 81.52C719.465 81.52 720.053 81.66 720.573 81.94C721.093 82.22 721.497 82.608 721.785 83.104C722.081 83.6 722.229 84.164 722.229 84.796C722.229 85.428 722.081 85.996 721.785 86.5C721.497 86.996 721.093 87.384 720.573 87.664C720.053 87.944 719.465 88.084 718.809 88.084ZM718.809 86.8C719.361 86.8 719.817 86.616 720.177 86.248C720.537 85.88 720.717 85.396 720.717 84.796C720.717 84.196 720.537 83.712 720.177 83.344C719.817 82.976 719.361 82.792 718.809 82.792C718.257 82.792 717.801 82.976 717.441 83.344C717.089 83.712 716.913 84.196 716.913 84.796C716.913 85.396 717.089 85.88 717.441 86.248C717.801 86.616 718.257 86.8 718.809 86.8ZM725.644 88.084C725.124 88.084 724.616 88.016 724.12 87.88C723.624 87.744 723.228 87.572 722.932 87.364L723.508 86.224C723.796 86.416 724.14 86.572 724.54 86.692C724.948 86.804 725.348 86.86 725.74 86.86C726.636 86.86 727.084 86.624 727.084 86.152C727.084 85.928 726.968 85.772 726.736 85.684C726.512 85.596 726.148 85.512 725.644 85.432C725.116 85.352 724.684 85.26 724.348 85.156C724.02 85.052 723.732 84.872 723.484 84.616C723.244 84.352 723.124 83.988 723.124 83.524C723.124 82.916 723.376 82.432 723.88 82.072C724.392 81.704 725.08 81.52 725.944 81.52C726.384 81.52 726.824 81.572 727.264 81.676C727.704 81.772 728.064 81.904 728.344 82.072L727.768 83.212C727.224 82.892 726.612 82.732 725.932 82.732C725.492 82.732 725.156 82.8 724.924 82.936C724.7 83.064 724.588 83.236 724.588 83.452C724.588 83.692 724.708 83.864 724.948 83.968C725.196 84.064 725.576 84.156 726.088 84.244C726.6 84.324 727.02 84.416 727.348 84.52C727.676 84.624 727.956 84.8 728.188 85.048C728.428 85.296 728.548 85.648 728.548 86.104C728.548 86.704 728.288 87.184 727.768 87.544C727.248 87.904 726.54 88.084 725.644 88.084ZM733.691 87.652C733.515 87.796 733.299 87.904 733.043 87.976C732.795 88.048 732.531 88.084 732.251 88.084C731.547 88.084 731.003 87.9 730.619 87.532C730.235 87.164 730.043 86.628 730.043 85.924V82.84H728.987V81.64H730.043V80.176H731.543V81.64H733.259V82.84H731.543V85.888C731.543 86.2 731.619 86.44 731.771 86.608C731.923 86.768 732.143 86.848 732.431 86.848C732.767 86.848 733.047 86.76 733.271 86.584L733.691 87.652ZM741.842 79.6C742.57 79.6 743.202 79.72 743.738 79.96C744.282 80.2 744.698 80.544 744.986 80.992C745.274 81.44 745.418 81.972 745.418 82.588C745.418 83.196 745.274 83.728 744.986 84.184C744.698 84.632 744.282 84.976 743.738 85.216C743.202 85.456 742.57 85.576 741.842 85.576H739.946V88H738.386V79.6H741.842ZM741.77 84.256C742.45 84.256 742.966 84.112 743.318 83.824C743.67 83.536 743.846 83.124 743.846 82.588C743.846 82.052 743.67 81.64 743.318 81.352C742.966 81.064 742.45 80.92 741.77 80.92H739.946V84.256H741.77ZM751.017 88.12C750.161 88.12 749.389 87.936 748.701 87.568C748.013 87.192 747.473 86.676 747.081 86.02C746.689 85.356 746.493 84.616 746.493 83.8C746.493 82.984 746.689 82.248 747.081 81.592C747.473 80.928 748.013 80.412 748.701 80.044C749.389 79.668 750.161 79.48 751.017 79.48C751.873 79.48 752.645 79.668 753.333 80.044C754.021 80.412 754.561 80.924 754.953 81.58C755.345 82.236 755.541 82.976 755.541 83.8C755.541 84.624 755.345 85.364 754.953 86.02C754.561 86.676 754.021 87.192 753.333 87.568C752.645 87.936 751.873 88.12 751.017 88.12ZM751.017 86.752C751.577 86.752 752.081 86.628 752.529 86.38C752.977 86.124 753.329 85.772 753.585 85.324C753.841 84.868 753.969 84.36 753.969 83.8C753.969 83.24 753.841 82.736 753.585 82.288C753.329 81.832 752.977 81.48 752.529 81.232C752.081 80.976 751.577 80.848 751.017 80.848C750.457 80.848 749.953 80.976 749.505 81.232C749.057 81.48 748.705 81.832 748.449 82.288C748.193 82.736 748.065 83.24 748.065 83.8C748.065 84.36 748.193 84.868 748.449 85.324C748.705 85.772 749.057 86.124 749.505 86.38C749.953 86.628 750.457 86.752 751.017 86.752ZM763.115 88.12C762.467 88.12 761.839 88.028 761.231 87.844C760.631 87.66 760.155 87.416 759.803 87.112L760.343 85.9C760.687 86.172 761.107 86.396 761.603 86.572C762.107 86.74 762.611 86.824 763.115 86.824C763.739 86.824 764.203 86.724 764.507 86.524C764.819 86.324 764.975 86.06 764.975 85.732C764.975 85.492 764.887 85.296 764.711 85.144C764.543 84.984 764.327 84.86 764.063 84.772C763.799 84.684 763.439 84.584 762.983 84.472C762.343 84.32 761.823 84.168 761.423 84.016C761.031 83.864 760.691 83.628 760.403 83.308C760.123 82.98 759.983 82.54 759.983 81.988C759.983 81.524 760.107 81.104 760.355 80.728C760.611 80.344 760.991 80.04 761.495 79.816C762.007 79.592 762.631 79.48 763.367 79.48C763.879 79.48 764.383 79.544 764.879 79.672C765.375 79.8 765.803 79.984 766.163 80.224L765.671 81.436C765.303 81.22 764.919 81.056 764.519 80.944C764.119 80.832 763.731 80.776 763.355 80.776C762.739 80.776 762.279 80.88 761.975 81.088C761.679 81.296 761.531 81.572 761.531 81.916C761.531 82.156 761.615 82.352 761.783 82.504C761.959 82.656 762.179 82.776 762.443 82.864C762.707 82.952 763.067 83.052 763.523 83.164C764.147 83.308 764.659 83.46 765.059 83.62C765.459 83.772 765.799 84.008 766.079 84.328C766.367 84.648 766.511 85.08 766.511 85.624C766.511 86.088 766.383 86.508 766.127 86.884C765.879 87.26 765.499 87.56 764.987 87.784C764.475 88.008 763.851 88.12 763.115 88.12ZM770.362 81.52C771.306 81.52 772.026 81.748 772.522 82.204C773.026 82.652 773.278 83.332 773.278 84.244V88H771.862V87.22C771.678 87.5 771.414 87.716 771.07 87.868C770.734 88.012 770.326 88.084 769.846 88.084C769.366 88.084 768.946 88.004 768.586 87.844C768.226 87.676 767.946 87.448 767.746 87.16C767.554 86.864 767.458 86.532 767.458 86.164C767.458 85.588 767.67 85.128 768.094 84.784C768.526 84.432 769.202 84.256 770.122 84.256H771.778V84.16C771.778 83.712 771.642 83.368 771.37 83.128C771.106 82.888 770.71 82.768 770.182 82.768C769.822 82.768 769.466 82.824 769.114 82.936C768.77 83.048 768.478 83.204 768.238 83.404L767.65 82.312C767.986 82.056 768.39 81.86 768.862 81.724C769.334 81.588 769.834 81.52 770.362 81.52ZM770.158 86.992C770.534 86.992 770.866 86.908 771.154 86.74C771.45 86.564 771.658 86.316 771.778 85.996V85.252H770.23C769.366 85.252 768.934 85.536 768.934 86.104C768.934 86.376 769.042 86.592 769.258 86.752C769.474 86.912 769.774 86.992 770.158 86.992ZM783.291 81.52C784.099 81.52 784.739 81.756 785.211 82.228C785.683 82.692 785.919 83.392 785.919 84.328V88H784.419V84.52C784.419 83.96 784.295 83.54 784.047 83.26C783.799 82.972 783.443 82.828 782.979 82.828C782.475 82.828 782.071 82.996 781.767 83.332C781.463 83.66 781.311 84.132 781.311 84.748V88H779.811V84.52C779.811 83.96 779.687 83.54 779.439 83.26C779.191 82.972 778.835 82.828 778.371 82.828C777.859 82.828 777.451 82.992 777.147 83.32C776.851 83.648 776.703 84.124 776.703 84.748V88H775.203V81.592H776.631V82.408C776.871 82.12 777.171 81.9 777.531 81.748C777.891 81.596 778.291 81.52 778.731 81.52C779.211 81.52 779.635 81.612 780.003 81.796C780.379 81.972 780.675 82.236 780.891 82.588C781.155 82.252 781.495 81.992 781.911 81.808C782.327 81.616 782.787 81.52 783.291 81.52ZM791.388 81.52C792.012 81.52 792.568 81.656 793.056 81.928C793.552 82.2 793.94 82.584 794.22 83.08C794.5 83.576 794.64 84.148 794.64 84.796C794.64 85.444 794.5 86.02 794.22 86.524C793.94 87.02 793.552 87.404 793.056 87.676C792.568 87.948 792.012 88.084 791.388 88.084C790.524 88.084 789.84 87.796 789.336 87.22V90.328H787.836V81.592H789.264V82.432C789.512 82.128 789.816 81.9 790.176 81.748C790.544 81.596 790.948 81.52 791.388 81.52ZM791.22 86.8C791.772 86.8 792.224 86.616 792.576 86.248C792.936 85.88 793.116 85.396 793.116 84.796C793.116 84.196 792.936 83.712 792.576 83.344C792.224 82.976 791.772 82.792 791.22 82.792C790.86 82.792 790.536 82.876 790.248 83.044C789.96 83.204 789.732 83.436 789.564 83.74C789.396 84.044 789.312 84.396 789.312 84.796C789.312 85.196 789.396 85.548 789.564 85.852C789.732 86.156 789.96 86.392 790.248 86.56C790.536 86.72 790.86 86.8 791.22 86.8ZM796.062 79.096H797.562V88H796.062V79.096ZM799.531 81.592H801.031V88H799.531V81.592ZM800.287 80.536C800.015 80.536 799.787 80.452 799.603 80.284C799.419 80.108 799.327 79.892 799.327 79.636C799.327 79.38 799.419 79.168 799.603 79C799.787 78.824 800.015 78.736 800.287 78.736C800.559 78.736 800.787 78.82 800.971 78.988C801.155 79.148 801.247 79.352 801.247 79.6C801.247 79.864 801.155 80.088 800.971 80.272C800.795 80.448 800.567 80.536 800.287 80.536ZM806.636 81.52C807.444 81.52 808.092 81.756 808.58 82.228C809.068 82.7 809.312 83.4 809.312 84.328V88H807.812V84.52C807.812 83.96 807.68 83.54 807.416 83.26C807.152 82.972 806.776 82.828 806.288 82.828C805.736 82.828 805.3 82.996 804.98 83.332C804.66 83.66 804.5 84.136 804.5 84.76V88H803V81.592H804.428V82.42C804.676 82.124 804.988 81.9 805.364 81.748C805.74 81.596 806.164 81.52 806.636 81.52ZM817.633 81.592V87.028C817.633 89.284 816.481 90.412 814.177 90.412C813.561 90.412 812.977 90.332 812.425 90.172C811.873 90.02 811.417 89.796 811.057 89.5L811.729 88.372C812.009 88.604 812.361 88.788 812.785 88.924C813.217 89.068 813.653 89.14 814.093 89.14C814.797 89.14 815.313 88.98 815.641 88.66C815.969 88.34 816.133 87.852 816.133 87.196V86.86C815.877 87.14 815.565 87.352 815.197 87.496C814.829 87.64 814.425 87.712 813.985 87.712C813.377 87.712 812.825 87.584 812.329 87.328C811.841 87.064 811.453 86.696 811.165 86.224C810.885 85.752 810.745 85.212 810.745 84.604C810.745 83.996 810.885 83.46 811.165 82.996C811.453 82.524 811.841 82.16 812.329 81.904C812.825 81.648 813.377 81.52 813.985 81.52C814.449 81.52 814.869 81.596 815.245 81.748C815.629 81.9 815.949 82.132 816.205 82.444V81.592H817.633ZM814.213 86.44C814.781 86.44 815.245 86.272 815.605 85.936C815.973 85.592 816.157 85.148 816.157 84.604C816.157 84.068 815.973 83.632 815.605 83.296C815.245 82.96 814.781 82.792 814.213 82.792C813.637 82.792 813.165 82.96 812.797 83.296C812.437 83.632 812.257 84.068 812.257 84.604C812.257 85.148 812.437 85.592 812.797 85.936C813.165 86.272 813.637 86.44 814.213 86.44Z" fill="#64728C"/>
<path d="M711.008 141.6C711.736 141.6 712.368 141.72 712.904 141.96C713.448 142.2 713.864 142.544 714.152 142.992C714.44 143.44 714.584 143.972 714.584 144.588C714.584 145.196 714.44 145.728 714.152 146.184C713.864 146.632 713.448 146.976 712.904 147.216C712.368 147.456 711.736 147.576 711.008 147.576H709.112V150H707.552V141.6H711.008ZM710.936 146.256C711.616 146.256 712.132 146.112 712.484 145.824C712.836 145.536 713.012 145.124 713.012 144.588C713.012 144.052 712.836 143.64 712.484 143.352C712.132 143.064 711.616 142.92 710.936 142.92H709.112V146.256H710.936ZM717.367 144.528C717.799 143.856 718.559 143.52 719.647 143.52V144.948C719.519 144.924 719.403 144.912 719.299 144.912C718.715 144.912 718.259 145.084 717.931 145.428C717.603 145.764 717.439 146.252 717.439 146.892V150H715.939V143.592H717.367V144.528ZM723.741 150.084C723.093 150.084 722.509 149.944 721.989 149.664C721.469 149.384 721.061 148.996 720.765 148.5C720.477 147.996 720.333 147.428 720.333 146.796C720.333 146.164 720.477 145.6 720.765 145.104C721.061 144.608 721.469 144.22 721.989 143.94C722.509 143.66 723.093 143.52 723.741 143.52C724.397 143.52 724.985 143.66 725.505 143.94C726.025 144.22 726.429 144.608 726.717 145.104C727.013 145.6 727.161 146.164 727.161 146.796C727.161 147.428 727.013 147.996 726.717 148.5C726.429 148.996 726.025 149.384 725.505 149.664C724.985 149.944 724.397 150.084 723.741 150.084ZM723.741 148.8C724.293 148.8 724.749 148.616 725.109 148.248C725.469 147.88 725.649 147.396 725.649 146.796C725.649 146.196 725.469 145.712 725.109 145.344C724.749 144.976 724.293 144.792 723.741 144.792C723.189 144.792 722.733 144.976 722.373 145.344C722.021 145.712 721.845 146.196 721.845 146.796C721.845 147.396 722.021 147.88 722.373 148.248C722.733 148.616 723.189 148.8 723.741 148.8ZM734.871 141.096V150H733.431V149.172C733.183 149.476 732.875 149.704 732.507 149.856C732.147 150.008 731.747 150.084 731.307 150.084C730.691 150.084 730.135 149.948 729.639 149.676C729.151 149.404 728.767 149.02 728.487 148.524C728.207 148.02 728.067 147.444 728.067 146.796C728.067 146.148 728.207 145.576 728.487 145.08C728.767 144.584 729.151 144.2 729.639 143.928C730.135 143.656 730.691 143.52 731.307 143.52C731.731 143.52 732.119 143.592 732.471 143.736C732.823 143.88 733.123 144.096 733.371 144.384V141.096H734.871ZM731.487 148.8C731.847 148.8 732.171 148.72 732.459 148.56C732.747 148.392 732.975 148.156 733.143 147.852C733.311 147.548 733.395 147.196 733.395 146.796C733.395 146.396 733.311 146.044 733.143 145.74C732.975 145.436 732.747 145.204 732.459 145.044C732.171 144.876 731.847 144.792 731.487 144.792C731.127 144.792 730.803 144.876 730.515 145.044C730.227 145.204 729.999 145.436 729.831 145.74C729.663 146.044 729.579 146.396 729.579 146.796C729.579 147.196 729.663 147.548 729.831 147.852C729.999 148.156 730.227 148.392 730.515 148.56C730.803 148.72 731.127 148.8 731.487 148.8ZM743.038 143.592V150H741.61V149.184C741.37 149.472 741.07 149.696 740.71 149.856C740.35 150.008 739.962 150.084 739.546 150.084C738.69 150.084 738.014 149.848 737.518 149.376C737.03 148.896 736.786 148.188 736.786 147.252V143.592H738.286V147.048C738.286 147.624 738.414 148.056 738.67 148.344C738.934 148.624 739.306 148.764 739.786 148.764C740.322 148.764 740.746 148.6 741.058 148.272C741.378 147.936 741.538 147.456 741.538 146.832V143.592H743.038ZM747.942 150.084C747.278 150.084 746.682 149.944 746.154 149.664C745.626 149.384 745.214 148.996 744.918 148.5C744.622 147.996 744.474 147.428 744.474 146.796C744.474 146.164 744.622 145.6 744.918 145.104C745.214 144.608 745.622 144.22 746.142 143.94C746.67 143.66 747.27 143.52 747.942 143.52C748.574 143.52 749.126 143.648 749.598 143.904C750.078 144.16 750.438 144.528 750.678 145.008L749.526 145.68C749.342 145.384 749.11 145.164 748.83 145.02C748.558 144.868 748.258 144.792 747.93 144.792C747.37 144.792 746.906 144.976 746.538 145.344C746.17 145.704 745.986 146.188 745.986 146.796C745.986 147.404 746.166 147.892 746.526 148.26C746.894 148.62 747.362 148.8 747.93 148.8C748.258 148.8 748.558 148.728 748.83 148.584C749.11 148.432 749.342 148.208 749.526 147.912L750.678 148.584C750.43 149.064 750.066 149.436 749.586 149.7C749.114 149.956 748.566 150.084 747.942 150.084ZM755.908 149.652C755.732 149.796 755.516 149.904 755.26 149.976C755.012 150.048 754.748 150.084 754.468 150.084C753.764 150.084 753.22 149.9 752.836 149.532C752.452 149.164 752.26 148.628 752.26 147.924V144.84H751.204V143.64H752.26V142.176H753.76V143.64H755.476V144.84H753.76V147.888C753.76 148.2 753.836 148.44 753.988 148.608C754.14 148.768 754.36 148.848 754.648 148.848C754.984 148.848 755.264 148.76 755.488 148.584L755.908 149.652ZM757.142 143.592H758.642V150H757.142V143.592ZM757.898 142.536C757.626 142.536 757.398 142.452 757.214 142.284C757.03 142.108 756.938 141.892 756.938 141.636C756.938 141.38 757.03 141.168 757.214 141C757.398 140.824 757.626 140.736 757.898 140.736C758.17 140.736 758.398 140.82 758.582 140.988C758.766 141.148 758.858 141.352 758.858 141.6C758.858 141.864 758.766 142.088 758.582 142.272C758.406 142.448 758.178 142.536 757.898 142.536ZM763.491 150.084C762.843 150.084 762.259 149.944 761.739 149.664C761.219 149.384 760.811 148.996 760.515 148.5C760.227 147.996 760.083 147.428 760.083 146.796C760.083 146.164 760.227 145.6 760.515 145.104C760.811 144.608 761.219 144.22 761.739 143.94C762.259 143.66 762.843 143.52 763.491 143.52C764.147 143.52 764.735 143.66 765.255 143.94C765.775 144.22 766.179 144.608 766.467 145.104C766.763 145.6 766.911 146.164 766.911 146.796C766.911 147.428 766.763 147.996 766.467 148.5C766.179 148.996 765.775 149.384 765.255 149.664C764.735 149.944 764.147 150.084 763.491 150.084ZM763.491 148.8C764.043 148.8 764.499 148.616 764.859 148.248C765.219 147.88 765.399 147.396 765.399 146.796C765.399 146.196 765.219 145.712 764.859 145.344C764.499 144.976 764.043 144.792 763.491 144.792C762.939 144.792 762.483 144.976 762.123 145.344C761.771 145.712 761.595 146.196 761.595 146.796C761.595 147.396 761.771 147.88 762.123 148.248C762.483 148.616 762.939 148.8 763.491 148.8ZM771.981 143.52C772.789 143.52 773.437 143.756 773.925 144.228C774.413 144.7 774.657 145.4 774.657 146.328V150H773.157V146.52C773.157 145.96 773.025 145.54 772.761 145.26C772.497 144.972 772.121 144.828 771.633 144.828C771.081 144.828 770.645 144.996 770.325 145.332C770.005 145.66 769.845 146.136 769.845 146.76V150H768.345V143.592H769.773V144.42C770.021 144.124 770.333 143.9 770.709 143.748C771.085 143.596 771.509 143.52 771.981 143.52Z" fill="#64728C"/>
<path d="M708.358 196.6H709.918V203.68H714.31V205H708.358V196.6ZM718.219 205.084C717.571 205.084 716.987 204.944 716.467 204.664C715.947 204.384 715.539 203.996 715.243 203.5C714.955 202.996 714.811 202.428 714.811 201.796C714.811 201.164 714.955 200.6 715.243 200.104C715.539 199.608 715.947 199.22 716.467 198.94C716.987 198.66 717.571 198.52 718.219 198.52C718.875 198.52 719.463 198.66 719.983 198.94C720.503 199.22 720.907 199.608 721.195 200.104C721.491 200.6 721.639 201.164 721.639 201.796C721.639 202.428 721.491 202.996 721.195 203.5C720.907 203.996 720.503 204.384 719.983 204.664C719.463 204.944 718.875 205.084 718.219 205.084ZM718.219 203.8C718.771 203.8 719.227 203.616 719.587 203.248C719.947 202.88 720.127 202.396 720.127 201.796C720.127 201.196 719.947 200.712 719.587 200.344C719.227 199.976 718.771 199.792 718.219 199.792C717.667 199.792 717.211 199.976 716.851 200.344C716.499 200.712 716.323 201.196 716.323 201.796C716.323 202.396 716.499 202.88 716.851 203.248C717.211 203.616 717.667 203.8 718.219 203.8ZM729.434 198.592V204.028C729.434 206.284 728.282 207.412 725.978 207.412C725.362 207.412 724.778 207.332 724.226 207.172C723.674 207.02 723.218 206.796 722.858 206.5L723.53 205.372C723.81 205.604 724.162 205.788 724.586 205.924C725.018 206.068 725.454 206.14 725.894 206.14C726.598 206.14 727.114 205.98 727.442 205.66C727.77 205.34 727.934 204.852 727.934 204.196V203.86C727.678 204.14 727.366 204.352 726.998 204.496C726.63 204.64 726.226 204.712 725.786 204.712C725.178 204.712 724.626 204.584 724.13 204.328C723.642 204.064 723.254 203.696 722.966 203.224C722.686 202.752 722.546 202.212 722.546 201.604C722.546 200.996 722.686 200.46 722.966 199.996C723.254 199.524 723.642 199.16 724.13 198.904C724.626 198.648 725.178 198.52 725.786 198.52C726.25 198.52 726.67 198.596 727.046 198.748C727.43 198.9 727.75 199.132 728.006 199.444V198.592H729.434ZM726.014 203.44C726.582 203.44 727.046 203.272 727.406 202.936C727.774 202.592 727.958 202.148 727.958 201.604C727.958 201.068 727.774 200.632 727.406 200.296C727.046 199.96 726.582 199.792 726.014 199.792C725.438 199.792 724.966 199.96 724.598 200.296C724.238 200.632 724.058 201.068 724.058 201.604C724.058 202.148 724.238 202.592 724.598 202.936C724.966 203.272 725.438 203.44 726.014 203.44ZM731.406 198.592H732.906V205H731.406V198.592ZM732.162 197.536C731.89 197.536 731.662 197.452 731.478 197.284C731.294 197.108 731.202 196.892 731.202 196.636C731.202 196.38 731.294 196.168 731.478 196C731.662 195.824 731.89 195.736 732.162 195.736C732.434 195.736 732.662 195.82 732.846 195.988C733.03 196.148 733.122 196.352 733.122 196.6C733.122 196.864 733.03 197.088 732.846 197.272C732.67 197.448 732.442 197.536 732.162 197.536ZM736.855 205.084C736.335 205.084 735.827 205.016 735.331 204.88C734.835 204.744 734.439 204.572 734.143 204.364L734.719 203.224C735.007 203.416 735.351 203.572 735.751 203.692C736.159 203.804 736.559 203.86 736.951 203.86C737.847 203.86 738.295 203.624 738.295 203.152C738.295 202.928 738.179 202.772 737.947 202.684C737.723 202.596 737.359 202.512 736.855 202.432C736.327 202.352 735.895 202.26 735.559 202.156C735.231 202.052 734.943 201.872 734.695 201.616C734.455 201.352 734.335 200.988 734.335 200.524C734.335 199.916 734.587 199.432 735.091 199.072C735.603 198.704 736.291 198.52 737.155 198.52C737.595 198.52 738.035 198.572 738.475 198.676C738.915 198.772 739.275 198.904 739.555 199.072L738.979 200.212C738.435 199.892 737.823 199.732 737.143 199.732C736.703 199.732 736.367 199.8 736.135 199.936C735.911 200.064 735.799 200.236 735.799 200.452C735.799 200.692 735.919 200.864 736.159 200.968C736.407 201.064 736.787 201.156 737.299 201.244C737.811 201.324 738.231 201.416 738.559 201.52C738.887 201.624 739.167 201.8 739.399 202.048C739.639 202.296 739.759 202.648 739.759 203.104C739.759 203.704 739.499 204.184 738.979 204.544C738.459 204.904 737.751 205.084 736.855 205.084ZM744.902 204.652C744.726 204.796 744.51 204.904 744.254 204.976C744.006 205.048 743.742 205.084 743.462 205.084C742.758 205.084 742.214 204.9 741.83 204.532C741.446 204.164 741.254 203.628 741.254 202.924V199.84H740.198V198.64H741.254V197.176H742.754V198.64H744.47V199.84H742.754V202.888C742.754 203.2 742.83 203.44 742.982 203.608C743.134 203.768 743.354 203.848 743.642 203.848C743.978 203.848 744.258 203.76 744.482 203.584L744.902 204.652ZM746.136 198.592H747.636V205H746.136V198.592ZM746.892 197.536C746.62 197.536 746.392 197.452 746.208 197.284C746.024 197.108 745.932 196.892 745.932 196.636C745.932 196.38 746.024 196.168 746.208 196C746.392 195.824 746.62 195.736 746.892 195.736C747.164 195.736 747.392 195.82 747.576 195.988C747.76 196.148 747.852 196.352 747.852 196.6C747.852 196.864 747.76 197.088 747.576 197.272C747.4 197.448 747.172 197.536 746.892 197.536ZM752.545 205.084C751.881 205.084 751.285 204.944 750.757 204.664C750.229 204.384 749.817 203.996 749.521 203.5C749.225 202.996 749.077 202.428 749.077 201.796C749.077 201.164 749.225 200.6 749.521 200.104C749.817 199.608 750.225 199.22 750.745 198.94C751.273 198.66 751.873 198.52 752.545 198.52C753.177 198.52 753.729 198.648 754.201 198.904C754.681 199.16 755.041 199.528 755.281 200.008L754.129 200.68C753.945 200.384 753.713 200.164 753.433 200.02C753.161 199.868 752.861 199.792 752.533 199.792C751.973 199.792 751.509 199.976 751.141 200.344C750.773 200.704 750.589 201.188 750.589 201.796C750.589 202.404 750.769 202.892 751.129 203.26C751.497 203.62 751.965 203.8 752.533 203.8C752.861 203.8 753.161 203.728 753.433 203.584C753.713 203.432 753.945 203.208 754.129 202.912L755.281 203.584C755.033 204.064 754.669 204.436 754.189 204.7C753.717 204.956 753.169 205.084 752.545 205.084ZM758.558 205.084C758.038 205.084 757.53 205.016 757.034 204.88C756.538 204.744 756.142 204.572 755.846 204.364L756.422 203.224C756.71 203.416 757.054 203.572 757.454 203.692C757.862 203.804 758.262 203.86 758.654 203.86C759.55 203.86 759.998 203.624 759.998 203.152C759.998 202.928 759.882 202.772 759.65 202.684C759.426 202.596 759.062 202.512 758.558 202.432C758.03 202.352 757.598 202.26 757.262 202.156C756.934 202.052 756.646 201.872 756.398 201.616C756.158 201.352 756.038 200.988 756.038 200.524C756.038 199.916 756.29 199.432 756.794 199.072C757.306 198.704 757.994 198.52 758.858 198.52C759.298 198.52 759.738 198.572 760.178 198.676C760.618 198.772 760.978 198.904 761.258 199.072L760.682 200.212C760.138 199.892 759.526 199.732 758.846 199.732C758.406 199.732 758.07 199.8 757.838 199.936C757.614 200.064 757.502 200.236 757.502 200.452C757.502 200.692 757.622 200.864 757.862 200.968C758.11 201.064 758.49 201.156 759.002 201.244C759.514 201.324 759.934 201.416 760.262 201.52C760.59 201.624 760.87 201.8 761.102 202.048C761.342 202.296 761.462 202.648 761.462 203.104C761.462 203.704 761.202 204.184 760.682 204.544C760.162 204.904 759.454 205.084 758.558 205.084Z" fill="#64728C"/>
<circle cx="679" cy="144" r="15" fill="#FFEBE6"/>
<path d="M681.162 137.428C681.162 137.567 681.11 137.688 681.042 137.792C680.905 137.966 680.785 138.122 680.648 138.296C680.614 138.348 680.614 138.383 680.631 138.435C680.802 138.73 680.922 139.059 681.008 139.389C681.025 139.458 681.059 139.493 681.128 139.493C681.333 139.511 681.556 139.545 681.762 139.563C682.036 139.597 682.224 139.806 682.241 140.083C682.241 140.517 682.241 140.968 682.241 141.402C682.241 141.68 682.036 141.888 681.779 141.905C681.556 141.94 681.35 141.957 681.128 141.975C681.059 141.975 681.025 142.01 680.991 142.079C680.905 142.409 680.768 142.738 680.596 143.033C680.562 143.103 680.562 143.138 680.614 143.19C680.751 143.363 680.905 143.554 681.042 143.728C681.23 143.971 681.213 144.248 681.008 144.474C680.716 144.769 680.425 145.064 680.134 145.359C679.911 145.567 679.637 145.585 679.397 145.411C679.209 145.272 679.037 145.116 678.849 144.977C678.797 144.925 678.763 144.925 678.695 144.96C678.386 145.133 678.061 145.272 677.718 145.359C677.649 145.376 677.632 145.411 677.615 145.48C677.598 145.723 677.564 145.949 677.529 146.192C677.495 146.487 677.272 146.678 676.981 146.678C676.57 146.678 676.142 146.678 675.73 146.678C675.456 146.678 675.233 146.504 675.199 146.227C675.165 145.984 675.131 145.723 675.113 145.463C675.113 145.394 675.096 145.342 675.011 145.324C674.702 145.237 674.411 145.116 674.137 144.942C674.068 144.89 674.017 144.908 673.948 144.96C673.777 145.116 673.589 145.255 673.4 145.394C673.16 145.585 672.869 145.567 672.646 145.342C672.355 145.047 672.081 144.769 671.789 144.474C671.567 144.248 671.55 143.953 671.755 143.71C671.909 143.519 672.046 143.328 672.201 143.138C672.235 143.086 672.252 143.051 672.218 142.999C672.064 142.721 671.944 142.426 671.858 142.131C671.841 142.062 671.807 142.044 671.738 142.044C671.498 142.01 671.241 141.992 671.001 141.957C670.71 141.923 670.521 141.697 670.521 141.402C670.521 140.986 670.521 140.552 670.521 140.135C670.521 139.84 670.71 139.632 671.001 139.597C671.224 139.563 671.447 139.545 671.669 139.528C671.738 139.528 671.772 139.493 671.789 139.424C671.875 139.094 671.995 138.782 672.166 138.469C672.201 138.4 672.184 138.365 672.149 138.296C672.012 138.14 671.892 137.966 671.755 137.792C671.55 137.515 671.55 137.255 671.789 136.994C672.064 136.699 672.355 136.422 672.629 136.144C672.852 135.918 673.126 135.901 673.383 136.109C673.537 136.231 673.708 136.369 673.863 136.491C673.914 136.543 673.965 136.543 674.034 136.508C674.36 136.317 674.685 136.179 675.045 136.074C675.113 136.057 675.148 136.022 675.148 135.953C675.165 135.727 675.199 135.519 675.233 135.293C675.285 135.016 675.49 134.842 675.765 134.842C676.193 134.842 676.604 134.842 677.033 134.842C677.324 134.842 677.547 135.051 677.564 135.363C677.581 135.571 677.615 135.762 677.632 135.97C677.632 136.04 677.666 136.074 677.735 136.092C678.078 136.196 678.403 136.317 678.712 136.508C678.78 136.56 678.832 136.543 678.9 136.491C679.054 136.369 679.209 136.248 679.363 136.126C679.603 135.936 679.894 135.953 680.1 136.161C680.391 136.456 680.682 136.751 680.973 137.046C681.11 137.15 681.162 137.272 681.162 137.428ZM673.811 140.708C673.811 142.183 674.994 143.363 676.433 143.363C677.872 143.363 679.054 142.166 679.054 140.708C679.054 139.25 677.872 138.053 676.433 138.053C675.011 138.053 673.811 139.25 673.811 140.708Z" fill="#F05A64"/>
<path d="M688.461 149.42C688.375 149.42 688.272 149.385 688.17 149.333C688.033 149.246 687.913 149.16 687.776 149.073C687.724 149.038 687.673 149.021 687.604 149.073C687.381 149.229 687.142 149.35 686.885 149.437C686.816 149.455 686.782 149.507 686.782 149.576C686.782 149.732 686.782 149.871 686.765 150.027C686.747 150.357 686.559 150.548 686.251 150.583C685.959 150.617 685.685 150.635 685.394 150.652C685.137 150.669 684.914 150.496 684.863 150.253C684.828 150.079 684.794 149.906 684.76 149.732C684.743 149.663 684.726 149.628 684.64 149.611C684.4 149.559 684.16 149.472 683.92 149.368C683.852 149.333 683.817 149.35 683.766 149.385C683.663 149.489 683.543 149.611 683.423 149.715C683.184 149.94 682.909 149.94 682.669 149.732C682.464 149.559 682.258 149.385 682.053 149.194C681.813 148.986 681.779 148.726 681.933 148.448C682.018 148.309 682.121 148.153 682.207 148.014C682.241 147.962 682.241 147.927 682.207 147.875C682.07 147.667 681.95 147.441 681.864 147.216C681.847 147.164 681.813 147.129 681.744 147.129C681.59 147.129 681.419 147.112 681.264 147.112C680.956 147.094 680.75 146.904 680.716 146.609C680.682 146.313 680.665 146.036 680.648 145.741C680.631 145.463 680.802 145.238 681.076 145.168C681.23 145.133 681.367 145.099 681.522 145.081C681.59 145.064 681.624 145.047 681.624 144.977C681.676 144.7 681.744 144.439 681.864 144.196C681.898 144.127 681.881 144.092 681.83 144.057C681.727 143.936 681.607 143.832 681.504 143.71C681.316 143.502 681.316 143.207 681.487 142.999C681.659 142.773 681.847 142.548 682.036 142.339C682.241 142.096 682.515 142.062 682.772 142.235C682.892 142.305 682.995 142.391 683.115 142.461C683.166 142.496 683.218 142.513 683.269 142.461C683.509 142.287 683.766 142.148 684.04 142.044C684.109 142.01 684.143 141.975 684.143 141.888C684.143 141.767 684.143 141.628 684.143 141.506C684.16 141.194 684.366 140.986 684.657 140.968C684.897 140.951 685.154 140.934 685.394 140.899C685.771 140.864 685.994 141.02 686.079 141.385C686.113 141.506 686.131 141.628 686.148 141.732C686.165 141.801 686.182 141.836 686.251 141.836C686.542 141.888 686.816 141.975 687.073 142.096C687.124 142.114 687.159 142.114 687.21 142.079C687.313 141.975 687.416 141.888 687.518 141.784C687.724 141.593 688.015 141.576 688.221 141.767C688.444 141.958 688.649 142.131 688.872 142.322C689.112 142.53 689.146 142.791 688.975 143.068C688.906 143.19 688.821 143.311 688.735 143.415C688.701 143.467 688.701 143.502 688.735 143.554C688.889 143.78 689.009 144.04 689.112 144.3C689.129 144.352 689.163 144.37 689.215 144.37C689.386 144.37 689.557 144.37 689.729 144.387C689.952 144.422 690.14 144.595 690.157 144.821C690.191 145.133 690.226 145.463 690.243 145.776C690.26 146.018 690.089 146.244 689.849 146.313C689.695 146.348 689.54 146.383 689.386 146.418C689.318 146.435 689.283 146.452 689.283 146.522C689.232 146.782 689.146 147.042 689.043 147.285C689.009 147.355 689.026 147.407 689.078 147.459C689.181 147.563 689.266 147.667 689.369 147.771C689.592 147.997 689.592 148.292 689.403 148.535C689.215 148.76 689.043 148.969 688.855 149.194C688.769 149.35 688.632 149.42 688.461 149.42ZM687.57 145.758C687.57 144.595 686.662 143.658 685.531 143.658C684.4 143.658 683.458 144.578 683.458 145.723C683.458 146.886 684.383 147.823 685.514 147.823C686.645 147.823 687.553 146.886 687.57 145.758Z" fill="#F05A64"/>
<path d="M681.47 148.5C681.487 148.674 681.384 148.812 681.282 148.934C681.162 149.038 681.144 149.142 681.23 149.281C681.316 149.42 681.367 149.593 681.401 149.767C681.419 149.836 681.453 149.854 681.504 149.854C681.59 149.854 681.693 149.871 681.778 149.888C682.035 149.941 682.207 150.149 682.224 150.409C682.224 150.6 682.224 150.791 682.224 150.982C682.207 151.259 682.018 151.485 681.744 151.502C681.487 151.502 681.333 151.589 681.282 151.849C681.264 151.971 681.179 152.092 681.11 152.214C681.076 152.266 681.076 152.301 681.127 152.353C681.196 152.422 681.247 152.509 681.299 152.578C681.47 152.804 681.453 153.082 681.247 153.29C681.127 153.411 680.99 153.55 680.87 153.672C680.648 153.88 680.356 153.897 680.151 153.706C679.962 153.515 679.791 153.463 679.551 153.62C679.448 153.689 679.311 153.724 679.191 153.741C679.123 153.758 679.088 153.793 679.088 153.863C679.071 153.949 679.071 154.036 679.054 154.123C679.02 154.418 678.814 154.626 678.523 154.626C678.352 154.626 678.163 154.626 677.992 154.626C677.7 154.609 677.512 154.435 677.461 154.14C677.443 154.053 677.426 153.949 677.426 153.863C677.426 153.758 677.392 153.724 677.306 153.706C677.135 153.654 676.964 153.568 676.792 153.481C676.741 153.446 676.69 153.446 676.638 153.498C676.57 153.568 676.484 153.62 676.398 153.689C676.158 153.863 675.884 153.845 675.679 153.637C675.559 153.515 675.422 153.377 675.302 153.255C675.113 153.064 675.096 152.787 675.267 152.561C675.353 152.44 675.507 152.353 675.507 152.231C675.507 152.11 675.387 151.988 675.353 151.849C675.302 151.589 675.165 151.52 674.925 151.485C674.548 151.45 674.394 151.259 674.394 150.86C674.394 150.721 674.394 150.583 674.394 150.426C674.394 150.114 674.582 149.871 674.89 149.871C675.165 149.854 675.302 149.767 675.353 149.489C675.37 149.385 675.439 149.264 675.49 149.177C675.524 149.108 675.524 149.055 675.473 148.986C675.404 148.917 675.353 148.83 675.302 148.76C675.147 148.535 675.182 148.275 675.353 148.084C675.49 147.945 675.61 147.823 675.747 147.684C675.953 147.494 676.261 147.459 676.467 147.667C676.638 147.841 676.792 147.875 676.998 147.737C677.118 147.65 677.289 147.615 677.443 147.563C677.512 147.546 677.529 147.511 677.546 147.442C677.546 147.355 677.563 147.251 677.581 147.164C677.632 146.904 677.838 146.73 678.112 146.73C678.283 146.73 678.472 146.73 678.643 146.73C678.934 146.747 679.157 146.938 679.174 147.233C679.174 147.459 679.243 147.598 679.482 147.632C679.62 147.667 679.757 147.737 679.877 147.823C679.962 147.875 680.014 147.858 680.065 147.806C680.116 147.754 680.185 147.702 680.253 147.667C680.459 147.528 680.733 147.546 680.905 147.719C681.042 147.858 681.179 147.997 681.316 148.136C681.419 148.222 681.47 148.344 681.47 148.5ZM680.099 150.635C680.099 149.663 679.294 148.847 678.334 148.847C677.358 148.847 676.57 149.645 676.57 150.635C676.57 151.624 677.358 152.422 678.317 152.422C679.311 152.422 680.099 151.607 680.099 150.635Z" fill="#F05A64"/>
<circle cx="679" cy="84" r="15" fill="#FFEBE6"/>
<path d="M669.217 84.4969C669.217 83.0363 669.217 81.5757 669.217 80.1816C669.217 79.7168 669.413 79.4513 669.869 79.2521C672.804 78.1899 675.739 77.1276 678.674 76.0654C679 75.9326 679.391 75.9326 679.652 76.0654C682.587 77.1276 685.522 78.1899 688.456 79.2521C688.913 79.3849 689.109 79.7168 689.109 80.1816C689.109 83.1027 689.109 86.0238 689.109 88.945C689.109 89.4097 688.913 89.6753 688.522 89.808C685.522 90.8703 682.587 91.9989 679.587 93.0611C679.391 93.1275 679.065 93.1275 678.804 93.0611C675.804 91.9989 672.869 90.8703 669.869 89.808C669.413 89.6753 669.283 89.4097 669.283 88.945C669.217 87.4844 669.217 86.0238 669.217 84.4969ZM678.413 91.5342C678.413 91.4014 678.413 91.2686 678.413 91.2022C678.413 88.8786 678.413 86.6213 678.413 84.2977C678.413 83.9658 678.282 83.833 677.956 83.7002C675.739 82.9035 673.456 82.0405 671.239 81.2438C670.978 81.1774 670.783 81.111 670.522 80.9782C670.522 81.111 670.456 81.1774 670.456 81.2438C670.456 83.6338 670.456 85.9575 670.456 88.3475C670.456 88.6794 670.652 88.7458 670.848 88.8122C672.348 89.3433 673.913 89.9408 675.413 90.4719C676.456 90.8039 677.435 91.1358 678.413 91.5342ZM679.783 91.5342C679.978 91.4678 680.109 91.4678 680.239 91.4014C682.587 90.5383 684.935 89.6753 687.282 88.8122C687.609 88.6794 687.739 88.5466 687.739 88.1483C687.739 85.8911 687.739 83.6338 687.739 81.3766C687.739 81.2438 687.739 81.1774 687.674 80.9782C686.891 81.2438 686.174 81.5093 685.456 81.7749C684.478 82.1069 684.478 82.1069 684.478 83.1691C684.478 84.1649 684.478 84.1649 683.565 84.4305C683.5 84.4305 683.5 84.4305 683.369 84.4305C683.369 83.833 683.369 83.1691 683.369 82.5052C682.261 82.9035 681.217 83.3019 680.174 83.7002C679.848 83.833 679.783 83.9658 679.783 84.2977C679.783 85.8911 679.783 87.5508 679.783 89.1442C679.783 89.8744 679.783 90.6711 679.783 91.5342ZM682 81.5757C681.869 81.5093 681.804 81.443 681.739 81.443C679.456 80.6463 677.239 79.7832 674.956 78.9865C674.826 78.9202 674.696 78.9202 674.565 78.9202C673.652 79.2521 672.739 79.5841 671.761 79.916C674.174 80.7791 676.522 81.6421 678.935 82.5052C679.065 82.5716 679.196 82.5052 679.326 82.5052C680.174 82.2396 681.087 81.9077 682 81.5757ZM676.652 78.1899C676.717 78.2563 676.717 78.3226 676.717 78.3226C679 79.1857 681.348 79.9824 683.63 80.8455C683.761 80.9118 683.891 80.9118 683.956 80.9118C684.739 80.6463 685.522 80.3143 686.369 80.0488C686.239 79.9824 686.239 79.9824 686.174 79.916C683.891 79.0529 681.609 78.2563 679.391 77.3932C679.261 77.3268 679.13 77.3268 679.065 77.3268C678.217 77.6588 677.435 77.9243 676.652 78.1899Z" fill="#F05A64"/>
<rect x="338" y="79" width="32" height="6" fill="#CFD3DE"/>
<rect x="338" y="87" width="32" height="3" fill="#CFD3DE"/>
<rect x="494" y="180" width="32" height="6" fill="#CFD3DE"/>
<rect x="494" y="188" width="32" height="3" fill="#CFD3DE"/>
<rect x="492" y="85" width="32" height="6" fill="#CFD3DE"/>
<rect x="492" y="93" width="32" height="3" fill="#CFD3DE"/>
<path d="M625 235L627.387 230H621.613L624 235H625ZM624.5 245.5H624V246H624.5V245.5ZM858.5 245.5V246H859V245.5H858.5ZM859 235L861.387 230H855.613L858 235H859ZM624 234.5V245.5H625V234.5H624ZM624.5 246H858.5V245H624.5V246ZM859 245.5V234.5H858V245.5H859Z" fill="white"/>
<path d="M664.119 273L664.103 264.84L660.055 271.64H659.319L655.271 264.888V273H653.735V261.8H655.047L659.719 269.672L664.327 261.8H665.639L665.655 273H664.119ZM671.88 264.44C673.053 264.44 673.949 264.728 674.568 265.304C675.197 265.88 675.512 266.739 675.512 267.88V273H674.056V271.88C673.8 272.275 673.432 272.579 672.952 272.792C672.483 272.995 671.923 273.096 671.272 273.096C670.323 273.096 669.56 272.867 668.984 272.408C668.419 271.949 668.136 271.347 668.136 270.6C668.136 269.853 668.408 269.256 668.952 268.808C669.496 268.349 670.36 268.12 671.544 268.12H673.976V267.816C673.976 267.155 673.784 266.648 673.4 266.296C673.016 265.944 672.451 265.768 671.704 265.768C671.203 265.768 670.712 265.853 670.232 266.024C669.752 266.184 669.347 266.403 669.016 266.68L668.376 265.528C668.813 265.176 669.336 264.909 669.944 264.728C670.552 264.536 671.197 264.44 671.88 264.44ZM671.528 271.912C672.115 271.912 672.621 271.784 673.048 271.528C673.475 271.261 673.784 270.888 673.976 270.408V269.224H671.608C670.307 269.224 669.656 269.661 669.656 270.536C669.656 270.963 669.821 271.299 670.152 271.544C670.483 271.789 670.941 271.912 671.528 271.912ZM682.882 264.44C683.96 264.44 684.813 264.755 685.442 265.384C686.082 266.003 686.402 266.915 686.402 268.12V273H684.866V268.296C684.866 267.475 684.669 266.856 684.274 266.44C683.88 266.024 683.314 265.816 682.578 265.816C681.746 265.816 681.09 266.061 680.61 266.552C680.13 267.032 679.89 267.725 679.89 268.632V273H678.354V264.52H679.826V265.8C680.136 265.363 680.552 265.027 681.074 264.792C681.608 264.557 682.21 264.44 682.882 264.44ZM692.333 264.44C693.506 264.44 694.402 264.728 695.021 265.304C695.65 265.88 695.965 266.739 695.965 267.88V273H694.509V271.88C694.253 272.275 693.885 272.579 693.405 272.792C692.936 272.995 692.376 273.096 691.725 273.096C690.776 273.096 690.013 272.867 689.437 272.408C688.872 271.949 688.589 271.347 688.589 270.6C688.589 269.853 688.861 269.256 689.405 268.808C689.949 268.349 690.813 268.12 691.997 268.12H694.429V267.816C694.429 267.155 694.237 266.648 693.853 266.296C693.469 265.944 692.904 265.768 692.157 265.768C691.656 265.768 691.165 265.853 690.685 266.024C690.205 266.184 689.8 266.403 689.469 266.68L688.829 265.528C689.266 265.176 689.789 264.909 690.397 264.728C691.005 264.536 691.65 264.44 692.333 264.44ZM691.981 271.912C692.568 271.912 693.074 271.784 693.501 271.528C693.928 271.261 694.237 270.888 694.429 270.408V269.224H692.061C690.76 269.224 690.109 269.661 690.109 270.536C690.109 270.963 690.274 271.299 690.605 271.544C690.936 271.789 691.394 271.912 691.981 271.912ZM706.966 264.52V271.848C706.966 273.331 706.598 274.424 705.862 275.128C705.126 275.843 704.028 276.2 702.566 276.2C701.766 276.2 701.004 276.088 700.278 275.864C699.553 275.651 698.966 275.341 698.518 274.936L699.254 273.752C699.649 274.093 700.134 274.36 700.71 274.552C701.297 274.755 701.9 274.856 702.518 274.856C703.51 274.856 704.241 274.621 704.71 274.152C705.19 273.683 705.43 272.968 705.43 272.008V271.336C705.068 271.773 704.62 272.104 704.086 272.328C703.564 272.541 702.993 272.648 702.374 272.648C701.564 272.648 700.828 272.477 700.166 272.136C699.516 271.784 699.004 271.299 698.63 270.68C698.257 270.051 698.07 269.336 698.07 268.536C698.07 267.736 698.257 267.027 698.63 266.408C699.004 265.779 699.516 265.293 700.166 264.952C700.828 264.611 701.564 264.44 702.374 264.44C703.014 264.44 703.606 264.557 704.15 264.792C704.705 265.027 705.158 265.373 705.51 265.832V264.52H706.966ZM702.55 271.304C703.105 271.304 703.601 271.187 704.038 270.952C704.486 270.717 704.833 270.392 705.078 269.976C705.334 269.549 705.462 269.069 705.462 268.536C705.462 267.715 705.19 267.053 704.646 266.552C704.102 266.04 703.404 265.784 702.55 265.784C701.686 265.784 700.982 266.04 700.438 266.552C699.894 267.053 699.622 267.715 699.622 268.536C699.622 269.069 699.745 269.549 699.99 269.976C700.246 270.392 700.593 270.717 701.03 270.952C701.478 271.187 701.985 271.304 702.55 271.304ZM717.565 268.808C717.565 268.925 717.555 269.08 717.533 269.272H710.653C710.749 270.019 711.075 270.621 711.629 271.08C712.195 271.528 712.893 271.752 713.725 271.752C714.739 271.752 715.555 271.411 716.173 270.728L717.021 271.72C716.637 272.168 716.157 272.509 715.581 272.744C715.016 272.979 714.381 273.096 713.677 273.096C712.781 273.096 711.987 272.915 711.293 272.552C710.6 272.179 710.061 271.661 709.677 271C709.304 270.339 709.117 269.592 709.117 268.76C709.117 267.939 709.299 267.197 709.661 266.536C710.035 265.875 710.541 265.363 711.181 265C711.832 264.627 712.563 264.44 713.373 264.44C714.184 264.44 714.904 264.627 715.533 265C716.173 265.363 716.669 265.875 717.021 266.536C717.384 267.197 717.565 267.955 717.565 268.808ZM713.373 265.736C712.637 265.736 712.019 265.96 711.517 266.408C711.027 266.856 710.739 267.443 710.653 268.168H716.093C716.008 267.453 715.715 266.872 715.213 266.424C714.723 265.965 714.109 265.736 713.373 265.736ZM727.698 261.128V273H726.226V271.656C725.885 272.125 725.453 272.483 724.93 272.728C724.408 272.973 723.832 273.096 723.202 273.096C722.381 273.096 721.645 272.915 720.994 272.552C720.344 272.189 719.832 271.683 719.458 271.032C719.096 270.371 718.914 269.613 718.914 268.76C718.914 267.907 719.096 267.155 719.458 266.504C719.832 265.853 720.344 265.347 720.994 264.984C721.645 264.621 722.381 264.44 723.202 264.44C723.81 264.44 724.37 264.557 724.882 264.792C725.394 265.016 725.821 265.352 726.162 265.8V261.128H727.698ZM723.33 271.752C723.864 271.752 724.349 271.629 724.786 271.384C725.224 271.128 725.565 270.776 725.81 270.328C726.056 269.869 726.178 269.347 726.178 268.76C726.178 268.173 726.056 267.656 725.81 267.208C725.565 266.749 725.224 266.397 724.786 266.152C724.349 265.907 723.864 265.784 723.33 265.784C722.786 265.784 722.296 265.907 721.858 266.152C721.432 266.397 721.09 266.749 720.834 267.208C720.589 267.656 720.466 268.173 720.466 268.76C720.466 269.347 720.589 269.869 720.834 270.328C721.09 270.776 721.432 271.128 721.858 271.384C722.296 271.629 722.786 271.752 723.33 271.752ZM739.397 264.44C740.219 264.44 740.955 264.621 741.605 264.984C742.256 265.347 742.763 265.853 743.125 266.504C743.499 267.155 743.685 267.907 743.685 268.76C743.685 269.613 743.499 270.371 743.125 271.032C742.763 271.683 742.256 272.189 741.605 272.552C740.955 272.915 740.219 273.096 739.397 273.096C738.768 273.096 738.192 272.973 737.669 272.728C737.147 272.483 736.715 272.125 736.373 271.656V273H734.901V261.128H736.437V265.8C736.779 265.352 737.205 265.016 737.717 264.792C738.229 264.557 738.789 264.44 739.397 264.44ZM739.269 271.752C739.813 271.752 740.299 271.629 740.725 271.384C741.163 271.128 741.504 270.776 741.749 270.328C742.005 269.869 742.133 269.347 742.133 268.76C742.133 268.173 742.005 267.656 741.749 267.208C741.504 266.749 741.163 266.397 740.725 266.152C740.299 265.907 739.813 265.784 739.269 265.784C738.736 265.784 738.251 265.907 737.813 266.152C737.376 266.397 737.035 266.749 736.789 267.208C736.544 267.656 736.421 268.173 736.421 268.76C736.421 269.347 736.544 269.869 736.789 270.328C737.035 270.776 737.376 271.128 737.813 271.384C738.251 271.629 738.736 271.752 739.269 271.752ZM753.077 264.52L748.965 273.848C748.603 274.712 748.176 275.32 747.685 275.672C747.205 276.024 746.624 276.2 745.941 276.2C745.525 276.2 745.12 276.131 744.725 275.992C744.341 275.864 744.021 275.672 743.765 275.416L744.421 274.264C744.859 274.68 745.365 274.888 745.941 274.888C746.315 274.888 746.624 274.787 746.869 274.584C747.125 274.392 747.355 274.056 747.557 273.576L747.829 272.984L744.085 264.52H745.685L748.645 271.304L751.573 264.52H753.077ZM760.632 263.192V267.096H766.248V268.472H760.632V273H759.032V261.8H766.936V263.192H760.632ZM771.755 264.44C772.928 264.44 773.824 264.728 774.443 265.304C775.072 265.88 775.387 266.739 775.387 267.88V273H773.931V271.88C773.675 272.275 773.307 272.579 772.827 272.792C772.358 272.995 771.798 273.096 771.147 273.096C770.198 273.096 769.435 272.867 768.859 272.408C768.294 271.949 768.011 271.347 768.011 270.6C768.011 269.853 768.283 269.256 768.827 268.808C769.371 268.349 770.235 268.12 771.419 268.12H773.851V267.816C773.851 267.155 773.659 266.648 773.275 266.296C772.891 265.944 772.326 265.768 771.579 265.768C771.078 265.768 770.587 265.853 770.107 266.024C769.627 266.184 769.222 266.403 768.891 266.68L768.251 265.528C768.688 265.176 769.211 264.909 769.819 264.728C770.427 264.536 771.072 264.44 771.755 264.44ZM771.403 271.912C771.99 271.912 772.496 271.784 772.923 271.528C773.35 271.261 773.659 270.888 773.851 270.408V269.224H771.483C770.182 269.224 769.531 269.661 769.531 270.536C769.531 270.963 769.696 271.299 770.027 271.544C770.358 271.789 770.816 271.912 771.403 271.912ZM780.661 273.096C779.968 273.096 779.301 273.005 778.661 272.824C778.021 272.632 777.52 272.392 777.157 272.104L777.797 270.888C778.171 271.155 778.624 271.368 779.157 271.528C779.691 271.688 780.229 271.768 780.773 271.768C782.117 271.768 782.789 271.384 782.789 270.616C782.789 270.36 782.699 270.157 782.517 270.008C782.336 269.859 782.107 269.752 781.829 269.688C781.563 269.613 781.179 269.533 780.677 269.448C779.995 269.341 779.435 269.219 778.997 269.08C778.571 268.941 778.203 268.707 777.893 268.376C777.584 268.045 777.429 267.581 777.429 266.984C777.429 266.216 777.749 265.603 778.389 265.144C779.029 264.675 779.888 264.44 780.965 264.44C781.531 264.44 782.096 264.509 782.661 264.648C783.227 264.787 783.691 264.973 784.053 265.208L783.397 266.424C782.704 265.976 781.888 265.752 780.949 265.752C780.299 265.752 779.803 265.859 779.461 266.072C779.12 266.285 778.949 266.568 778.949 266.92C778.949 267.197 779.045 267.416 779.237 267.576C779.429 267.736 779.664 267.853 779.941 267.928C780.229 268.003 780.629 268.088 781.141 268.184C781.824 268.301 782.373 268.429 782.789 268.568C783.216 268.696 783.579 268.92 783.877 269.24C784.176 269.56 784.325 270.008 784.325 270.584C784.325 271.352 783.995 271.965 783.333 272.424C782.683 272.872 781.792 273.096 780.661 273.096ZM790.773 264.44C791.85 264.44 792.704 264.755 793.333 265.384C793.973 266.003 794.293 266.915 794.293 268.12V273H792.757V268.296C792.757 267.475 792.56 266.856 792.165 266.44C791.77 266.024 791.205 265.816 790.469 265.816C789.637 265.816 788.981 266.061 788.501 266.552C788.021 267.032 787.781 267.725 787.781 268.632V273H786.245V261.128H787.781V265.72C788.101 265.315 788.517 265 789.029 264.776C789.552 264.552 790.133 264.44 790.773 264.44ZM797.136 264.52H798.672V273H797.136V264.52ZM797.904 262.888C797.605 262.888 797.354 262.792 797.152 262.6C796.96 262.408 796.864 262.173 796.864 261.896C796.864 261.619 796.96 261.384 797.152 261.192C797.354 260.989 797.605 260.888 797.904 260.888C798.202 260.888 798.448 260.984 798.64 261.176C798.842 261.357 798.944 261.587 798.944 261.864C798.944 262.152 798.842 262.397 798.64 262.6C798.448 262.792 798.202 262.888 797.904 262.888ZM806.132 264.44C807.21 264.44 808.063 264.755 808.692 265.384C809.332 266.003 809.652 266.915 809.652 268.12V273H808.116V268.296C808.116 267.475 807.919 266.856 807.524 266.44C807.13 266.024 806.564 265.816 805.828 265.816C804.996 265.816 804.34 266.061 803.86 266.552C803.38 267.032 803.14 267.725 803.14 268.632V273H801.604V264.52H803.076V265.8C803.386 265.363 803.802 265.027 804.324 264.792C804.858 264.557 805.46 264.44 806.132 264.44ZM818.783 271.736V273H811.679V272.008L816.687 265.784H811.775V264.52H818.655V265.528L813.647 271.736H818.783ZM823.927 264.44C825.1 264.44 825.996 264.728 826.615 265.304C827.244 265.88 827.559 266.739 827.559 267.88V273H826.103V271.88C825.847 272.275 825.479 272.579 824.999 272.792C824.529 272.995 823.969 273.096 823.319 273.096C822.369 273.096 821.607 272.867 821.031 272.408C820.465 271.949 820.183 271.347 820.183 270.6C820.183 269.853 820.455 269.256 820.999 268.808C821.543 268.349 822.407 268.12 823.591 268.12H826.023V267.816C826.023 267.155 825.831 266.648 825.447 266.296C825.063 265.944 824.497 265.768 823.751 265.768C823.249 265.768 822.759 265.853 822.279 266.024C821.799 266.184 821.393 266.403 821.063 266.68L820.423 265.528C820.86 265.176 821.383 264.909 821.991 264.728C822.599 264.536 823.244 264.44 823.927 264.44ZM823.575 271.912C824.161 271.912 824.668 271.784 825.095 271.528C825.521 271.261 825.831 270.888 826.023 270.408V269.224H823.655C822.353 269.224 821.703 269.661 821.703 270.536C821.703 270.963 821.868 271.299 822.199 271.544C822.529 271.789 822.988 271.912 823.575 271.912Z" fill="white"/>
<defs>
<filter id="filter0_d_4134_0" x="602" y="0" width="284" height="284" filterUnits="userSpaceOnUse" color-interpolation-filters="sRGB">
<feFlood flood-opacity="0" result="BackgroundImageFix"/>
<feColorMatrix in="SourceAlpha" type="matrix" values="0 0 0 0 0 0 0 0 0 0 0 0 0 0 0 0 0 0 127 0" result="hardAlpha"/>
<feOffset dy="16"/>
<feGaussianBlur stdDeviation="16"/>
<feColorMatrix type="matrix" values="0 0 0 0 1 0 0 0 0 0.376471 0 0 0 0 0.419608 0 0 0 0.3 0"/>
<feBlend mode="normal" in2="BackgroundImageFix" result="effect1_dropShadow_4134_0"/>
<feBlend mode="normal" in="SourceGraphic" in2="effect1_dropShadow_4134_0" result="shape"/>
</filter>
<clipPath id="clip0_4134_0">
<rect width="135" height="135" fill="white" transform="translate(360 59)"/>
</clipPath>
<clipPath id="clip1_4134_0">
<rect width="18.2609" height="12.3913" fill="white" transform="translate(670.522 192.478)"/>
</clipPath>
</defs>
</svg>
