<svg width="106" height="106" viewBox="0 0 106 106" fill="none" xmlns="http://www.w3.org/2000/svg">
<circle cx="53" cy="53" r="53" fill="white"/>
<path d="M69.3625 39.4421C69.5476 38.333 70.1216 38.1245 70.1364 38.1191C70.1893 38.1035 70.2383 38.0779 70.2803 38.0429C77.5735 31.9249 77.3145 24.1752 77.2989 23.8485C77.2912 23.6673 77.1589 23.5156 76.9808 23.4837C76.9684 23.4814 75.7457 23.2535 74.7665 22.7098C74.4095 22.5115 73.9708 22.1374 73.4622 21.7042C72.2247 20.6495 70.6863 19.3374 68.7815 19.164C66.2678 18.9353 61.9317 18.0183 61.8881 18.009C61.7738 17.9833 61.6533 18.0136 61.563 18.0875C61.472 18.1614 61.4184 18.2726 61.4184 18.3901C61.4184 21.5237 57.4852 24.0733 52.6513 24.0733C47.8174 24.0733 43.885 21.5237 43.885 18.3901C43.885 18.2726 43.8321 18.1622 43.7404 18.0875C43.6501 18.0144 43.5296 17.9849 43.4152 18.009C43.3709 18.0183 39.0348 18.9353 36.5219 19.164C34.6186 19.3374 33.0794 20.6487 31.842 21.7034C31.3333 22.1374 30.8931 22.5123 30.5353 22.7106C29.5577 23.2543 28.335 23.4822 28.3226 23.4845C28.1445 23.5172 28.0122 23.6681 28.0045 23.8493C27.9889 24.1759 27.7299 31.9257 35.0231 38.0436C35.0596 38.0747 35.1117 38.1012 35.1569 38.1167C35.181 38.1253 35.7542 38.333 35.9393 39.4421C36.1656 40.8008 36.8625 44.0706 37.4606 46.5828C37.6543 47.3964 39.2736 54.7813 36.5351 63.5211C34.096 71.3012 34.068 81.8424 34.068 81.9474C34.068 82.0321 34.096 82.1154 34.1481 82.183C34.3285 82.4203 38.7393 88 52.6505 88C66.5633 88 70.9725 82.4203 71.153 82.1823C71.2043 82.1146 71.2331 82.0322 71.2331 81.9466C71.2331 81.8408 71.2051 71.3004 68.7675 63.5204C66.0298 54.7868 67.6476 47.3964 67.8404 46.582C68.4549 44.006 69.1378 40.8024 69.3625 39.4421ZM69.8284 37.4074C69.7802 37.4284 69.7118 37.4657 69.6371 37.5124C69.7499 37.0831 69.8595 36.653 69.9778 36.2268C74.3022 32.8481 75.5544 25.6117 75.7862 23.9729C76.0739 24.0639 76.3376 24.1371 76.5227 24.1806C76.4924 25.642 76.0008 32.1987 69.8284 37.4074ZM52.6521 24.8503C57.6804 24.8503 61.8127 22.2051 62.172 18.8622C62.5469 18.9392 63.1318 19.0566 63.8209 19.1865C63.4756 20.8183 61.0334 26.195 52.6653 26.195C52.6599 26.195 52.6575 26.1997 52.6521 26.2005C52.6466 26.2005 52.6443 26.195 52.6389 26.195C44.27 26.195 41.8286 20.8191 41.4817 19.1873C42.1716 19.0574 42.7573 18.94 43.1321 18.863C43.493 22.2051 47.6246 24.8503 52.6521 24.8503ZM35.4773 37.4074C29.3173 32.2088 28.8165 25.6436 28.7838 24.1806C28.9689 24.1371 29.2318 24.0647 29.518 23.9737C29.7513 25.6125 31.0043 32.8497 35.3272 36.2268C35.4446 36.6514 35.5551 37.0823 35.6671 37.5109C35.5924 37.465 35.5263 37.4284 35.4773 37.4074ZM52.6521 87.2222C40.1603 87.2222 35.4991 82.5377 34.8481 81.8058C34.8504 81.5857 34.8574 81.112 34.8784 80.4494C38.2423 83.254 42.7759 86.096 52.4374 86.096C52.5494 86.096 52.6295 86.012 52.6521 85.907C52.6746 86.012 52.7555 86.096 52.8668 86.096C62.529 86.096 67.0619 83.2548 70.4242 80.4494C70.4452 81.112 70.4522 81.5849 70.4545 81.8058C69.8051 82.5377 65.1455 87.2222 52.6521 87.2222ZM68.0263 63.7529C69.7794 69.3467 70.2686 76.4081 70.4048 79.8583C67.0751 82.6831 62.6441 85.6301 52.8683 85.6301C52.7563 85.6301 52.6762 85.7141 52.6536 85.8191C52.6311 85.7141 52.5502 85.6301 52.439 85.6301C42.6647 85.6301 38.2322 82.6831 34.901 79.8583C35.0379 76.4081 35.5271 69.3467 37.281 63.7529C40.0234 54.9999 38.5448 47.7635 38.2205 46.4024C37.6255 43.9042 36.9341 40.6577 36.7101 39.3137C36.6339 38.8603 36.4993 38.5165 36.3437 38.2459C36.1625 37.5217 35.972 36.8039 35.7744 36.0906C35.7736 36.0728 35.7659 36.0588 35.7604 36.0416C35.1779 33.951 34.5284 31.9148 33.8175 29.9657C33.7724 29.8443 33.6363 29.7806 33.5181 29.8265C33.3968 29.8708 33.3345 30.0046 33.3781 30.1251C33.9988 31.8269 34.5681 33.601 35.0915 35.414C31.2944 31.9404 30.1542 25.1178 29.9691 23.8151C30.2802 23.6984 30.6045 23.5623 30.9157 23.3896C31.3411 23.1539 31.8078 22.7557 32.3491 22.2945C33.5025 21.3114 34.9375 20.0887 36.5942 19.9379C37.8884 19.8204 39.6119 19.5326 41.0244 19.2721C41.3985 21.152 43.9387 26.6609 52.6412 26.6609C52.6466 26.6609 52.649 26.6563 52.6544 26.6555C52.6599 26.6555 52.6622 26.6609 52.6676 26.6609C61.3694 26.6609 63.9088 21.152 64.2829 19.2721C65.6953 19.5326 67.4197 19.8204 68.7147 19.9379C70.3721 20.0887 71.8071 21.3122 72.9605 22.2953C73.5003 22.7557 73.967 23.1532 74.3916 23.3888C74.7027 23.5615 75.0263 23.6968 75.3382 23.8135C75.1531 25.1147 74.0152 31.9381 70.2165 35.4124C70.7384 33.6057 71.307 31.8331 71.9292 30.1236C71.9735 30.0022 71.9105 29.8685 71.7892 29.8249C71.6679 29.779 71.5349 29.8428 71.4898 29.9641C70.7773 31.9226 70.1279 33.9588 69.5476 36.0401C69.5422 36.058 69.5336 36.072 69.5329 36.0899C69.3338 36.8039 69.144 37.5225 68.9628 38.2459C68.8088 38.5165 68.6734 38.8595 68.5972 39.313C68.374 40.6593 67.6966 43.8388 67.0868 46.4008C66.7617 47.765 65.2847 55.0061 68.0263 63.7529Z" fill="#2C3556" stroke="#2C3556" stroke-width="0.2"/>
</svg>
