<svg width="249" height="258" viewBox="0 0 249 258" fill="none" xmlns="http://www.w3.org/2000/svg">
<g filter="url(#filter0_d_6317_169)">
<rect x="32" y="16" width="185" height="194" rx="92.5" fill="white"/>
<rect x="32.5" y="16.5" width="184" height="193" rx="92" stroke="#FA5762"/>
</g>
<g clip-path="url(#clip0_6317_169)">
<path d="M99.3167 77.0999C97.6878 74.6166 98.187 71.8197 98.3972 68.9704C98.6599 65.2847 100.42 62.4616 102.548 59.534C107.724 52.3716 114.844 49.3133 123.382 48.9996C128.322 48.8166 132.814 50.5419 136.965 53.1297C137.753 53.6264 138.226 54.6197 138.883 55.3777C139.304 55.8482 139.671 56.6324 140.171 56.737C143.166 57.3382 144.873 59.5078 146.423 61.7558C148.499 64.8142 149.813 68.2385 149.918 71.9765C149.97 73.7279 149.392 75.5315 149.051 77.5966C151.047 79.8707 151.126 84.8634 148.998 88.2616C148.289 89.3856 147.737 90.6142 147.185 91.8428C146.634 93.1236 146.213 93.5157 143.901 94.5352C143.849 97.8811 142.483 100.809 140.591 103.527C139.803 104.651 139.487 105.854 139.54 107.187C139.566 108.102 139.619 109.017 139.619 109.932C139.593 111.395 139.776 112.65 141.248 113.565C141.957 114.009 142.246 115.133 142.666 115.97C143.139 116.937 143.402 118.009 143.98 118.897C147.08 123.655 151.126 127.367 156.039 130.268C162.423 134.032 168.676 138.006 175.008 141.874C175.297 142.057 175.639 142.266 175.954 142.266C177.478 142.266 178.345 143.103 178.712 144.41C179.658 147.887 180.446 151.442 179.79 155.075C179.133 158.735 176.978 161.349 173.642 163.048C169.727 165.034 165.471 165.74 161.189 166.42C143.98 169.164 126.666 169.504 109.3 168.694C99.5269 168.197 89.7798 167.23 80.2166 165.06C78.9818 164.773 77.7732 164.407 76.5909 163.963C70.0228 161.558 67.054 156.46 68.2625 149.612C68.5778 147.86 68.8931 146.109 69.3397 144.384C69.6813 143.051 70.5745 142.214 72.0721 142.188C72.3873 142.188 72.7289 142.005 73.0179 141.822C79.586 137.797 86.1542 133.719 92.7486 129.745C97.7141 126.766 101.629 122.74 104.676 117.878C104.913 117.486 105.123 117.015 105.202 116.571C105.465 114.872 106.305 113.591 107.724 112.624C108.013 112.415 108.223 111.97 108.276 111.604C108.381 110.873 108.354 110.141 108.433 109.383C108.643 106.821 108.354 104.416 106.699 102.246C105.123 100.208 104.44 97.7765 104.125 95.2148C104.072 94.8227 103.678 94.2999 103.336 94.1431C101.944 93.568 101.077 92.6531 100.657 91.1631C100.394 90.2744 99.8947 89.3856 99.343 88.6276C97.2149 85.6999 97.3726 82.4063 97.898 79.1127C98.0031 78.4853 98.7387 77.9102 99.3167 77.0999ZM103.757 90.0653C103.31 87.3729 103.021 84.9419 102.522 82.5893C102.286 81.4914 101.813 80.3674 101.208 79.4002C100.709 78.616 99.7108 78.8774 99.6057 79.7923C99.2379 82.4847 99.054 85.151 100.762 87.582C101.471 88.6014 101.839 89.8561 102.522 90.9017C102.942 91.5291 103.573 92.078 104.203 92.4963C104.65 92.7838 105.281 92.7577 105.964 92.9145C105.491 97.2014 107.645 100.547 109.799 103.972C111.875 107.265 114.765 109.409 118.286 110.82C121.622 112.153 125.169 112.258 128.453 111.239C136.151 108.86 140.144 103.031 142.01 95.5546C142.22 94.692 142.141 93.751 142.194 92.8099C144.269 92.8361 145.583 91.9473 145.977 89.8823C146.082 89.3595 146.371 88.7844 146.739 88.3662C148.735 85.9874 148.919 83.2428 148.552 80.3674C148.473 79.6616 148.315 78.9297 147.501 79.0081C146.975 79.0604 146.213 79.5309 146.082 79.9753C145.609 81.7267 145.294 83.5042 145.005 85.2817C144.742 86.8762 144.558 88.4707 144.322 90.1437C142.772 89.5163 142.824 88.4184 142.982 87.399C143.639 82.7722 143.822 78.1716 142.982 73.5188C142.377 70.2774 141.589 67.1929 138.726 65.1802C138.174 64.7881 137.281 64.6574 136.571 64.6835C133.445 64.7881 130.292 65.2586 127.192 65.0495C122.358 64.7358 117.602 64.5005 112.978 66.3042C112.269 66.5917 111.691 67.1406 111.034 67.5327C109.747 68.2908 108.433 69.0227 107.172 69.8069C106.463 70.2513 105.57 70.6957 105.228 71.3491C104.046 73.5972 103.625 76.002 103.941 78.5376C104.282 81.2039 104.624 83.8701 104.939 86.5625C105.044 87.765 104.913 88.8628 103.757 90.0653ZM110.167 107.553C110.062 109.461 109.878 111.186 109.905 112.911C109.931 113.826 110.167 114.82 110.614 115.578C113.609 120.649 118.417 123.786 123.198 126.922C123.593 127.184 124.46 127.184 124.854 126.922C129.136 124.073 133.261 121.119 136.571 117.042C139.041 113.983 137.648 110.846 138.016 107.422C130.108 115.473 118.102 115.656 110.167 107.553ZM108.46 135.287C110.325 144.985 113.478 154.186 117.55 163.257C118.075 158.918 118.417 154.761 119.1 150.657C119.783 146.501 119.836 142.188 121.648 138.293C120.387 137.091 119.153 135.914 117.813 134.634C116.893 136.307 115.947 138.032 114.87 139.992C112.742 138.424 110.693 136.908 108.46 135.287ZM130.423 163.074C134.575 154.16 137.701 144.959 139.566 135.287C137.386 136.882 135.31 138.424 133.182 139.966C132.079 137.98 131.107 136.228 130.345 134.869C128.926 136.124 127.639 137.274 126.64 138.163C128.637 146.475 129.767 154.709 130.423 163.074ZM133.97 137.483C135.494 136.15 136.939 134.947 138.279 133.666C138.673 133.301 138.909 132.647 139.015 132.072C139.724 127.21 140.407 122.348 141.011 117.486C141.116 116.649 140.643 115.761 140.46 114.898C140.328 114.924 140.197 114.924 140.039 114.95C137.044 120.989 131.842 124.831 126.246 128.412C130.108 130.242 131.763 133.849 133.97 137.483ZM108.013 114.898C107.855 114.898 107.671 114.924 107.514 114.924C107.356 115.813 106.988 116.754 107.067 117.617C107.487 121.276 108.013 124.936 108.538 128.569C108.749 130.111 108.617 131.915 109.405 133.091C110.561 134.79 112.4 135.993 114.029 137.483C116.236 133.849 117.918 130.242 121.78 128.36C116.184 124.779 111.008 120.963 108.013 114.898Z" fill="#F05A64"/>
<path d="M150.811 178.026C162.419 178.026 171.829 168.664 171.829 157.114C171.829 145.565 162.419 136.202 150.811 136.202C139.203 136.202 129.793 145.565 129.793 157.114C129.793 168.664 139.203 178.026 150.811 178.026Z" fill="#F4F7FC"/>
<path d="M152.992 147.599C152.992 147.808 152.913 147.991 152.808 148.148C152.597 148.41 152.414 148.645 152.203 148.906C152.151 148.985 152.151 149.037 152.177 149.115C152.44 149.56 152.624 150.056 152.755 150.553C152.781 150.658 152.834 150.71 152.939 150.71C153.254 150.736 153.596 150.788 153.911 150.814C154.331 150.867 154.62 151.18 154.647 151.599C154.647 152.252 154.647 152.932 154.647 153.585C154.647 154.003 154.331 154.317 153.937 154.343C153.596 154.396 153.281 154.422 152.939 154.448C152.834 154.448 152.781 154.5 152.729 154.605C152.597 155.101 152.387 155.598 152.125 156.042C152.072 156.147 152.072 156.199 152.151 156.278C152.361 156.539 152.597 156.827 152.808 157.088C153.097 157.454 153.07 157.872 152.755 158.212C152.308 158.656 151.862 159.101 151.415 159.545C151.074 159.859 150.653 159.885 150.285 159.623C149.996 159.414 149.734 159.179 149.445 158.97C149.366 158.892 149.313 158.892 149.208 158.944C148.735 159.205 148.236 159.414 147.711 159.545C147.606 159.571 147.579 159.623 147.553 159.728C147.527 160.094 147.474 160.434 147.422 160.8C147.369 161.244 147.028 161.532 146.581 161.532C145.95 161.532 145.294 161.532 144.663 161.532C144.243 161.532 143.901 161.27 143.849 160.852C143.796 160.486 143.744 160.094 143.717 159.702C143.717 159.597 143.691 159.519 143.56 159.493C143.087 159.362 142.64 159.179 142.22 158.918C142.115 158.839 142.036 158.865 141.931 158.944C141.668 159.179 141.379 159.388 141.09 159.597C140.722 159.885 140.276 159.859 139.934 159.519C139.487 159.075 139.067 158.656 138.62 158.212C138.279 157.872 138.253 157.428 138.568 157.062C138.804 156.774 139.015 156.487 139.251 156.199C139.304 156.121 139.33 156.068 139.277 155.99C139.041 155.572 138.857 155.127 138.726 154.683C138.699 154.579 138.647 154.552 138.542 154.552C138.174 154.5 137.78 154.474 137.412 154.422C136.965 154.369 136.676 154.03 136.676 153.585C136.676 152.958 136.676 152.304 136.676 151.677C136.676 151.233 136.965 150.919 137.412 150.867C137.753 150.814 138.095 150.788 138.437 150.762C138.542 150.762 138.594 150.71 138.62 150.605C138.752 150.109 138.936 149.638 139.198 149.168C139.251 149.063 139.225 149.011 139.172 148.906C138.962 148.671 138.778 148.41 138.568 148.148C138.253 147.73 138.253 147.338 138.62 146.946C139.041 146.501 139.487 146.083 139.908 145.665C140.249 145.325 140.67 145.299 141.064 145.613C141.3 145.796 141.563 146.005 141.799 146.188C141.878 146.266 141.957 146.266 142.062 146.214C142.561 145.926 143.061 145.717 143.612 145.56C143.717 145.534 143.77 145.482 143.77 145.377C143.796 145.037 143.849 144.724 143.901 144.384C143.98 143.966 144.295 143.704 144.716 143.704C145.372 143.704 146.003 143.704 146.66 143.704C147.106 143.704 147.448 144.018 147.474 144.489C147.501 144.802 147.553 145.09 147.579 145.403C147.579 145.508 147.632 145.56 147.737 145.586C148.262 145.743 148.762 145.926 149.235 146.214C149.34 146.292 149.418 146.266 149.524 146.188C149.76 146.005 149.996 145.822 150.233 145.639C150.601 145.351 151.047 145.377 151.363 145.691C151.809 146.135 152.256 146.58 152.703 147.024C152.913 147.181 152.992 147.364 152.992 147.599ZM141.721 152.54C141.721 154.761 143.533 156.539 145.74 156.539C147.947 156.539 149.76 154.735 149.76 152.54C149.76 150.344 147.947 148.54 145.74 148.54C143.56 148.54 141.721 150.344 141.721 152.54Z" fill="#F05A64"/>
<path d="M164.184 165.662C164.052 165.662 163.895 165.61 163.737 165.531C163.527 165.4 163.343 165.27 163.133 165.139C163.054 165.087 162.975 165.061 162.87 165.139C162.529 165.374 162.161 165.557 161.767 165.688C161.662 165.714 161.609 165.793 161.609 165.897C161.609 166.132 161.609 166.341 161.583 166.577C161.556 167.073 161.268 167.361 160.795 167.413C160.348 167.465 159.928 167.492 159.481 167.518C159.087 167.544 158.745 167.282 158.667 166.917C158.614 166.655 158.561 166.394 158.509 166.132C158.483 166.028 158.456 165.975 158.325 165.949C157.957 165.871 157.589 165.74 157.222 165.583C157.116 165.531 157.064 165.557 156.985 165.61C156.827 165.766 156.644 165.949 156.46 166.106C156.092 166.446 155.671 166.446 155.304 166.132C154.988 165.871 154.673 165.61 154.358 165.322C153.99 165.008 153.937 164.616 154.174 164.198C154.305 163.989 154.463 163.754 154.594 163.544C154.647 163.466 154.647 163.414 154.594 163.335C154.384 163.022 154.2 162.682 154.069 162.342C154.043 162.264 153.99 162.211 153.885 162.211C153.648 162.211 153.386 162.185 153.149 162.185C152.676 162.159 152.361 161.872 152.309 161.427C152.256 160.983 152.23 160.565 152.203 160.12C152.177 159.702 152.44 159.362 152.86 159.258C153.097 159.205 153.307 159.153 153.543 159.127C153.648 159.101 153.701 159.075 153.701 158.97C153.78 158.552 153.885 158.16 154.069 157.794C154.121 157.689 154.095 157.637 154.016 157.585C153.859 157.402 153.675 157.245 153.517 157.062C153.228 156.748 153.228 156.304 153.491 155.99C153.754 155.65 154.043 155.31 154.332 154.997C154.647 154.631 155.067 154.579 155.461 154.84C155.645 154.944 155.803 155.075 155.987 155.18C156.066 155.232 156.144 155.258 156.223 155.18C156.591 154.918 156.985 154.709 157.405 154.552C157.511 154.5 157.563 154.448 157.563 154.317C157.563 154.134 157.563 153.925 157.563 153.742C157.589 153.272 157.905 152.958 158.351 152.932C158.719 152.906 159.113 152.879 159.481 152.827C160.059 152.775 160.401 153.01 160.532 153.559C160.584 153.742 160.611 153.925 160.637 154.082C160.663 154.186 160.69 154.239 160.795 154.239C161.241 154.317 161.662 154.448 162.056 154.631C162.134 154.657 162.187 154.657 162.266 154.605C162.423 154.448 162.581 154.317 162.739 154.16C163.054 153.873 163.501 153.847 163.816 154.134C164.157 154.422 164.473 154.683 164.814 154.971C165.182 155.284 165.235 155.676 164.972 156.095C164.867 156.278 164.735 156.461 164.604 156.617C164.552 156.696 164.552 156.748 164.604 156.827C164.841 157.166 165.024 157.558 165.182 157.951C165.208 158.029 165.261 158.055 165.34 158.055C165.602 158.055 165.865 158.055 166.128 158.081C166.469 158.134 166.758 158.395 166.785 158.735C166.837 159.205 166.89 159.702 166.916 160.172C166.942 160.538 166.68 160.878 166.312 160.983C166.075 161.035 165.839 161.087 165.602 161.14C165.497 161.166 165.445 161.192 165.445 161.296C165.366 161.689 165.235 162.081 165.077 162.447C165.024 162.551 165.051 162.63 165.13 162.708C165.287 162.865 165.419 163.022 165.576 163.179C165.918 163.518 165.918 163.963 165.629 164.329C165.34 164.669 165.077 164.982 164.788 165.322C164.657 165.557 164.446 165.662 164.184 165.662ZM162.818 160.146C162.818 158.395 161.425 156.983 159.691 156.983C157.957 156.983 156.512 158.369 156.512 160.094C156.512 161.845 157.931 163.257 159.665 163.257C161.399 163.257 162.791 161.845 162.818 160.146Z" fill="#F05A64"/>
<path d="M153.464 164.276C153.491 164.538 153.333 164.747 153.175 164.93C152.991 165.087 152.965 165.244 153.097 165.453C153.228 165.662 153.307 165.923 153.359 166.185C153.386 166.289 153.438 166.315 153.517 166.315C153.648 166.315 153.806 166.341 153.937 166.368C154.331 166.446 154.594 166.76 154.62 167.152C154.62 167.439 154.62 167.727 154.62 168.014C154.594 168.433 154.305 168.772 153.885 168.799C153.491 168.799 153.254 168.929 153.175 169.321C153.149 169.504 153.018 169.687 152.913 169.87C152.86 169.949 152.86 170.001 152.939 170.079C153.044 170.184 153.123 170.315 153.202 170.419C153.464 170.759 153.438 171.177 153.123 171.491C152.939 171.674 152.729 171.883 152.545 172.066C152.203 172.38 151.757 172.406 151.441 172.118C151.152 171.831 150.89 171.752 150.522 171.988C150.364 172.092 150.154 172.144 149.97 172.171C149.865 172.197 149.812 172.249 149.812 172.354C149.786 172.484 149.786 172.615 149.76 172.746C149.707 173.19 149.392 173.504 148.945 173.504C148.683 173.504 148.394 173.504 148.131 173.504C147.684 173.478 147.395 173.216 147.317 172.772C147.29 172.641 147.264 172.484 147.264 172.354C147.264 172.197 147.211 172.144 147.08 172.118C146.817 172.04 146.555 171.909 146.292 171.779C146.213 171.726 146.134 171.726 146.055 171.805C145.95 171.909 145.819 171.988 145.688 172.092C145.32 172.354 144.899 172.327 144.584 172.014C144.4 171.831 144.19 171.622 144.006 171.439C143.717 171.151 143.691 170.733 143.954 170.393C144.085 170.21 144.321 170.079 144.321 169.896C144.321 169.713 144.138 169.53 144.085 169.321C144.006 168.929 143.796 168.825 143.428 168.772C142.85 168.72 142.614 168.433 142.614 167.831C142.614 167.622 142.614 167.413 142.614 167.178C142.614 166.707 142.903 166.341 143.376 166.341C143.796 166.315 144.006 166.185 144.085 165.766C144.111 165.61 144.216 165.427 144.295 165.296C144.348 165.191 144.348 165.113 144.269 165.008C144.164 164.904 144.085 164.773 144.006 164.668C143.77 164.329 143.822 163.937 144.085 163.649C144.295 163.44 144.479 163.257 144.689 163.048C145.005 162.76 145.477 162.708 145.793 163.022C146.055 163.283 146.292 163.335 146.607 163.126C146.791 162.996 147.054 162.943 147.29 162.865C147.395 162.839 147.422 162.786 147.448 162.682C147.448 162.551 147.474 162.394 147.5 162.264C147.579 161.872 147.895 161.61 148.315 161.61C148.578 161.61 148.867 161.61 149.129 161.61C149.576 161.636 149.918 161.924 149.944 162.368C149.944 162.708 150.049 162.917 150.417 162.969C150.627 163.022 150.837 163.126 151.021 163.257C151.152 163.335 151.231 163.309 151.31 163.231C151.389 163.152 151.494 163.074 151.599 163.022C151.914 162.813 152.335 162.839 152.597 163.1C152.808 163.309 153.018 163.518 153.228 163.727C153.386 163.858 153.464 164.041 153.464 164.276ZM151.363 167.492C151.363 166.028 150.128 164.799 148.656 164.799C147.159 164.799 145.95 166.002 145.95 167.492C145.95 168.982 147.159 170.184 148.63 170.184C150.154 170.184 151.363 168.955 151.363 167.492Z" fill="#F05A64"/>
</g>
<defs>
<filter id="filter0_d_6317_169" x="0" y="0" width="249" height="258" filterUnits="userSpaceOnUse" color-interpolation-filters="sRGB">
<feFlood flood-opacity="0" result="BackgroundImageFix"/>
<feColorMatrix in="SourceAlpha" type="matrix" values="0 0 0 0 0 0 0 0 0 0 0 0 0 0 0 0 0 0 127 0" result="hardAlpha"/>
<feOffset dy="16"/>
<feGaussianBlur stdDeviation="16"/>
<feColorMatrix type="matrix" values="0 0 0 0 0.172549 0 0 0 0 0.207843 0 0 0 0 0.337255 0 0 0 0.05 0"/>
<feBlend mode="normal" in2="BackgroundImageFix" result="effect1_dropShadow_6317_169"/>
<feBlend mode="normal" in="SourceGraphic" in2="effect1_dropShadow_6317_169" result="shape"/>
</filter>
<clipPath id="clip0_6317_169">
<rect width="112" height="129" fill="white" transform="translate(68 49)"/>
</clipPath>
</defs>
</svg>
