<svg width="50" height="50" viewBox="0 0 50 50" fill="none" xmlns="http://www.w3.org/2000/svg">
<circle cx="25" cy="25" r="25" fill="#FFA100"/>
<g clip-path="url(#clip0_6287_1539)">
<path d="M15.6145 30.2795C15.6835 29.5736 15.5078 29.4469 14.7738 29.3866C14.2218 29.3383 13.6697 29.1875 13.1302 29.0426C12.8165 28.9582 12.6534 28.7168 12.7098 28.391C12.7914 27.9204 12.8541 27.4377 12.9984 26.9791C13.1741 26.3999 13.0298 26.1525 12.4401 25.9172C11.9382 25.7181 11.4614 25.4285 11.0034 25.1449C10.7211 24.9699 10.5831 24.6984 10.7713 24.3666C11.0223 23.9201 11.2418 23.4494 11.5304 23.0271C11.819 22.5987 11.7563 22.303 11.361 21.9652C10.9219 21.5911 10.5267 21.1566 10.1565 20.7162C9.93694 20.4567 9.94949 20.149 10.2255 19.9016C10.6019 19.5577 10.9721 19.2017 11.3736 18.888C11.7688 18.5803 11.8065 18.2726 11.5492 17.8442C11.2544 17.3615 11.0034 16.8546 10.8027 16.3297C10.6459 15.9194 10.74 15.7384 11.1352 15.5272C11.5681 15.2919 12.026 15.0807 12.4903 14.9178C13.0298 14.7308 13.149 14.4713 13.0235 13.9223C12.898 13.3732 12.8604 12.794 12.829 12.2329C12.8102 11.9191 12.9984 11.6959 13.3435 11.6476C13.8579 11.5752 14.3723 11.4847 14.893 11.4666C15.4451 11.4485 15.6458 11.2252 15.696 10.6943C15.7525 10.1331 15.8968 9.57201 16.0474 9.02294C16.1352 8.71523 16.3924 8.54628 16.75 8.60662C17.2519 8.69712 17.76 8.76349 18.2494 8.89624C18.7952 9.04708 19.1026 8.92037 19.2782 8.38941C19.4602 7.82224 19.7613 7.32145 20.1753 6.88702C20.3824 6.66981 20.627 6.58534 20.9093 6.72412C21.3736 6.9534 21.8504 7.16457 22.277 7.44212C22.76 7.75587 23.0549 7.70157 23.4501 7.26715C23.8265 6.85082 24.2845 6.4888 24.7362 6.13885C24.9997 5.93371 25.3071 5.95181 25.558 6.19919C25.9093 6.55517 26.2857 6.89306 26.5994 7.27921C26.9445 7.7076 27.2581 7.74381 27.7475 7.45419C28.2305 7.17061 28.7638 6.94736 29.3033 6.76635C29.7236 6.62154 29.893 6.69998 30.1126 7.07407C30.3573 7.50246 30.5831 7.94895 30.7588 8.40751C30.947 8.8902 31.2356 9.06518 31.7437 8.90227C32.3146 8.71523 32.9043 8.64282 33.5066 8.70316C33.9332 8.74539 34.0775 8.8359 34.1528 9.22809C34.2469 9.71681 34.3221 10.2176 34.3472 10.7184C34.3723 11.2252 34.6044 11.4726 35.144 11.4666C35.7713 11.4605 36.3673 11.5752 36.9382 11.8286C37.2142 11.9553 37.3711 12.1544 37.3146 12.4501C37.2268 12.9509 37.1515 13.4637 37.0135 13.9524C36.8755 14.4412 37.026 14.7067 37.5154 14.9178C38.0423 15.1411 38.5505 15.4247 39.0398 15.7263C39.341 15.9074 39.4476 16.209 39.2594 16.5409C39.021 16.9753 38.7952 17.4158 38.5128 17.8261C38.2117 18.2605 38.2619 18.5803 38.6948 18.9061C39.1088 19.2259 39.4727 19.5939 39.8554 19.9559C40.0875 20.1732 40.0561 20.4205 39.9118 20.674C39.617 21.1928 39.2029 21.6152 38.7073 21.9652C38.2431 22.291 38.2305 22.5806 38.5254 23.0633C38.8203 23.552 39.0398 24.089 39.2343 24.626C39.366 24.988 39.2029 25.2173 38.7324 25.4526C38.3372 25.6517 37.9231 25.8207 37.5028 25.9655C37.026 26.1284 36.8504 26.4421 37.0135 26.9007C37.2205 27.4799 37.3021 28.0712 37.2142 28.6806C37.1766 28.9582 37.0448 29.1573 36.7437 29.2056C36.2293 29.284 35.7149 29.3805 35.2004 29.4047C34.5919 29.4288 34.41 29.6219 34.3472 30.189C34.2908 30.7622 34.1277 31.3234 33.9708 31.8845C33.8955 32.162 33.6509 32.3069 33.3372 32.2526C32.8353 32.1741 32.3209 32.1198 31.8315 31.9871C31.223 31.8242 30.9909 31.9448 30.7462 32.4939C30.5204 33.0068 30.2004 33.4834 29.8868 33.948C29.6985 34.2195 29.3974 34.2859 29.0837 34.129C28.6258 33.8937 28.1553 33.6705 27.7224 33.3929C27.2895 33.1214 26.9821 33.1757 26.6371 33.5438C26.2418 33.9661 25.809 34.3583 25.3447 34.7083C25.0059 34.9617 24.7926 34.9315 24.479 34.6479C24.1088 34.3161 23.7512 33.954 23.4376 33.5739C23.1051 33.1697 22.7977 33.1274 22.3397 33.3929C21.8629 33.6644 21.3485 33.9058 20.8215 34.0868C20.3447 34.2497 20.1565 34.1652 19.9118 33.7489C19.6735 33.3326 19.4664 32.8861 19.2908 32.4396C19.1151 31.981 18.8077 31.8061 18.3246 31.9629C17.7349 32.156 17.1264 32.2345 16.5053 32.162C16.1791 32.1258 15.9595 31.975 15.9031 31.6492C15.7839 31.1846 15.696 30.7321 15.6145 30.2795ZM25.0122 30.4425C30.6835 30.4425 35.4075 26.0379 35.42 20.4326C35.4263 14.9118 30.765 10.4228 25.0122 10.4107C19.2719 10.4047 14.5919 14.8997 14.5919 20.4205C14.5856 25.9655 19.2469 30.4485 25.0122 30.4425Z" fill="white"/>
<path d="M31.643 33.0129C31.6806 33.0068 31.6869 33.0068 31.6994 33.0068C32.3644 33.043 32.7283 33.3689 33.0169 33.9662C34.0583 36.1262 35.1812 38.2501 36.2791 40.386C36.2854 40.392 36.2854 40.4041 36.2916 40.4162C36.3857 40.6274 36.5489 40.8868 36.323 41.0497C36.1787 41.1523 35.8839 41.1402 35.6831 41.0799C34.8174 40.8144 33.9642 40.5127 33.1047 40.2231C32.2452 39.9275 31.6681 40.205 31.3795 41.0376C31.0972 41.8582 30.8274 42.6848 30.52 43.4934C30.4447 43.6864 30.2753 43.9459 30.0934 43.9881C29.8111 44.0605 29.6856 43.7649 29.579 43.5537C28.8324 42.0815 28.0859 40.6093 27.3393 39.137C26.7873 38.057 26.2289 36.977 25.6706 35.903C25.6392 35.8427 25.6141 35.7823 25.6016 35.7642C26.185 35.2996 26.7433 34.8531 27.308 34.4066C27.7346 34.6058 28.1925 34.8471 28.6693 35.0281C29.4974 35.3419 30.0683 35.1971 30.658 34.5515C30.865 34.3282 31.0407 34.0748 31.2038 33.8153C31.3669 33.5619 31.4987 33.2844 31.643 33.0129Z" fill="white"/>
<path d="M24.354 35.8607C23.8584 36.8382 23.3377 37.8639 22.817 38.8896C22.0642 40.3679 21.3051 41.8461 20.5523 43.3244C20.4832 43.4571 20.4331 43.614 20.3327 43.7226C20.2198 43.8432 20.0629 44.0001 19.9312 43.9941C19.7994 43.9881 19.6677 43.807 19.561 43.6803C19.492 43.5959 19.4732 43.4752 19.4356 43.3726C19.1595 42.5701 18.8835 41.7737 18.6075 40.9712C18.3502 40.2351 17.7417 39.9395 16.9826 40.1989C16.1859 40.4644 15.3891 40.7359 14.5861 41.0074C14.4983 41.0376 14.4105 41.0919 14.3164 41.0919C14.0968 41.0979 13.8835 41.0738 13.6639 41.0617C13.6765 40.8506 13.6326 40.6213 13.7141 40.4403C14.078 39.668 14.4732 38.9138 14.8622 38.1595C15.6652 36.5908 16.4745 35.0281 17.2649 33.4533C17.3841 33.218 17.5096 33.0852 17.7919 33.0732C17.9676 33.0671 18.1369 33.0128 18.3063 32.9827C18.5322 33.399 18.7392 33.8153 18.9839 34.2075C19.5046 35.0401 20.0692 35.2815 21.0416 35.022C21.6062 34.8712 22.1457 34.6178 22.6978 34.4126C23.206 34.8652 23.758 35.3479 24.354 35.8607Z" fill="white"/>
<path d="M24.2474 21.4282C24.9375 20.6378 25.6025 19.8775 26.2612 19.1113C26.9889 18.2726 27.7167 17.4279 28.4507 16.5892C29.0655 15.8893 30.0253 15.7807 30.7029 16.3297C31.393 16.8848 31.4557 17.7959 30.8409 18.5079C29.0467 20.5774 27.2587 22.647 25.4582 24.7105C24.7869 25.4828 23.6828 25.4828 23.0053 24.7045C21.8321 23.359 20.6652 22.0014 19.5109 20.6378C18.9526 19.9801 19.0529 19.063 19.7179 18.532C20.3829 18.0011 21.3365 18.0795 21.9074 18.7311C22.6288 19.5517 23.3377 20.3844 24.0529 21.211C24.1031 21.2773 24.1596 21.3377 24.2474 21.4282Z" fill="white"/>
</g>
<defs>
<clipPath id="clip0_6287_1539">
<rect width="30" height="38" fill="white" transform="translate(10 6)"/>
</clipPath>
</defs>
</svg>
