<svg width="50" height="50" viewBox="0 0 50 50" fill="none" xmlns="http://www.w3.org/2000/svg">
<circle cx="25" cy="25" r="25" fill="#7B4B95"/>
<path d="M27.6295 21.4214C26.3791 21.4214 25.1672 21.4214 23.9456 21.4214C23.4935 21.4214 23.0511 21.4214 22.599 21.4214C22.1662 21.4214 21.993 21.2386 21.993 20.8058C21.993 19.6419 21.993 18.4684 21.993 17.3046C21.993 17.1891 21.993 17.0737 21.993 16.939C19.6557 16.939 17.3473 16.939 15.01 16.939C15.01 22.2582 15.01 27.5581 15.01 32.9157C15.1061 32.9157 15.2119 32.9157 15.3081 32.9157C21.8969 32.9157 28.4952 32.9157 35.084 32.9157C35.2186 32.9157 35.3533 32.9061 35.4879 32.9157C35.7861 32.935 35.9881 33.137 35.9881 33.4063C35.9881 33.6756 35.7861 33.8968 35.4976 33.9064C35.1898 33.9161 34.8723 33.9161 34.5645 33.9161C27.9566 33.9161 21.339 33.9161 14.731 33.9161C14.1539 33.9161 14.0096 33.7718 14.0096 33.2043C14.0096 27.6735 14.0096 22.1428 14 16.612C14 16.285 14.1154 16.0734 14.3655 15.881C15.741 14.8133 17.0876 13.7168 18.463 12.6587C18.6362 12.5241 18.8959 12.4279 19.1075 12.4279C23.0319 12.4182 26.9562 12.4182 30.8806 12.4279C31.1019 12.4279 31.3519 12.5144 31.5251 12.6491C32.9294 13.736 34.3241 14.8422 35.7092 15.9676C35.8534 16.083 35.9689 16.3234 35.9785 16.5158C36.0073 17.2757 35.9977 18.0356 35.9881 18.7955C35.9881 19.1898 35.7957 19.4111 35.4879 19.4111C35.1801 19.4111 34.9974 19.1802 34.9974 18.7858C34.9974 18.1702 34.9974 17.5643 34.9974 16.9294C32.6601 16.9294 30.3516 16.9294 28.0239 16.9294C28.0239 18.2857 28.0239 19.6515 28.0239 21.0174C29.8514 21.3444 31.4481 20.8539 32.814 19.5938C33.2276 19.2091 33.4007 19.2091 33.8143 19.5938C35.1032 20.7769 36.5941 21.3059 38.3447 21.0462C38.7198 20.9885 38.9891 21.1809 38.9891 21.5368C38.9795 23.1623 39.0468 24.7879 38.9314 26.4039C38.7486 28.7701 37.4405 30.4629 35.4014 31.5883C34.8531 31.8961 34.2471 32.0981 33.6508 32.3194C33.468 32.3867 33.2276 32.3867 33.0448 32.3386C30.9191 31.7134 29.207 30.5495 28.2355 28.4815C27.8219 27.6158 27.6488 26.6828 27.6392 25.7209C27.6295 24.3166 27.6295 22.893 27.6295 21.4214ZM28.6491 22.1139C28.6395 22.239 28.6395 22.3159 28.6395 22.4025C28.6395 23.4605 28.6299 24.5282 28.6395 25.5863C28.6587 28.0487 29.7745 29.8377 31.9771 30.8958C33.4199 31.5883 33.2179 31.5787 34.6511 30.8958C36.6229 29.9532 37.806 28.3949 37.9599 26.1826C38.0465 24.8552 37.9791 23.5182 37.9888 22.1909C37.9888 22.1716 37.9695 22.162 37.9407 22.1235C36.1997 22.2293 34.6704 21.6618 33.3237 20.5172C31.9771 21.6522 30.4382 22.2197 28.6491 22.1139ZM23.0319 16.9294C23.0319 18.1125 23.0319 19.2572 23.0319 20.4018C24.3688 20.4018 25.6674 20.4018 26.9851 20.4018C26.9851 19.2379 26.9851 18.0933 26.9851 16.9294C25.6577 16.9294 24.3496 16.9294 23.0319 16.9294ZM22.8395 13.4186C21.6372 13.4186 20.4925 13.409 19.3479 13.4282C19.194 13.4282 19.0209 13.4955 18.9055 13.5821C18.0013 14.2747 17.1164 14.9864 16.2315 15.6886C16.1642 15.7463 16.0969 15.804 16.0391 15.8617C16.0584 15.8906 16.068 15.9002 16.0776 15.9002C18.0494 15.9002 20.0116 15.9098 21.9834 15.9002C22.0508 15.9002 22.1566 15.8233 22.1758 15.7559C22.397 15.0057 22.6086 14.2362 22.8395 13.4186ZM34.0451 15.9002C33.2468 15.275 32.4966 14.7364 31.8136 14.1111C31.2269 13.5725 30.6017 13.3416 29.7937 13.3994C28.9377 13.4667 28.072 13.4186 27.1679 13.4186C27.4083 14.265 27.6392 15.0826 27.8796 15.9002C29.9188 15.9002 31.9387 15.9002 34.0451 15.9002ZM26.129 13.4282C25.3596 13.4282 24.6285 13.4282 23.8783 13.4282C23.6474 14.2458 23.407 15.073 23.1761 15.9098C24.4169 15.9098 25.6096 15.9098 26.8408 15.9098C26.6004 15.073 26.3599 14.2554 26.129 13.4282Z" fill="white" stroke="white" stroke-width="0.3" stroke-miterlimit="10"/>
<path d="M17.5017 30.1645C17.5017 30.5589 17.5017 30.9532 17.5017 31.3476C17.4921 31.6938 17.2997 31.9054 17.0111 31.915C16.7226 31.9246 16.511 31.7034 16.5014 31.3668C16.4917 30.5685 16.4917 29.7702 16.5014 28.9719C16.5014 28.6352 16.713 28.414 17.0015 28.4236C17.2901 28.4236 17.4921 28.6449 17.4921 28.9911C17.5113 29.3758 17.5017 29.7702 17.5017 30.1645Z" fill="white" stroke="white" stroke-width="0.3" stroke-miterlimit="10"/>
<path d="M19.0014 30.2029C19.0014 30.578 19.0014 30.9531 19.0014 31.3282C19.0014 31.6936 18.8091 31.9148 18.5109 31.9245C18.2127 31.9245 18.0107 31.6936 18.0107 31.3378C18.0107 30.5587 18.0107 29.7797 18.0107 29.0007C18.0107 28.6448 18.2127 28.414 18.5205 28.4236C18.8091 28.4332 19.0014 28.6448 19.0111 28.9911C19.0111 29.395 19.0014 29.799 19.0014 30.2029Z" fill="white" stroke="white" stroke-width="0.3" stroke-miterlimit="10"/>
<path d="M20.5018 30.2026C20.5018 30.5873 20.5018 30.972 20.5018 31.3568C20.4922 31.6934 20.2998 31.9146 20.0113 31.9242C19.7227 31.9242 19.5111 31.7126 19.5111 31.376C19.5015 30.5777 19.5015 29.7794 19.5111 28.9811C19.5111 28.6445 19.7227 28.4329 20.0209 28.4329C20.3095 28.4329 20.5114 28.6637 20.5114 29.0003C20.5114 29.3947 20.5018 29.7986 20.5018 30.2026Z" fill="white" stroke="white" stroke-width="0.3" stroke-miterlimit="10"/>
<path d="M32.5163 26.7496C33.5166 25.8935 34.4689 25.0759 35.4211 24.2583C35.5269 24.1717 35.6231 24.0756 35.7385 24.0082C35.9597 23.8736 36.181 23.9024 36.3637 24.0948C36.5465 24.2968 36.5465 24.5276 36.3733 24.7489C36.306 24.8258 36.2291 24.8931 36.1425 24.9605C35.0845 25.8646 34.0264 26.7784 32.9684 27.6826C32.5644 28.0289 32.3816 28.0192 32.0161 27.6441C31.5929 27.2209 31.1793 26.8073 30.7561 26.3841C30.4579 26.0859 30.4291 25.7973 30.6599 25.5665C30.8907 25.3452 31.1697 25.3837 31.4775 25.6819C31.8237 26.0282 32.1604 26.3744 32.5163 26.7496Z" fill="white" stroke="white" stroke-width="0.3" stroke-miterlimit="10"/>
</svg>
