<svg width="249" height="258" viewBox="0 0 249 258" fill="none" xmlns="http://www.w3.org/2000/svg">
<g filter="url(#filter0_d_6317_171)">
<rect x="32" y="16" width="185" height="194" rx="92.5" fill="white"/>
<rect x="32.5" y="16.5" width="184" height="193" rx="92" stroke="#FA5762"/>
</g>
<g clip-path="url(#clip0_6317_171)">
<path d="M174.143 150.3C173.214 146.607 172.1 142.637 169.407 139.775C166.157 136.359 161.978 133.958 158.078 131.373C157.707 131.096 157.428 130.819 157.15 130.45C152.414 127.403 148.421 123.618 145.357 118.817C144.707 117.801 144.428 116.693 143.871 115.585C143.407 114.662 143.128 113.462 142.293 112.908C140.714 111.892 140.528 110.507 140.528 108.938C140.528 107.922 140.528 106.906 140.436 105.891C140.343 104.414 140.714 103.121 141.643 101.828C143.686 98.8739 145.264 95.6424 145.264 91.9493C147.771 90.8414 148.236 90.3797 148.886 88.9948C149.443 87.6099 150.093 86.3173 150.836 85.0247C153.157 81.3316 153.064 75.7919 150.836 73.2991C151.207 70.9909 151.857 69.052 151.764 67.1131C151.671 63.0507 150.186 59.2653 147.957 55.8492C146.286 53.3563 144.336 50.9558 141.086 50.3095C140.528 50.2172 140.064 49.3862 139.693 48.8323C138.95 48.0013 138.486 46.8934 137.557 46.3394C133.007 43.6619 128.086 41.8154 122.607 42C113.228 42.3693 105.428 45.6931 99.6713 53.6333C97.3499 56.8648 95.3999 60.0039 95.1213 64.0663C94.9356 67.2055 94.3785 70.2523 96.1428 73.0221C95.4928 73.8531 94.7499 74.4994 94.5642 75.238C94.0071 78.8388 93.8213 82.4395 96.1428 85.671C96.7928 86.502 97.2571 87.4252 97.5356 88.4408C97.9999 90.1027 98.9285 91.026 100.507 91.6723C100.878 91.857 101.343 92.4109 101.343 92.8726C101.714 95.6424 102.457 98.3199 104.221 100.628C106.078 103.029 106.357 105.614 106.171 108.476C106.078 109.307 106.171 110.138 105.986 110.876C105.893 111.246 105.707 111.8 105.336 111.984C103.757 113.092 102.828 114.477 102.55 116.324C102.457 116.785 102.271 117.339 101.993 117.801C100.321 120.479 98.4642 122.879 96.3285 125.003C96.1428 125.372 95.9571 125.741 95.5856 126.111C91.5928 129.711 87.1356 132.758 83.0499 136.267C79.7999 139.129 76.6428 142.176 74.6928 146.146C73.0213 149.469 72.2785 153.255 71.9999 156.948C71.7213 161.01 71.9999 165.073 72.5571 169.043C73.3928 169.32 74.2285 169.505 75.0642 169.689C85.6499 172.09 96.3285 173.105 107.1 173.659C126.228 174.49 145.264 174.121 164.207 171.166C167.828 170.612 171.543 169.966 174.978 168.766C176 162.672 175.628 156.302 174.143 150.3ZM103.478 90.3797C102.736 90.1951 101.993 90.2874 101.528 89.9181C100.786 89.4564 100.136 88.9025 99.6713 88.1639C98.9285 86.9636 98.5571 85.5787 97.7213 84.4707C95.8642 81.7932 96.0499 78.8388 96.4213 75.8843C96.5142 74.8687 97.6285 74.5917 98.1856 75.4226C98.8356 76.4382 99.3928 77.7308 99.6713 78.9311C100.228 81.5163 100.6 84.1938 101.064 87.1483C102.364 85.8557 102.457 84.6554 102.364 83.3628C101.993 80.4083 101.621 77.4538 101.25 74.4994C100.878 71.7295 101.343 69.052 102.643 66.5592C103.014 65.8206 104.036 65.3589 104.778 64.805C106.171 63.8817 107.657 63.1431 109.05 62.3121C109.793 61.8505 110.443 61.2965 111.186 60.9272C116.293 58.896 121.493 59.173 126.878 59.5423C130.314 59.7269 133.75 59.2653 137.186 59.173C138.021 59.173 138.95 59.2653 139.6 59.7269C142.757 61.9428 143.686 65.3589 144.336 68.8674C145.264 73.9454 145.078 79.0234 144.336 84.1014C144.15 85.2094 144.15 86.4096 145.821 87.1483C146.1 85.3017 146.286 83.5475 146.564 81.7932C146.936 79.8544 147.214 77.8232 147.771 75.9766C147.864 75.515 148.793 74.961 149.35 74.8687C150.278 74.7763 150.371 75.6073 150.464 76.3459C150.836 79.5774 150.65 82.5319 148.421 85.117C148.05 85.5787 147.678 86.225 147.586 86.7789C147.121 89.0871 145.728 90.0104 143.407 90.0104C143.314 91.026 143.407 92.1339 143.221 93.0572C141.178 101.274 136.721 107.737 128.271 110.323C124.65 111.43 120.75 111.338 117.036 109.861C113.136 108.291 109.978 105.983 107.657 102.29C105.336 98.7815 102.921 95.0884 103.478 90.3797ZM117.964 153.901C117.221 158.425 116.85 162.949 116.293 167.75C111.836 157.779 108.307 147.623 106.264 137.005C108.678 138.759 111 140.421 113.321 142.176C114.528 140.052 115.55 138.113 116.571 136.267C118.057 137.652 119.45 139.036 120.843 140.329C118.707 144.576 118.707 149.285 117.964 153.901ZM112.393 139.406C110.628 137.744 108.586 136.451 107.286 134.605C106.45 133.312 106.543 131.281 106.357 129.619C105.8 125.557 105.15 121.586 104.778 117.524C104.686 116.601 105.057 115.585 105.243 114.57C105.428 114.57 105.614 114.57 105.8 114.57C109.143 121.217 114.807 125.464 121.028 129.434C116.664 131.466 114.807 135.436 112.393 139.406ZM124.278 127.772C123.814 128.049 122.886 128.049 122.421 127.772C117.128 124.356 111.836 120.848 108.586 115.308C108.121 114.477 107.843 113.369 107.843 112.354C107.843 110.415 108.028 108.568 108.121 106.445C116.85 115.401 130.128 115.124 138.764 106.26C138.393 110.046 139.878 113.462 137.186 116.878C133.564 121.402 129.014 124.633 124.278 127.772ZM130.407 167.566C129.664 158.333 128.457 149.285 126.228 140.144C127.343 139.129 128.736 137.928 130.314 136.544C131.15 138.021 132.264 139.96 133.471 142.176C135.793 140.421 138.114 138.759 140.528 137.005C138.393 147.623 134.957 157.779 130.407 167.566ZM142.014 117.339C141.364 122.694 140.621 128.049 139.786 133.404C139.693 134.051 139.414 134.697 138.95 135.159C137.464 136.544 135.886 137.928 134.214 139.406C131.8 135.436 129.943 131.466 125.671 129.434C131.8 125.464 137.557 121.31 140.9 114.662C141.086 114.662 141.178 114.662 141.364 114.57C141.643 115.493 142.2 116.508 142.014 117.339Z" fill="#F05A64"/>
<path d="M105.428 112.077C105.428 112.077 114.9 127.311 142.386 113.093L143.593 138.021L137.093 172.182L102.643 168.858C102.55 168.858 103.014 113.093 105.428 112.077Z" fill="#F05A64"/>
<path d="M152.878 184C165.648 184 176 173.707 176 161.011C176 148.314 165.648 138.021 152.878 138.021C140.109 138.021 129.757 148.314 129.757 161.011C129.757 173.707 140.109 184 152.878 184Z" fill="#F4F7FC"/>
<path d="M152.878 170.89C151.671 170.89 150.557 170.52 149.628 169.689C148.607 168.766 147.493 168.304 146.1 168.212C143.407 168.12 141.55 166.273 141.457 163.596C141.364 162.211 140.9 161.103 139.971 160.087C138.393 158.333 138.3 155.84 139.878 153.994C140.9 152.793 141.457 151.593 141.55 150.116C141.735 147.438 143.685 145.777 146.378 145.684C147.585 145.684 148.607 145.223 149.443 144.484C151.671 142.545 154.085 142.545 156.314 144.484C157.15 145.223 158.171 145.684 159.285 145.684C162.257 145.777 164.114 147.623 164.207 150.578C164.207 151.686 164.671 152.701 165.414 153.532C167.457 155.748 167.457 158.148 165.414 160.364C164.578 161.288 164.207 162.303 164.207 163.503C164.114 166.273 162.257 168.12 159.471 168.212C158.171 168.212 157.057 168.858 156.128 169.689C155.2 170.52 154.178 170.982 152.878 170.89ZM142.293 156.948C142.293 162.673 147.028 167.474 152.785 167.474C158.543 167.474 163.464 162.765 163.464 156.948C163.464 151.224 158.728 146.423 152.971 146.423C147.121 146.423 142.385 151.132 142.293 156.948Z" fill="#F05A64"/>
<path d="M142.664 168.12C143.871 169.043 145.264 169.32 146.657 169.412C147.307 169.412 148.05 169.874 148.607 170.243C149.164 170.613 149.628 171.074 150.278 171.536C149.164 173.937 148.05 176.337 146.75 178.922C146.007 176.983 145.357 175.229 144.707 173.475C142.942 174.121 141.178 174.767 139.135 175.414C140.342 172.921 141.457 170.613 142.664 168.12Z" fill="#F05A64"/>
<path d="M160.214 173.567C159.564 175.414 158.914 177.168 158.171 179.014C157.057 176.614 155.942 174.213 154.921 171.998C155.849 171.259 156.685 170.613 157.614 169.966C158.078 169.689 158.728 169.505 159.285 169.412C160.307 169.228 161.421 169.043 162.628 168.858C163.557 170.89 164.671 173.198 165.785 175.598C163.835 174.86 162.071 174.213 160.214 173.567Z" fill="#F05A64"/>
<path d="M152.785 166.273C147.492 166.181 143.407 161.934 143.5 156.764C143.592 151.593 147.957 147.623 153.25 147.715C158.171 147.808 162.257 152.24 162.164 157.133C162.164 162.211 157.892 166.366 152.785 166.273ZM156.964 162.58C156.685 161.195 156.5 160.087 156.221 158.887C156.128 158.333 156.221 157.871 156.592 157.502C157.521 156.671 158.264 155.748 159.192 154.825C157.985 154.64 156.778 154.455 155.571 154.363C154.921 154.271 154.642 153.994 154.364 153.44C153.9 152.332 153.25 151.224 152.692 150.024C152.042 151.316 151.485 152.516 150.835 153.624C150.65 153.901 150.371 154.178 150.092 154.178C148.792 154.455 147.492 154.548 146.378 154.732C147.214 155.656 147.957 156.579 148.885 157.41C149.35 157.871 149.442 158.241 149.35 158.795C149.164 159.995 148.978 161.195 148.7 162.488C150 161.842 151.114 161.195 152.228 160.641C152.692 160.364 152.971 160.457 153.342 160.641C154.55 161.38 155.664 161.934 156.964 162.58Z" fill="#F05A64"/>
</g>
<defs>
<filter id="filter0_d_6317_171" x="0" y="0" width="249" height="258" filterUnits="userSpaceOnUse" color-interpolation-filters="sRGB">
<feFlood flood-opacity="0" result="BackgroundImageFix"/>
<feColorMatrix in="SourceAlpha" type="matrix" values="0 0 0 0 0 0 0 0 0 0 0 0 0 0 0 0 0 0 127 0" result="hardAlpha"/>
<feOffset dy="16"/>
<feGaussianBlur stdDeviation="16"/>
<feColorMatrix type="matrix" values="0 0 0 0 0.172549 0 0 0 0 0.207843 0 0 0 0 0.337255 0 0 0 0.05 0"/>
<feBlend mode="normal" in2="BackgroundImageFix" result="effect1_dropShadow_6317_171"/>
<feBlend mode="normal" in="SourceGraphic" in2="effect1_dropShadow_6317_171" result="shape"/>
</filter>
<clipPath id="clip0_6317_171">
<rect width="104" height="142" fill="white" transform="translate(72 42)"/>
</clipPath>
</defs>
</svg>
