<svg width="220" height="220" viewBox="0 0 220 220" fill="none" xmlns="http://www.w3.org/2000/svg">
<rect width="220" height="220" rx="40" fill="white"/>
<rect x="8" y="8" width="204" height="204" rx="39" fill="white" stroke="#6554C0" stroke-width="2"/>
<g clip-path="url(#clip0_6703_155)">
<path d="M110.293 49.4293C113.598 47.1373 116.89 44.9787 119.988 42.6019C120.842 41.947 121.622 40.6009 121.61 39.5701C121.586 36.5141 121.268 33.446 120.854 30.4022C120.464 27.5523 121.037 26.0486 124.427 26.0607C130.403 26.0971 131.634 27.516 133.939 32.9973C138.256 43.2325 133.293 52.3883 131.585 61.9443C130.281 69.2447 128.878 76.533 127.817 83.8698C127.598 85.4099 128.305 87.3624 129.207 88.7448C144.464 112.223 152.439 138.368 157.5 165.533C158.915 173.136 159.683 180.861 160.854 188.513C161.342 191.702 160.39 193.024 156.939 193C126.317 192.855 95.6953 192.758 65.0855 192.83C59.927 192.842 60.9636 190.114 61.305 186.852C63.7075 163.956 68.1465 141.497 76.4636 119.972C80.0855 110.598 84.1831 101.272 89.2806 92.6376C93.0123 86.3194 93.0977 80.2438 91.7318 73.7923C89.7075 64.2242 86.4636 54.8501 85.2928 45.197C84.6587 39.9461 86.5855 34.0645 88.5855 28.9348C90.0489 25.1876 94.5733 25.9152 98.0733 26.3881C98.6587 26.4609 99.4514 28.1466 99.427 29.0682C99.3416 32.1242 99.0611 35.1923 98.6221 38.224C98.2806 40.5403 98.8538 41.8379 101.122 43.0505C104.439 44.8332 107.354 47.3314 110.293 49.4293ZM158.476 189.265C155.195 173.221 152.598 157.832 148.805 142.734C144.342 124.968 137.39 108.063 127.5 92.492C126.561 91.0247 124.768 90.0909 123.378 88.9025C122.988 89.2542 122.61 89.6058 122.22 89.9696C125.025 101.32 127.817 112.683 130.622 124.034C130 124.301 129.366 124.568 128.744 124.847C127.988 123.646 126.89 122.543 126.549 121.245C124.122 112.077 121.683 102.909 119.598 93.6684C118.659 89.5452 116.634 88.5023 112.488 89.8848C112.488 91.4734 112.488 93.062 112.488 94.6385C112.488 108.694 112.537 122.749 112.427 136.804C112.415 138.332 111.5 139.848 111 141.364C110.403 141.218 109.805 141.073 109.207 140.927C109.207 123.901 109.207 106.875 109.207 89.9939C104.829 88.4174 102.866 89.5088 101.927 93.6684C99.8538 102.921 97.3782 112.077 94.927 121.245C94.5855 122.518 93.5001 123.598 92.7562 124.774C92.1465 124.483 91.5367 124.192 90.927 123.901C93.7196 112.562 96.5001 101.211 99.2684 89.9333C95.2806 88.1385 93.866 90.6002 92.4148 93.0984C79.4026 115.363 72.0855 139.605 67.5367 164.769C66.0977 172.748 65.1465 180.812 63.9148 189.265C95.3782 189.265 126.061 189.265 158.476 189.265ZM87.6587 43.8873C90.1587 54.0982 92.4757 63.8482 95.0245 73.5377C95.244 74.3623 96.8782 75.3446 97.8782 75.3688C105.951 75.5143 114.037 75.5386 122.122 75.3567C123.171 75.3324 124.89 74.1804 125.134 73.2466C127.646 63.7027 129.915 54.0982 132.342 44.1662C122.061 43.3658 115.317 48.156 110.073 56.7419C104.878 47.8164 97.8782 43.4992 87.6587 43.8873ZM124.073 79.0554C114.403 79.0554 105.244 79.0554 96.0855 79.0554C96.0855 81.4565 96.0855 83.5424 96.0855 85.6525C105.586 85.6525 114.732 85.6525 124.073 85.6525C124.073 83.3362 124.073 81.3474 124.073 79.0554ZM95.8538 29.7231C90.3904 29.6624 89.0977 31.6391 88.5855 39.9339C90.6953 39.9339 92.7806 39.9339 94.8782 39.9339C95.2075 36.3807 95.5123 33.2156 95.8538 29.7231ZM124.439 29.7473C124.598 31.7968 124.793 33.4945 124.866 35.2044C125.134 40.9162 125.781 41.3407 131.72 39.6065C130.012 30.293 129.61 29.7109 124.439 29.7473Z" fill="#5243AA"/>
</g>
<defs>
<clipPath id="clip0_6703_155">
<rect width="100" height="167" fill="white" transform="translate(61 26)"/>
</clipPath>
</defs>
</svg>
