<svg width="220" height="220" viewBox="0 0 220 220" fill="none" xmlns="http://www.w3.org/2000/svg">
<rect width="220" height="220" rx="40" fill="white"/>
<rect x="8" y="8" width="204" height="204" rx="39" fill="white" stroke="#6554C0" stroke-width="2"/>
<path d="M121.986 58.8564C122.925 59.1738 123.238 59.9143 123.238 60.8664C123.238 64.1459 123.343 67.5312 123.343 70.8106C123.343 71.4454 123.551 71.8685 123.968 72.2917C125.116 73.3496 125.429 74.7248 124.907 76.2059C124.386 77.6869 123.134 78.5332 121.673 78.639C120.213 78.639 118.857 77.7927 118.231 76.5233C117.605 75.148 117.918 73.3496 118.857 72.3975C118.857 72.3975 118.857 72.2917 118.961 72.2917C119.9 71.9743 119.796 71.128 119.796 70.2817C119.796 67.4254 119.796 64.5691 119.796 61.8185C119.796 61.5012 119.796 61.078 119.796 60.7606C119.796 59.8085 120.109 59.1738 121.048 58.8564C121.465 58.8564 121.778 58.8564 121.986 58.8564Z" fill="#5243AA"/>
<path d="M81.4089 58.8564C82.3478 59.2796 82.6608 60.0201 82.6608 60.9722C82.6608 64.2517 82.7651 67.4253 82.7651 70.7048C82.7651 71.4453 82.9737 71.8685 83.391 72.3974C84.7471 73.7727 84.9557 75.6769 83.9126 77.1579C83.078 78.4274 81.8262 78.9563 80.3657 78.639C79.0096 78.4274 77.9664 77.6869 77.5491 76.3116C77.1319 74.9364 77.3405 73.5611 78.3837 72.3974C79.3226 72.0801 79.2182 71.2338 79.2182 70.4932C79.2182 67.5311 79.2182 64.6748 79.2182 61.7127C79.2182 61.5012 79.2182 61.1838 79.2182 60.9722C79.2182 60.0201 79.5312 59.2796 80.4701 58.9622C80.8873 58.8564 81.2003 58.8564 81.4089 58.8564Z" fill="#5243AA"/>
<path d="M101.537 58.8564C102.58 59.1738 102.789 60.0201 102.789 61.078C102.789 64.2517 102.789 67.4253 102.789 70.7048C102.789 71.4453 102.998 71.9743 103.519 72.3974C104.458 73.2438 104.771 74.3016 104.667 75.5711C104.354 77.5811 102.58 78.9564 100.494 78.639C98.5121 78.3216 97.2602 76.5232 97.5732 74.5132C97.7818 73.4553 98.1991 72.5032 99.138 71.9743C99.3466 71.8685 99.4509 71.5511 99.4509 71.3396C99.4509 69.0122 99.4509 66.6848 99.4509 64.2517C99.4509 63.1938 99.5553 62.0301 99.5553 60.9722C99.5553 60.0201 99.7639 59.1738 100.807 58.8564C101.016 58.8564 101.224 58.8564 101.537 58.8564Z" fill="#5243AA"/>
<path d="M75.356 65.4155C75.356 66.4734 75.356 67.6371 75.356 68.695C75.1474 68.695 74.9387 68.695 74.7301 68.695C72.5394 68.8008 70.3487 68.8008 68.158 68.9066C67.5321 68.9066 66.9062 69.0123 66.3846 69.1181C65.0285 69.4355 63.9853 70.8107 63.9853 72.186C63.9853 102.019 63.9853 131.957 63.881 161.789C63.881 164.328 63.9853 166.761 63.9853 169.3C63.9853 171.099 65.6544 173.003 67.4278 173.003C70.9746 173.215 74.5215 173.32 77.964 173.32C88.2916 173.32 98.7234 173.32 109.051 173.32C117.814 173.32 126.577 173.32 135.235 173.215C135.548 173.215 135.965 173.109 136.174 172.897C137.321 172.051 137.947 170.993 138.052 169.406C138.156 160.837 138.26 152.374 138.365 143.805C138.365 143.488 138.469 143.065 138.573 142.747C139.408 140.949 140.347 139.045 141.285 137.246C141.39 137.035 141.494 136.929 141.703 136.717C141.703 136.823 141.703 137.035 141.703 137.14C141.703 146.662 141.703 156.288 141.703 165.809C141.703 167.396 141.703 168.983 141.494 170.676C141.285 173.003 139.929 174.696 138.052 175.859C137.113 176.494 136.07 176.706 134.922 176.706C112.598 176.706 90.2736 176.706 68.0537 176.706C66.2803 176.706 64.9241 176.071 63.568 175.225C62.0032 174.167 61.1687 172.474 60.4384 170.781C60.3341 170.57 60.3341 170.147 60.3341 169.935C60.3341 140.208 60.3341 110.587 60.3341 80.8607C60.3341 77.8986 60.4384 74.8307 60.3341 71.8686C60.2298 70.0702 60.96 68.695 62.1075 67.5313C63.568 65.9444 65.3414 65.0981 67.4278 65.0981C69.9314 65.0981 72.5394 65.0981 75.0431 65.0981C75.1474 65.3097 75.2517 65.4155 75.356 65.4155Z" fill="#5243AA"/>
<path d="M132.001 148.672C127.828 146.556 123.656 144.44 119.587 142.43C119.17 142.219 119.066 142.007 119.274 141.584C121.674 136.506 124.073 131.322 126.472 126.245C126.577 126.033 126.785 125.716 126.89 125.504C127.098 125.081 127.411 124.764 127.933 124.658C129.497 124.34 130.749 123.494 131.48 122.013C134.192 116.3 137.008 110.588 139.825 104.875C141.181 102.019 142.537 99.2684 143.893 96.4121C143.998 96.2005 144.102 95.9889 144.311 95.7773C147.753 97.47 151.196 99.1626 154.743 100.855C147.127 116.829 139.616 132.698 132.001 148.672Z" fill="#5243AA"/>
<path d="M156.205 97.9987C152.867 96.3061 149.529 94.7192 146.19 93.1324C145.46 92.815 144.73 92.4977 144 92.1803C143.061 91.8629 142.748 91.9687 142.331 92.815C141.392 94.5076 140.557 96.306 139.723 98.1045C136.28 105.298 132.838 112.386 129.395 119.58C129.186 120.003 128.978 120.532 128.665 120.955C128.248 121.59 127.622 121.801 126.996 121.484C126.37 121.167 126.057 120.426 126.37 119.791C127.1 118.099 127.83 116.3 128.665 114.608C132.42 106.568 136.28 98.6334 140.14 90.5934C140.453 89.9587 140.87 89.324 141.183 88.6892C141.6 87.9487 142.122 87.8429 142.852 88.0545C143.165 88.1603 143.374 88.2661 143.582 88.3719C144 88.5834 144.208 88.4776 144.417 88.0545C144.834 87.2082 145.252 86.3619 145.669 85.5155C146.086 84.6692 146.608 83.8229 147.129 83.0824C147.755 82.2361 148.798 82.0245 149.737 82.4477C152.762 83.8229 155.683 85.304 158.709 86.785C159.752 87.314 160.273 88.9008 159.856 89.9587C158.709 92.4976 157.457 95.2482 156.205 97.9987Z" fill="#5243AA"/>
<path d="M125.744 94.2959C125.744 95.4596 125.744 96.5174 125.744 97.6811C109.262 97.6811 92.8837 97.6811 76.4014 97.6811C76.4014 96.5174 76.4014 95.4596 76.4014 94.2959C92.7794 94.2959 109.262 94.2959 125.744 94.2959Z" fill="#5243AA"/>
<path d="M76.4014 110.165C76.4014 109.001 76.4014 107.943 76.4014 106.779C92.8837 106.779 109.262 106.779 125.744 106.779C125.744 107.943 125.744 109.001 125.744 110.165C109.262 110.165 92.8837 110.165 76.4014 110.165Z" fill="#5243AA"/>
<path d="M76.4014 122.647C76.4014 121.484 76.4014 120.426 76.4014 119.262C91.7362 119.262 106.967 119.262 122.197 119.262C122.406 120.426 122.719 121.484 122.927 122.647C107.384 122.647 91.9449 122.647 76.4014 122.647Z" fill="#5243AA"/>
<path d="M130.539 151.633C130.33 151.845 130.226 151.951 130.122 152.056C126.053 155.759 122.089 159.462 118.021 163.164C117.812 163.376 117.499 163.482 117.291 163.588C116.873 163.588 116.56 163.376 116.56 162.953C116.456 162.106 116.456 161.366 116.456 160.52C116.769 155.548 117.082 150.575 117.395 145.709C117.395 145.18 117.708 145.286 118.021 145.392C119.377 146.027 120.733 146.555 121.985 147.296C124.593 148.565 127.201 149.941 129.809 151.316C130.017 151.316 130.226 151.422 130.539 151.633Z" fill="#5243AA"/>
<path d="M138.159 85.4099C138.159 81.7073 138.159 78.1105 138.159 74.4078C138.159 73.4557 138.054 72.6094 138.054 71.6573C137.95 70.2821 137.011 69.2242 135.655 69.1184C134.09 69.0126 132.525 68.9068 130.961 68.9068C129.709 68.9068 128.457 68.9068 127.205 68.9068C127.205 67.6374 127.205 66.5795 127.205 65.4158C127.309 65.4158 127.518 65.4158 127.622 65.4158C130.335 65.4158 133.047 65.5216 135.864 65.6274C138.367 65.7332 140.871 67.8489 141.392 70.1763C141.497 70.811 141.601 71.5515 141.601 72.2921C141.705 75.9947 141.705 79.6973 141.705 83.3999C141.705 83.9289 141.601 84.1405 141.079 84.2462C140.349 84.352 139.723 84.7752 139.097 85.0925C138.784 85.1983 138.576 85.4099 138.367 85.6215C138.367 85.4099 138.263 85.4099 138.159 85.4099Z" fill="#5243AA"/>
<path d="M115.934 65.4158C115.934 66.5794 115.934 67.6373 115.934 68.801C112.909 68.801 109.884 68.801 106.858 68.801C106.858 67.6373 106.858 66.5794 106.858 65.4158C109.884 65.4158 112.909 65.4158 115.934 65.4158Z" fill="#5243AA"/>
<path d="M95.4893 65.4158C95.4893 66.5794 95.4893 67.6373 95.4893 68.801C92.5684 68.801 89.6475 68.801 86.7266 68.801C86.7266 67.6373 86.7266 66.5794 86.7266 65.4158C89.6475 65.4158 92.4641 65.4158 95.4893 65.4158Z" fill="#5243AA"/>
</svg>
