<svg width="106" height="106" viewBox="0 0 106 106" fill="none" xmlns="http://www.w3.org/2000/svg">
<circle cx="53" cy="53" r="53" fill="white"/>
<path d="M62.6302 53.1393C62.6302 58.6169 58.173 63.0741 52.6955 63.0741C47.2179 63.0741 42.7607 58.6169 42.7607 53.1393C42.7607 47.6618 47.2179 43.2046 52.6955 43.2046C58.173 43.2046 62.6302 47.6618 62.6302 53.1393ZM56.5804 47.2852L53.2514 50.6143C53.0733 50.5743 52.8874 50.5524 52.6955 50.5524C51.2686 50.5524 50.1085 51.7124 50.1085 53.1393C50.1085 54.5662 51.2686 55.7263 52.6955 55.7263C54.1224 55.7263 55.2824 54.5662 55.2824 53.1393C55.2824 52.7916 55.2123 52.461 55.0877 52.1596L58.2712 48.9761C58.2712 48.9761 58.2712 48.9761 58.2713 48.976C58.7383 48.5091 58.7382 47.752 58.2713 47.2851C57.8046 46.8183 57.0472 46.8183 56.5805 47.2851C56.5805 47.2852 56.5805 47.2852 56.5804 47.2852Z" stroke="#2C3556"/>
<path d="M52.6956 53.8351C53.0792 53.8351 53.3913 53.523 53.3913 53.1395C53.3913 53.0876 53.3846 53.0373 53.3738 52.9886C53.3336 52.9957 53.2929 53.0003 53.2522 53.0003C53.0742 53.0003 52.896 52.9324 52.7602 52.7965C52.6632 52.6995 52.6024 52.5806 52.5747 52.4561C52.2489 52.5137 52 52.7973 52 53.1395C52 53.523 52.3121 53.8351 52.6956 53.8351Z" fill="#2C3556"/>
<path d="M55.7569 38.1456L55.7572 38.1456C62.8466 39.5846 67.9957 45.8915 67.9957 53.1391C67.9957 61.5749 61.1315 68.4391 52.6957 68.4391C44.26 68.4391 37.3958 61.5749 37.3958 53.1391C37.3958 46.0191 42.4388 39.7338 49.3794 38.2007L49.3795 38.2007C50.0189 38.0595 50.474 37.4925 50.474 36.8379V34.222H54.6392V36.7779C54.6392 37.4419 55.1069 38.0133 55.7569 38.1456Z" stroke="#2C3556" stroke-width="1.4"/>
<path d="M38.4132 77.3293C38.5279 77.4012 38.6556 77.4356 38.7817 77.4356C39.0133 77.4356 39.24 77.3198 39.3719 77.1089C39.5758 76.7834 39.4772 76.354 39.1515 76.1502C31.1668 71.15 26.3999 62.5476 26.3999 53.1389C26.3999 41.9377 33.1273 32.0339 43.5387 27.9075C43.8958 27.7658 44.0707 27.3615 43.9292 27.0044C43.7874 26.6472 43.383 26.4726 43.0262 26.614C37.772 28.6965 33.2885 32.2631 30.0603 36.9284C26.7556 41.7043 25.0088 47.3097 25.0088 53.1389C25.0088 58.0601 26.2827 62.9116 28.6927 67.1691C31.0289 71.2969 34.3903 74.8102 38.4132 77.3293Z" fill="#2C3556"/>
<path d="M82.052 53.1391C82.052 37.7981 69.8776 25.2471 54.6827 24.6405L56.0907 22.0255C56.2729 21.6872 56.1462 21.2653 55.808 21.0834C55.4699 20.9011 55.0479 21.0277 54.8658 21.3659L52.918 24.9833C52.915 24.989 52.913 24.995 52.91 25.0007C52.9054 25.0097 52.9016 25.0189 52.8975 25.0281C52.8836 25.0586 52.8722 25.0896 52.863 25.1215C52.8611 25.1284 52.8586 25.1352 52.8566 25.1422C52.8471 25.18 52.841 25.2186 52.8378 25.2572C52.8371 25.2666 52.837 25.276 52.8366 25.2854C52.8353 25.3186 52.8363 25.3519 52.8396 25.3848C52.8405 25.3929 52.8406 25.4007 52.8417 25.4088C52.8472 25.4474 52.8562 25.4856 52.868 25.523C52.8709 25.5324 52.8747 25.5418 52.878 25.5511C52.891 25.5866 52.9063 25.6212 52.9252 25.6546C52.9269 25.6575 52.9277 25.6606 52.9292 25.6635L54.8771 29.0026C55.0064 29.2243 55.2393 29.3478 55.4787 29.3478C55.5976 29.3478 55.7184 29.3171 55.8286 29.2528C56.1604 29.0592 56.2724 28.6332 56.079 28.3014L54.7584 26.0376C69.1502 26.6821 80.6606 38.5909 80.6606 53.1389C80.6606 68.0985 68.4899 80.2692 53.5303 80.2692H20.6956C20.3114 80.2692 20 80.5805 20 80.9648C20 81.3491 20.3114 81.6605 20.6956 81.6605H53.5303C69.2572 81.6607 82.052 68.866 82.052 53.1391Z" fill="#2C3556"/>
<path d="M85.3792 81.3976C85.3786 81.3942 85.3786 81.3906 85.3779 81.3871C85.3701 81.3482 85.3582 81.3099 85.3439 81.2726C85.3395 81.2609 85.3339 81.2498 85.3287 81.2383C85.3168 81.2113 85.303 81.1853 85.2876 81.1599C85.2807 81.1489 85.2743 81.1379 85.2671 81.1274C85.2433 81.093 85.2176 81.06 85.1874 81.0298L82.4048 78.2472C82.1333 77.9755 81.6926 77.9755 81.4211 78.2472C81.1494 78.5188 81.1494 78.9593 81.4211 79.2309L83.0161 80.826H67.9998C67.6156 80.826 67.3042 81.1374 67.3042 81.5217C67.3042 81.9059 67.6156 82.2173 67.9998 82.2173H83.0161L81.421 83.8124C81.1493 84.084 81.1493 84.5245 81.421 84.7961C81.5568 84.932 81.7349 84.9999 81.9128 84.9999C82.0908 84.9999 82.269 84.932 82.4047 84.7961L85.1872 82.0135C85.1921 82.0086 85.1955 82.0029 85.2 81.9979C85.2224 81.9743 85.243 81.9489 85.262 81.9221C85.2686 81.9126 85.2759 81.9034 85.282 81.8938C85.3033 81.8604 85.3226 81.8254 85.3381 81.7878C85.3382 81.7874 85.3383 81.7868 85.3386 81.7863C85.3414 81.7795 85.3428 81.7724 85.3454 81.7657C85.3574 81.7338 85.367 81.7014 85.3741 81.6687C85.3769 81.6561 85.3785 81.6435 85.3806 81.6309C85.3852 81.6019 85.388 81.5731 85.389 81.5442C85.3894 81.532 85.3901 81.5199 85.3898 81.5078C85.389 81.4706 85.3858 81.4339 85.3792 81.3976Z" fill="#2C3556"/>
<path d="M37.3915 24.4785H34.6089V27.261H37.3915V24.4785Z" fill="#2C3556"/>
<path d="M33.2177 24.4785H30.4351V27.261H33.2177V24.4785Z" fill="#2C3556"/>
</svg>
