<svg width="249" height="258" viewBox="0 0 249 258" fill="none" xmlns="http://www.w3.org/2000/svg">
<g filter="url(#filter0_d_6317_168)">
<rect x="32" y="16" width="185" height="194" rx="92.5" fill="white"/>
<rect x="32.5" y="16.5" width="184" height="193" rx="92" stroke="#FA5762"/>
</g>
<g clip-path="url(#clip0_6317_168)">
<path d="M156.645 110.34C153.374 120.79 150.158 131.24 147.025 141.69C144.341 150.588 142.327 159.597 141.908 168.966C141.74 172.32 142.076 175.48 142.887 178.501C138.943 178.834 134.972 179 130.945 179C121.913 179 113.076 178.141 104.518 176.477C104.91 175.341 105.301 174.205 105.693 173.068C107.343 168.189 107.818 163.145 107.79 158.044C107.79 157.157 107.65 156.298 107.734 155.411C108.098 150.921 106.168 147.4 103.344 144.129C101.582 142.106 99.8759 140.027 98.2819 137.865C95.7091 134.4 94.8701 130.547 96.1845 126.334C98.2539 119.681 100.128 112.973 102.505 106.432C104.239 101.608 107.119 97.4506 112.097 95.2331C112.488 95.0668 112.88 94.9282 113.271 94.7896C113.383 94.7619 113.523 94.7896 113.887 94.8173C113.271 95.9815 112.684 97.0625 112.153 98.1436C109.776 102.939 107.231 107.679 105.133 112.585C103.511 116.355 102.225 120.319 102.924 124.56C103.819 129.826 106.252 134.4 109.58 138.558C110.139 139.251 110.726 139.251 111.37 138.78C117.997 133.929 123.115 128.08 123.814 119.487C124.429 111.532 126.163 103.881 129.575 96.6745C130.33 95.0945 131.197 93.5699 132.176 92.1008C132.735 91.2693 133.546 90.5763 134.357 89.9942C134.665 89.7724 135.392 89.8279 135.755 90.0496C135.979 90.1882 136.035 90.9089 135.923 91.297C135.56 92.378 135.028 93.4036 134.581 94.4847C133.798 96.3973 134.105 97.3397 136.035 98.0881C140.23 99.7513 144.509 101.165 148.647 102.967C151.164 104.075 153.457 105.711 155.806 107.18C156.897 107.928 157.093 108.982 156.645 110.34Z" fill="#F05A64"/>
<path d="M106.001 76.0524C106.476 80.4597 107.455 84.479 110.308 87.8607C113.663 91.8523 121.046 94.6242 126.248 89.1635C124.626 92.1572 118.921 95.0677 113.943 92.0186C110.224 89.7179 108.21 86.1699 106.672 82.3169C106.057 80.7369 105.581 79.0738 105.33 77.3829C105.134 75.997 104.463 75.7752 103.232 75.6644C97.108 75.11 90.9836 74.4447 85.1109 72.5875C84.0202 72.2549 82.9296 71.756 81.9508 71.1462C80.8042 70.4255 80.6924 69.3999 81.6991 68.4851C82.7059 67.5704 83.8804 66.7111 85.0829 66.0736C89.4735 63.7729 94.1996 62.387 99.0096 61.3059C99.9884 61.0842 100.604 60.6684 101.079 59.7536C105.022 51.9646 114.726 46.0882 124.57 48.6106C129.771 49.9411 133.798 52.8793 136.763 57.2589C137.49 58.3123 138.273 58.7835 139.559 58.9221C146.411 59.5873 153.15 60.7515 159.582 63.2462C162.351 64.3273 165.092 65.5192 167.105 67.8476C168.392 69.3444 168.364 70.6472 166.574 71.4233C163.861 72.5875 161.037 73.724 158.156 74.1675C152.088 75.11 145.963 75.8307 139.867 76.191C133.071 76.5791 126.276 76.5236 119.48 76.5236C115.677 76.5236 111.846 76.191 108.042 76.0247C107.399 76.0247 106.812 76.0524 106.001 76.0524Z" fill="#F05A64"/>
</g>
<defs>
<filter id="filter0_d_6317_168" x="0" y="0" width="249" height="258" filterUnits="userSpaceOnUse" color-interpolation-filters="sRGB">
<feFlood flood-opacity="0" result="BackgroundImageFix"/>
<feColorMatrix in="SourceAlpha" type="matrix" values="0 0 0 0 0 0 0 0 0 0 0 0 0 0 0 0 0 0 127 0" result="hardAlpha"/>
<feOffset dy="16"/>
<feGaussianBlur stdDeviation="16"/>
<feColorMatrix type="matrix" values="0 0 0 0 0.172549 0 0 0 0 0.207843 0 0 0 0 0.337255 0 0 0 0.05 0"/>
<feBlend mode="normal" in2="BackgroundImageFix" result="effect1_dropShadow_6317_168"/>
<feBlend mode="normal" in="SourceGraphic" in2="effect1_dropShadow_6317_168" result="shape"/>
</filter>
<clipPath id="clip0_6317_168">
<rect width="87" height="131" fill="white" transform="translate(81 48)"/>
</clipPath>
</defs>
</svg>
