<svg width="32" height="32" viewBox="0 0 32 32" fill="none" xmlns="http://www.w3.org/2000/svg">
<circle cx="16" cy="16" r="16" fill="#64728C"/>
<mask id="mask0_6317_261" style="mask-type:alpha" maskUnits="userSpaceOnUse" x="8" y="8" width="16" height="16">
<path fill-rule="evenodd" clip-rule="evenodd" d="M8 8H24V24H8V8Z" fill="white"/>
</mask>
<g mask="url(#mask0_6317_261)">
<path fill-rule="evenodd" clip-rule="evenodd" d="M16.1169 22.3499C14.09 22.3499 12.4676 21.2662 12.4676 21.2662L9.97784 22.0699L10.7857 19.6852C10.7857 19.6852 9.49524 17.9178 9.49524 15.799C9.49524 12.181 12.4598 9.24805 16.1169 9.24805C19.7739 9.24805 22.7385 12.181 22.7385 15.799C22.7385 19.417 19.7739 22.3499 16.1169 22.3499ZM16.1171 8C11.7635 8 8.23421 11.4916 8.23421 15.7988C8.23421 17.9364 9.37813 19.8471 9.37813 19.8471L8 24L12.3193 22.6344C12.3193 22.6344 13.9228 23.5975 16.1171 23.5975C20.4707 23.5975 24 20.1059 24 15.7988C24 11.4916 20.4707 8 16.1171 8Z" fill="white"/>
</g>
<path fill-rule="evenodd" clip-rule="evenodd" d="M13.1148 12.4036C13.1148 12.4036 13.3278 12.27 13.4389 12.27H14.0598C14.0598 12.27 14.2264 12.2987 14.3028 12.4703C14.3794 12.642 14.9029 13.8591 14.9419 13.9529C14.9808 14.0469 15.0824 14.2791 14.9194 14.4872C14.7563 14.6953 14.4153 15.0838 14.4153 15.0838C14.4153 15.0838 14.2804 15.204 14.3974 15.3955C14.5143 15.5869 14.9258 16.2184 15.464 16.6956C16.0021 17.1726 16.6611 17.5236 16.9896 17.6305C17.3181 17.7373 17.3901 17.5949 17.516 17.4346C17.6421 17.2743 18.0336 16.7846 18.0336 16.7846C18.0336 16.7846 18.1687 16.5887 18.4341 16.7089C18.6997 16.8291 19.9912 17.448 19.9912 17.448C19.9912 17.448 20.1487 17.4747 20.1577 17.6483C20.1666 17.8219 20.2748 18.3415 19.8067 18.8414C19.3386 19.3413 18.343 19.5727 17.8717 19.4423C17.4003 19.3119 15.8419 18.9086 14.8254 17.9709C13.809 17.0332 12.9859 16.0461 12.6492 15.3182C12.3125 14.5902 12.3312 14.1584 12.3499 13.9548C12.3686 13.7512 12.4767 12.8079 13.1148 12.4036Z" fill="white"/>
</svg>
